<?xml version="1.0" standalone="no"?>
<!DOCTYPE svg PUBLIC "-//W3C//DTD SVG 1.1//EN" "http://www.w3.org/Graphics/SVG/1.1/DTD/svg11.dtd" >
<svg>
<metadata>
Created by FontForge 20110222 at Mon Jun 23 13:10:08 2014
 By deploy user
Copyright (c) 2012, vernon adams (vern@newtypography.co.uk), with Reserved Font Names 'Cutive'.
</metadata>
<defs>
<font id="CutiveMono-Regular" horiz-adv-x="1240" >
  <font-face 
    font-family="Cutive Mono"
    font-weight="400"
    font-stretch="normal"
    units-per-em="2048"
    panose-1="2 0 5 9 0 0 0 0 0 0"
    ascent="1638"
    descent="-410"
    x-height="772"
    cap-height="1171"
    bbox="6 -558 1612 1697"
    underline-thickness="0"
    underline-position="-435"
    unicode-range="U+000D-FB04"
  />
<missing-glyph 
d="M102 0v1092h820v-1092h-820zM204 102h616v888h-616v-888z" />
    <glyph glyph-name=".notdef" 
d="M102 0v1092h820v-1092h-820zM204 102h616v888h-616v-888z" />
    <glyph glyph-name="glyph1" horiz-adv-x="0" 
 />
    <glyph glyph-name="uni000D" unicode="&#xd;" 
 />
    <glyph glyph-name="space" unicode=" " 
 />
    <glyph glyph-name="exclam" unicode="!" 
d="M686 1103q0 -114 -20 -356t-20 -367q0 -36 -24 -36t-24 36q0 126 -21 367t-21 356q0 47 17 65.5t49 18.5q64 0 64 -84zM621 -9q-43 0 -72.5 29.5t-29.5 72.5t29.5 71.5t72.5 28.5t72 -28.5t29 -71.5t-29 -72.5t-72 -29.5z" />
    <glyph glyph-name="quotedbl" unicode="&#x22;" 
d="M752 721q-1 -20 -24 -20q-24 0 -25 20l-32 396q-2 26 15 40.5t42 14.5q23 0 40.5 -13.5t17.5 -36.5v-6zM535 721q-1 -20 -24 -20q-24 0 -25 20l-32 396q-2 26 15 40.5t42 14.5q23 0 40.5 -13.5t17.5 -36.5v-6z" />
    <glyph glyph-name="numbersign" unicode="#" 
d="M584 -94q0 5 1 8l119 471h-257l-122 -479q-7 -29 -41 -29q-15 0 -26 8t-11 21q0 5 1 8l119 471h-117q-14 0 -22.5 12.5t-8.5 30.5q0 17 8.5 29.5t22.5 12.5h138l55 219h-151q-14 0 -22.5 12.5t-8.5 30.5q0 17 8.5 29.5t22.5 12.5h173l128 508q7 26 38 26q16 0 28.5 -8.5
t12.5 -22.5q0 -5 -1 -7l-126 -496h257l128 508q7 26 38 26q16 0 28.5 -8.5t12.5 -22.5q0 -5 -1 -7l-126 -496h119q15 0 23 -13t8 -30t-8 -29.5t-22 -12.5h-141l-56 -219h154q15 0 23 -12.5t8 -29.5q0 -18 -8 -30.5t-23 -12.5h-175l-122 -479q-7 -29 -41 -29q-15 0 -26 8
t-11 21zM468 470h257l55 219h-256z" />
    <glyph glyph-name="dollar" unicode="$" 
d="M640 1315q0 13 10 21t24 8q13 0 23 -8t10 -21v-132q143 -15 210 -88q0 92 52 92q21 0 30.5 -16t9.5 -54v-253q0 -26 -13 -39.5t-33 -13.5q-18 0 -31.5 12.5t-13.5 34.5v91q-6 49 -49 85t-100 52q-30 8 -62 12v-462q22 -8 44 -15q78 -27 130.5 -53.5t94.5 -63.5t61.5 -85
t19.5 -111q0 -86 -30 -150.5t-82.5 -101.5t-116.5 -55q-56 -16 -121 -18v-124q0 -12 -10 -19t-23 -7q-14 0 -24 7t-10 19v127q-63 7 -130 30q-94 33 -147 89q0 -122 -47 -122q-26 0 -37 16t-11 58v314q0 23 12.5 35t31.5 12t32.5 -13t13.5 -36v-119q0 -65 106 -123
q83 -46 176 -55v489l-73 25q-55 19 -91 34t-76.5 40t-63.5 53.5t-38.5 71t-15.5 96.5q0 144 98.5 225t246.5 81h13v128zM640 1101q-121 -1 -190 -57q-72 -58 -72 -158q0 -29 5.5 -52.5t12 -40.5t26 -33.5t31.5 -25.5t45.5 -23t51.5 -20.5t65 -22.5q12 -4 25 -9v442zM707 69
q109 3 179 57q75 57 75 178q0 47 -14.5 82t-46.5 61t-70.5 44t-98.5 39l-24 8v-469z" />
    <glyph glyph-name="percent" unicode="%" 
d="M277 472q-62 0 -103 54.5t-41 130.5q0 135 65 232t163 97h42q79 0 126.5 1.5t109 10t100 24.5t74.5 46.5t56 74.5q9 19 29 19q14 0 25.5 -10.5t11.5 -27.5q0 -11 -4 -20l-561 -1319q-12 -28 -39 -28q-15 0 -25 9.5t-10 26.5q0 13 5 24l499 1168q-96 -70 -265 -70
q-57 0 -120 11q36 -22 54 -66t20 -93q0 -109 -61 -202t-151 -93zM282 531q39 0 71 40.5t48 96t16 109.5q0 52 -19 94t-52 42q-62 0 -101.5 -72.5t-39.5 -179.5q0 -56 20 -93t57 -37zM878 -13q-68 0 -103.5 56t-35.5 141q0 75 25.5 146.5t78.5 121t121 49.5q63 0 99 -57
t36 -136q-2 -135 -61.5 -228t-159.5 -93zM887 44q39 0 72 40t50 98.5t17 118.5q0 58 -17 96t-52 38q-61 0 -102.5 -82t-41.5 -172q0 -59 18.5 -98t55.5 -39z" />
    <glyph glyph-name="ampersand" unicode="&#x26;" 
d="M847 135q-66 -73 -147.5 -112t-193.5 -39q-147 0 -233.5 75.5t-86.5 212.5q0 20 1 31q3 43 25 89.5t44 78t63 72t54.5 51.5t45.5 38q-41 54 -66 91.5t-51.5 99.5t-26.5 113q0 113 64 183t172 70q114 0 181.5 -71t67.5 -185q0 -25 -4 -48.5t-14.5 -46.5t-19 -40.5
t-27.5 -39t-28.5 -33t-34 -32.5t-32.5 -28t-35 -28.5t-31 -24.5q60 -87 155 -196t160 -162q44 43 84.5 133t44.5 157h-132q-16 0 -25 13t-9 30q0 16 8 27.5t24 11.5h274q16 0 25.5 -12.5t9.5 -28.5q0 -17 -9.5 -29t-27.5 -12h-59q-2 -45 -16.5 -93t-41 -96t-45.5 -78.5
t-49 -73.5q127 -110 187 -152q24 -16 24 -39q0 -17 -14 -30.5t-32 -13.5q-9 0 -19 5q-22 12 -54 37t-81.5 67t-68.5 58zM283 311q-1 -10 -1 -29q0 -111 66 -164t169 -53q83 0 158 35.5t122 91.5q-69 56 -171 176.5t-157 195.5q-59 -46 -120 -119t-66 -134zM673 931
q0 90 -45 133t-107 43q-59 0 -104.5 -40.5t-45.5 -122.5q0 -111 116 -266q186 134 186 253z" />
    <glyph glyph-name="quotesingle" unicode="'" 
d="M644 721q-1 -20 -24 -20q-24 0 -25 20l-32 396q-2 26 15 40.5t42 14.5q23 0 40.5 -13.5t17.5 -36.5v-6z" />
    <glyph glyph-name="parenleft" unicode="(" 
d="M484 570q0 424 208 697q13 17 31 17t32.5 -15t14.5 -31q0 -8 -6 -16q-92 -108 -139 -280.5t-47 -371.5t47 -371.5t139 -280.5q6 -7 6 -16q0 -16 -14.5 -31t-32.5 -15t-31 17q-208 273 -208 697z" />
    <glyph glyph-name="parenright" unicode=")" 
d="M770 570q0 -424 -208 -697q-13 -17 -31 -17t-32.5 15t-14.5 31q0 8 6 16q92 108 139 280.5t47 371.5t-47 371.5t-139 280.5q-6 8 -6 16q0 16 14.5 31t32.5 15t31 -17q208 -273 208 -697z" />
    <glyph glyph-name="asterisk" unicode="*" 
d="M975 856q23 0 36 -19.5t13 -45.5t-13 -45t-36 -19l-198 23q-19 1 -30 12.5t-11 28.5q0 38 41 43zM342 727q-23 0 -36.5 19.5t-13.5 44.5q0 26 13.5 45.5t36.5 19.5l198 -22q41 -5 41 -43q0 -17 -11 -28.5t-30 -12.5zM879 536q0 -27 -26 -46.5t-55 -19.5q-31 0 -40 22
l-78 180q-5 15 -5 20q0 17 12.5 28t30.5 11q22 0 37 -19l118 -156q6 -12 6 -20zM642 891q0 -17 -13 -28.5t-31 -11.5q-20 0 -35 21l-119 155q-6 12 -6 21q0 27 25.5 46t55.5 19q28 0 40 -21l78 -180q5 -12 5 -21zM518 470q-30 0 -55.5 19.5t-25.5 46.5q0 8 6 20l119 156
q13 19 35 19q18 0 31 -11t13 -28q0 -8 -4 -20l-78 -180q-13 -22 -41 -22zM796 1113q30 0 55.5 -19.5t25.5 -45.5q0 -11 -5 -21l-119 -155q-15 -21 -36 -21q-18 0 -30.5 11.5t-12.5 28.5q0 7 4 21l78 180q10 21 40 21z" />
    <glyph glyph-name="plus" unicode="+" 
d="M924 538q43 0 43 -41t-43 -41h-255v-261q0 -25 -14 -38.5t-34 -13.5t-34 13.5t-14 38.5v261h-257q-43 0 -43 41q0 17 10.5 29t32.5 12h257v266q0 25 14 38.5t34 13.5t34 -13.5t14 -38.5v-266h255z" />
    <glyph glyph-name="comma" unicode="," 
d="M616 180q48 0 80 -32t32 -89q0 -81 -58 -156.5t-127 -110.5q-3 -2 -10 -2q-11 0 -19.5 8.5t-8.5 18.5q0 12 12 21q109 79 109 154q-47 0 -77.5 23.5t-30.5 69.5q0 45 29.5 70t68.5 25z" />
    <glyph glyph-name="hyphen" unicode="-" 
d="M379 500h507q51 0 51 -41q0 -19 -10.5 -30t-40.5 -11h-507q-52 0 -52 41t52 41z" />
    <glyph glyph-name="period" unicode="." 
d="M620 -16q-46 0 -76 29.5t-30 75.5t30.5 76t75.5 30t75.5 -30.5t30.5 -75.5t-30.5 -75t-75.5 -30z" />
    <glyph glyph-name="slash" unicode="/" 
d="M247 -178l667 1330q10 21 37 21q18 0 32 -11t14 -28q0 -9 -6 -21l-664 -1326q-13 -24 -37 -24q-18 0 -32.5 12.5t-14.5 29.5q0 9 4 17z" />
    <glyph glyph-name="zero" unicode="0" 
d="M619 69q94 0 162 76t99.5 190t31.5 248t-32 249.5t-100.5 192t-160.5 76.5q-71 0 -127.5 -44t-91.5 -118t-53.5 -165.5t-18.5 -190.5q0 -134 31.5 -248t99 -190t160.5 -76zM619 1187q93 0 168.5 -51.5t122.5 -137.5t72.5 -192.5t25.5 -221.5q0 -114 -25.5 -220.5
t-73 -192t-123 -136.5t-167.5 -51q-75 0 -138.5 33.5t-109 91t-77 134.5t-47 163.5t-15.5 177.5q0 115 25.5 221.5t72.5 192.5t122 137.5t167 51.5z" />
    <glyph glyph-name="one" unicode="1" 
d="M735 1130v-1048h340q18 0 28.5 -12.5t10.5 -28.5q0 -17 -10.5 -29t-29.5 -12h-800q-22 0 -34 12.5t-12 29.5q0 16 11 28t31 12h369v987l-335 -152q-8 -4 -17 -4q-17 0 -29 14t-12 31q0 25 24 35l404 180q8 4 20 4q17 0 29 -11.5t12 -35.5z" />
    <glyph glyph-name="two" unicode="2" 
d="M612 1187q153 0 243 -68.5t90 -204.5q0 -84 -49.5 -172.5t-125 -168.5t-154.5 -157t-150 -165.5t-99 -168.5h496l12 182q1 20 17 32.5t35 12.5t31.5 -13t12.5 -38v-208q0 -23 -15 -36.5t-39 -13.5h-638q-7 28 -7 37q0 61 32 129t82.5 130t112.5 126t123.5 126.5t112 122
t82.5 121t32 115.5q0 107 -63 150.5t-189 43.5q-114 0 -207 -46q-16 -130 -23 -154q-13 -43 -43 -43q-29 0 -44.5 22t-15.5 58q0 249 348 249z" />
    <glyph glyph-name="three" unicode="3" 
d="M503 601q-38 0 -38 37q0 23 31 41q23 14 65 39t63 38t52.5 34.5t47 37.5t32.5 37.5t24 44.5t7 49q0 60 -44 101.5t-130 41.5q-62 0 -102.5 -10t-58.5 -24.5t-30 -29t-29.5 -24.5t-44.5 -10q-19 0 -30 10t-11 23q0 45 56.5 81t126 52.5t125.5 16.5q116 0 192 -61t76 -167
q0 -33 -11 -64.5t-26.5 -55.5t-42 -48.5t-46 -39.5t-50.5 -32.5t-44.5 -24.5t-37.5 -19q154 0 239.5 -86.5t85.5 -228.5q0 -164 -117 -270.5t-289 -106.5q-103 0 -192 39.5t-89 85.5q0 10 11 21.5t27 11.5q28 0 51.5 -11.5t40.5 -24.5t57 -24.5t97 -11.5q140 0 223.5 83.5
t83.5 213.5q0 113 -68.5 178t-183.5 65q-17 0 -56 -4t-43 -4z" />
    <glyph glyph-name="four" unicode="4" 
d="M707 1019l-385 -570h385v570zM420 0q-11 0 -18 10t-7 24q0 31 24 31h288v306h-462q-14 0 -26 13.5t-12 30.5q0 15 10 28l511 724q9 12 36 12q39 0 39 -54v-676h202q17 0 26 -11t9 -28q0 -16 -9.5 -27.5t-27.5 -11.5h-200v-306h158q24 0 24 -31q0 -14 -7 -24t-18 -10h-540
z" />
    <glyph glyph-name="five" unicode="5" 
d="M579 -17q-136 0 -239 71q-27 19 -27 44q0 16 12 28t28 12q13 0 24 -8q89 -65 215 -65q57 0 113 20.5t103.5 58t77 99.5t29.5 138q0 139 -68 207.5t-168 68.5q-77 0 -147.5 -39t-101.5 -101q-7 -22 -35 -22q-15 0 -26 9t-11 25l20 582q0 21 10.5 34t34 18t41.5 6.5t50 1.5
h324q14 54 23.5 71.5t27.5 17.5q45 0 45 -33q0 -60 -20.5 -99t-56.5 -39h-370q-8 0 -8 -8l-35 -439q112 93 243 93q134 0 229 -95t95 -244q0 -123 -58.5 -218.5t-156 -145t-217.5 -49.5z" />
    <glyph glyph-name="six" unicode="6" 
d="M1027 357q0 -170 -104.5 -272t-274.5 -102q-194 0 -292.5 118.5t-98.5 324.5q0 137 32 259t92 222.5t125.5 178t152.5 155.5q13 12 28 12q18 0 32 -14.5t14 -31.5q0 -13 -12 -24q-133 -111 -234 -264t-126 -328q55 74 138 112t169 38q166 0 262.5 -106t96.5 -278zM648 65
q132 0 207.5 83.5t75.5 205.5q0 61 -15 114t-45.5 96.5t-81.5 69t-118 25.5q-144 0 -231 -86.5t-87 -208.5q0 -61 17 -113.5t51 -94.5t92.5 -66.5t134.5 -24.5z" />
    <glyph glyph-name="seven" unicode="7" 
d="M569 47q0 154 23.5 298t69 277t91 235t111.5 228h-494v-169q0 -25 -14.5 -39t-34.5 -14q-19 0 -33 13.5t-14 39.5v201q0 25 15.5 39.5t40.5 14.5h598q18 0 30.5 -18.5t12.5 -41.5q0 -17 -7 -30q-74 -142 -119 -241t-91 -231t-67.5 -270.5t-21.5 -292.5q0 -25 -13.5 -39
t-32.5 -14q-20 0 -35 14.5t-15 39.5z" />
    <glyph glyph-name="eight" unicode="8" 
d="M620 1187q160 0 255 -68.5t95 -205.5q0 -43 -15 -83.5t-34.5 -69t-55.5 -61t-59 -49.5t-65 -46q-9 -6 -13 -9q128 -72 176 -111q118 -96 118 -216q0 -148 -104.5 -216.5t-275.5 -68.5q-60 0 -113.5 9t-103.5 30t-86 53.5t-57.5 83.5t-21.5 115q0 33 11 65.5t25.5 57.5
t42.5 53t47 44.5t55.5 41t52 33.5t50.5 30q-6 4 -18 11q-43 26 -66.5 41.5t-61 45.5t-57.5 56.5t-35.5 64.5t-15.5 79q0 136 93 213t237 77zM648 69q278 0 278 197q0 32 -10 61.5t-30.5 54.5t-41 44.5t-54 41t-55 33.5t-58.5 31.5t-51 27.5q-42 -24 -65.5 -38t-68.5 -45.5
t-70 -58t-45.5 -63.5t-20.5 -73q0 -50 17.5 -88.5t45.5 -61.5t67.5 -37.5t78.5 -20t83 -5.5zM628 1101q-103 0 -174.5 -48.5t-71.5 -146.5q0 -37 12 -68.5t31.5 -55.5t51 -47.5t63.5 -42.5t76 -43q17 -9 26 -14q56 32 93 57.5t72.5 59t53 71.5t17.5 82q0 196 -250 196z" />
    <glyph glyph-name="nine" unicode="9" 
d="M250 813q0 170 104.5 272t274.5 102q194 0 292.5 -118.5t98.5 -324.5q0 -110 -23 -211t-58.5 -178.5t-91 -154.5t-108.5 -132.5t-123 -119.5q-14 -12 -28 -12q-18 0 -32 14.5t-14 31.5q0 14 12 24q318 265 362 573q-55 -74 -138 -112t-169 -38q-166 0 -262.5 106
t-96.5 278zM629 1105q-132 0 -207.5 -83.5t-75.5 -205.5q0 -61 15 -114t45.5 -96.5t81.5 -69t118 -25.5q144 0 231 86.5t87 208.5q0 61 -17 113.5t-51 94.5t-92.5 66.5t-134.5 24.5z" />
    <glyph glyph-name="colon" unicode=":" 
d="M644 -16q-46 0 -75.5 29.5t-29.5 75.5t30 76t75 30t75.5 -30.5t30.5 -75.5t-30.5 -75t-75.5 -30zM644 600q-46 0 -75.5 29.5t-29.5 75.5t30 76t75 30t75.5 -30.5t30.5 -75.5t-30.5 -75t-75.5 -30z" />
    <glyph glyph-name="semicolon" unicode=";" 
d="M644 180q48 0 80 -32t32 -89q0 -154 -150 -231q-11 -6 -25 -6q-17 0 -29 11t-12 25q0 18 17 30q31 20 46 32t33 38t18 55q-46 0 -74.5 21t-28.5 62q0 40 27.5 62t65.5 22zM644 600q-46 0 -75.5 29.5t-29.5 75.5t30 76t75 30t75.5 -30.5t30.5 -75.5t-30.5 -75t-75.5 -30z
" />
    <glyph glyph-name="less" unicode="&#x3c;" 
d="M87 497q-26 11 -26 53q0 44 26 55l868 361q6 2 10 2q17 0 30.5 -17.5t13.5 -36.5q0 -24 -21 -32l-809 -328l819 -333q27 -11 27 -38q0 -19 -13 -35t-31 -16q-6 0 -14 3z" />
    <glyph glyph-name="equal" unicode="=" 
d="M900 689q21 0 33 -13.5t12 -31.5q0 -19 -12 -32.5t-33 -13.5h-559q-21 0 -33 13.5t-12 32.5q0 18 12 31.5t33 13.5h559zM900 347q21 0 33 -13.5t12 -31.5q0 -19 -12 -32.5t-33 -13.5h-559q-21 0 -33 13.5t-12 32.5q0 18 12 31.5t33 13.5h559z" />
    <glyph glyph-name="greater" unicode="&#x3e;" 
d="M1130 603q26 -11 26 -53q0 -44 -26 -55l-868 -361q-6 -2 -10 -2q-17 0 -30.5 17.5t-13.5 36.5q0 24 21 32l809 328l-819 333q-27 11 -27 38q0 19 13 35t31 16q6 0 14 -3z" />
    <glyph glyph-name="question" unicode="?" 
d="M905 906q0 -61 -24.5 -116.5t-61 -93.5t-79.5 -77.5t-79.5 -71t-61 -72t-24.5 -81.5q0 -29 -6.5 -42.5t-25.5 -13.5q-16 0 -23.5 8.5t-9 18t-1.5 28.5q0 61 25 113t62.5 90.5t76 76.5t70.5 89.5t41 111.5q3 20 3 38q0 89 -58.5 144t-158.5 55q-85 0 -149 -29
q-1 -8 -2 -27.5t-2 -30t-2.5 -28t-4 -28t-6 -24.5t-8.5 -22t-11.5 -16t-15.5 -11.5t-20 -3.5q-49 0 -49 80q0 100 75 158.5t198 58.5q148 0 240 -73.5t92 -208.5zM549 -9q-43 0 -72.5 29.5t-29.5 72.5t29.5 72t72.5 29t72 -28.5t29 -71.5t-29 -73t-72 -30z" />
    <glyph glyph-name="at" unicode="@" 
d="M795 550q0 81 -28.5 115.5t-114.5 34.5q-78 0 -115 -68t-37 -172q0 -84 34.5 -140.5t96.5 -56.5h1q47 0 79.5 20t50.5 59.5t25.5 89.5t7.5 118zM189 436q0 -92 29.5 -175.5t85 -149.5t144.5 -105t200 -39q144 0 290 73q10 5 23 5q16 0 26 -11.5t10 -26.5q0 -21 -19 -33
q-82 -51 -158 -70.5t-169 -19.5h-2q-136 0 -246 46.5t-178.5 124.5t-105 176.5t-36.5 207.5q0 121 43.5 238.5t120 211.5t194 152t254.5 58q225 0 367.5 -138.5t142.5 -375.5q0 -83 -15 -151t-47 -123t-88 -86t-132 -31q-50 0 -79.5 26.5t-44.5 83.5q-34 -57 -80.5 -86
t-96.5 -29q-85 0 -146.5 75.5t-61.5 201.5q0 144 63 227t170 83q39 0 75 -11.5t58 -23.5t46 -36t31 -33t23 -30l-29 -300q-1 -5 -1 -15q6 -58 76 -58q181 0 181 349q0 180 -116 287t-292 107q-114 0 -212 -51t-162 -133t-100 -184.5t-36 -207.5z" />
    <glyph glyph-name="A" unicode="A" 
d="M425 475h420l-199 597zM90 0q-24 0 -37 12.5t-13 30.5q0 17 13 30t36 13h85l385 999h-217q-24 0 -37 12.5t-13 30.5q0 17 13 30t36 13h303q58 0 81 -65l362 -1020h79q23 0 35.5 -12.5t12.5 -29.5q0 -18 -13.5 -31t-36.5 -13h-366q-24 0 -37.5 13t-13.5 31q0 17 13 29.5
t36 12.5h186l-107 306h-483l-112 -306h159q23 0 36.5 -13t13.5 -30q0 -18 -13.5 -30.5t-37.5 -12.5h-348z" />
    <glyph glyph-name="B" unicode="B" 
d="M1104 348q0 -91 -38.5 -159t-108 -108.5t-158.5 -60.5t-197 -20h-358q-24 0 -37.5 12.5t-13.5 30.5q0 17 13.5 30t36.5 13h160v999h-166q-23 0 -36 13t-13 31q0 17 12.5 29.5t35.5 12.5h356q415 0 415 -282q0 -88 -46.5 -148t-117.5 -81q116 -17 188.5 -94t72.5 -218z
M1008 363q0 52 -13.5 91t-41.5 64t-60 41.5t-78.5 24t-88 10.5t-97.5 3h-130v-511h106q92 0 163 14t126.5 45.5t84.5 86t29 131.5zM921 885q0 108 -82.5 154t-233.5 46h-106v-412h130q122 0 207 53t85 159z" />
    <glyph glyph-name="C" unicode="C" 
d="M1145 336q-15 -66 -50.5 -126.5t-92 -112.5t-143 -83t-190.5 -31q-235 0 -386 171t-151 453q0 258 151.5 419t384.5 161q117 0 215 -48.5t139 -123.5v106q0 23 14.5 36.5t34.5 13.5t34.5 -13.5t14.5 -37.5v-293q0 -23 -13.5 -35t-32.5 -12q-40 0 -48 47
q-23 123 -121.5 198.5t-233.5 75.5q-203 0 -323 -140t-120 -361q0 -123 36 -224.5t97 -168t140.5 -102.5t168.5 -36q142 0 240 77t139 213q10 28 40 28q21 0 39 -13.5t18 -30.5q0 -5 -1 -7z" />
    <glyph glyph-name="D" unicode="D" 
d="M988 591q0 238 -117.5 366t-336.5 128h-124v-999h110q244 0 356 124.5t112 380.5zM1084 591q0 -308 -145.5 -449.5t-425.5 -141.5h-361q-24 0 -37.5 12.5t-13.5 30.5q0 17 13.5 30t36.5 13h163v999h-159q-23 0 -35.5 12.5t-12.5 29.5q0 18 13.5 31t36.5 13h358
q267 0 418 -144t151 -436z" />
    <glyph glyph-name="E" unicode="E" 
d="M837 437q0 -25 -11 -38t-27 -13q-15 0 -27 11.5t-13 31.5l-13 148h-326v-492h615l16 251q1 17 14 28t30 11t29.5 -13.5t12.5 -38.5v-270q0 -25 -15.5 -39t-40.5 -14h-926q-24 0 -37.5 13t-13.5 30t13.5 29.5t36.5 12.5h170v1000h-135q-23 0 -35.5 12.5t-12.5 29.5
q0 18 13.5 31t36.5 13h878q25 0 40.5 -14.5t15.5 -39.5v-270q0 -21 -12 -32.5t-28 -11.5t-28.5 10t-13.5 28l-14 244h-609v-431h326l13 133q2 21 13.5 33t26.5 12q16 0 27 -13.5t11 -39.5v-342z" />
    <glyph glyph-name="F" unicode="F" 
d="M848 437q0 -25 -11 -38t-27 -13q-15 0 -27 11.5t-13 31.5l-13 148h-337v-492h350q22 0 34 -12.5t12 -29.5q0 -18 -12 -30.5t-33 -12.5h-616q-24 0 -37.5 13t-13.5 30t13.5 29.5t36.5 12.5h170v1000h-135q-23 0 -35.5 12.5t-12.5 29.5q0 18 13.5 31t36.5 13h891
q25 0 40.5 -14.5t15.5 -39.5v-270q0 -21 -12 -32.5t-28 -11.5t-28.5 10t-13.5 28l-14 244h-622v-431h337l13 133q2 21 13.5 33t26.5 12q16 0 27 -13.5t11 -39.5v-342z" />
    <glyph glyph-name="G" unicode="G" 
d="M1083 510v-461q0 -27 -14 -42t-33 -15q-20 0 -34.5 15.5t-14.5 43.5v124q-38 -85 -143 -138.5t-238 -53.5q-233 0 -375 169.5t-142 454.5q0 260 142.5 420t373.5 160q117 0 215 -48.5t139 -123.5v106q0 23 14.5 36.5t34.5 13.5t34.5 -13.5t14.5 -37.5v-293
q0 -23 -13.5 -35t-32.5 -12q-40 0 -48 47q-23 123 -121.5 198.5t-233.5 75.5q-201 0 -312 -138.5t-111 -362.5q0 -246 120 -388.5t302 -142.5q149 0 245.5 72t134.5 191v178h-124q-23 0 -36.5 13t-13.5 31q0 17 13 29.5t36 12.5h284q23 0 36 -12.5t13 -29.5q0 -18 -13.5 -31
t-37.5 -13h-61z" />
    <glyph glyph-name="H" unicode="H" 
d="M143 0q-23 0 -36.5 13t-13.5 31q0 17 12.5 29.5t35.5 12.5h124v999h-108q-24 0 -37 12.5t-13 30.5q0 17 13.5 30t36.5 13h302q23 0 36.5 -13t13.5 -31q0 -17 -12.5 -29.5t-35.5 -12.5h-100v-447h540v447h-100q-23 0 -35.5 12.5t-12.5 29.5q0 18 13.5 31t36.5 13h294
q23 0 36.5 -12.5t13.5 -28.5q0 -18 -13.5 -31.5t-36.5 -13.5h-100v-999h100q24 0 37 -12.5t13 -30.5q0 -17 -13.5 -30t-36.5 -13h-294q-23 0 -36.5 13t-13.5 31q0 17 12.5 29.5t35.5 12.5h100v472h-540v-472h100q23 0 35.5 -12t12.5 -28q0 -19 -13.5 -32.5t-36.5 -13.5h-316
z" />
    <glyph glyph-name="I" unicode="I" 
d="M310 0q-24 0 -37.5 12.5t-13.5 30.5q0 17 13.5 30t36.5 13h305v999h-305q-23 0 -36.5 12.5t-13.5 29.5q0 18 13.5 31t37.5 13h685q23 0 36.5 -13t13.5 -31q0 -17 -13 -29.5t-36 -12.5h-286v-999h286q23 0 36 -13t13 -30q0 -18 -13 -30.5t-37 -12.5h-685z" />
    <glyph glyph-name="J" unicode="J" 
d="M855 317q0 -68 -23.5 -123.5t-63 -93.5t-92 -64t-109 -37.5t-116.5 -11.5q-128 0 -220.5 50.5t-92.5 133.5v112q0 21 15 33t34 12t33 -12t14 -33v-101q0 -50 67.5 -82t158.5 -32q56 0 107 13.5t95 41.5t70.5 77.5t26.5 113.5v771h-350q-23 0 -35.5 12.5t-12.5 29.5
q0 18 13 31t36 13h615q24 0 37 -12.5t13 -30.5q0 -17 -13 -30t-36 -13h-171v-768z" />
    <glyph glyph-name="K" unicode="K" 
d="M84 0q-24 0 -37.5 12.5t-13.5 30.5q0 17 13.5 30t36.5 13h159v998h-159q-24 0 -37 12.5t-13 30.5t13.5 31t37.5 13h445q23 0 36.5 -13.5t13.5 -31.5q0 -17 -12.5 -29.5t-35.5 -12.5h-193v-526l576 520q7 7 7 10q0 6 -19 6h-89q-23 0 -36 11t-13 26q0 16 13.5 28t36.5 12
h362q23 0 36 -13t13 -31t-12.5 -30.5t-35.5 -12.5h-138l-438 -408l521 -590h137q23 0 35.5 -13t12.5 -30q0 -18 -13 -30.5t-36 -12.5h-418q-24 0 -37 12.5t-13 30.5q0 17 13 30t36 13h166l-478 535l-185 -156v-379h244q23 0 36 -13t13 -30q0 -18 -13 -30.5t-37 -12.5h-501z
" />
    <glyph glyph-name="L" unicode="L" 
d="M640 1171q24 0 37.5 -13t13.5 -31q0 -17 -13.5 -29.5t-36.5 -12.5h-152v-999h457q13 1 20 3.5t13.5 10.5t7.5 23l34 276q3 21 17 32t33 11q21 0 36 -13t15 -36v-6l-30 -321q-4 -29 -22.5 -47.5t-49.5 -18.5h-895q-24 0 -37.5 12.5t-13.5 30.5q0 17 13.5 30t36.5 13h269
v999h-227q-23 0 -36 12.5t-13 29.5q0 18 13.5 31t36.5 13h473z" />
    <glyph glyph-name="M" unicode="M" 
d="M817 0q-24 0 -37.5 13t-13.5 31q0 17 13 29.5t36 12.5h133v896l-257 -592q-21 -48 -66 -48q-41 0 -60 43l-267 593v-892h120q24 0 37 -12.5t13 -29.5q0 -18 -13.5 -31t-37.5 -13h-347q-24 0 -37 12.5t-13 30.5q0 17 13 30t36 13h133v999h-119q-23 0 -36 12.5t-13 29.5
q0 18 13.5 31t36.5 13h198q30 0 46 -35l301 -663l290 668q12 30 45 30h192q24 0 37.5 -13t13.5 -31q0 -17 -13.5 -29.5t-36.5 -12.5h-113v-999h128q23 0 35.5 -12.5t12.5 -29.5q0 -18 -13.5 -31t-36.5 -13h-353z" />
    <glyph glyph-name="N" unicode="N" 
d="M129 1085q-23 0 -36 12.5t-13 29.5q0 18 13.5 31t36.5 13h287q28 0 40 -24l486 -953v891h-149q-23 0 -36 12.5t-13 29.5q0 18 13.5 31t37.5 13h337q23 0 36.5 -13t13.5 -31q0 -17 -12.5 -29.5t-35.5 -12.5h-96v-1038q0 -31 -14 -47t-35 -16q-36 0 -56 38l-553 1062v-998
h138q23 0 36 -13t13 -30q0 -18 -13 -30.5t-37 -12.5h-358q-24 0 -37 12.5t-13 30.5q0 17 13 30t36 13h126v999h-156z" />
    <glyph glyph-name="O" unicode="O" 
d="M620 1101q-80 0 -149 -29t-117 -79t-82.5 -116t-51 -141t-16.5 -154q0 -98 26.5 -188.5t76 -163.5t131 -117t182.5 -44t182.5 44t131 117t76 163.5t26.5 188.5q0 79 -16.5 154t-51 141t-82.5 116t-117 79t-149 29zM620 -17q-123 0 -223 51t-161.5 136t-94.5 191t-33 221
t33 222t94.5 193t161.5 138t223 52t223 -52t161.5 -138t94.5 -193t33 -222t-33 -221t-94.5 -191t-161.5 -136t-223 -51z" />
    <glyph glyph-name="P" unicode="P" 
d="M972 843q0 58 -16 101.5t-52 69t-69 41t-91.5 21.5t-93 7.5t-98.5 1.5h-110v-478h152q50 0 82.5 1t76.5 6t72 14.5t58.5 26.5t48 42t29 62t11.5 84zM1068 847q0 -50 -9.5 -91.5t-25 -72.5t-41.5 -55.5t-52 -40.5t-64.5 -27.5t-71 -18t-79 -9.5t-81.5 -4t-86 -1h-116v-441
h329q23 0 36 -13t13 -30q0 -18 -13 -30.5t-37 -12.5h-596q-24 0 -37.5 12.5t-13.5 30.5q0 17 13.5 30t36.5 13h173v999h-159q-23 0 -36 12.5t-13 29.5q0 18 13.5 31t36.5 13h344q68 0 115.5 -1.5t108 -9t101.5 -20.5t84 -37t68.5 -57.5t42 -84t16.5 -114.5z" />
    <glyph glyph-name="Q" unicode="Q" 
d="M620 1101q-80 0 -149 -29t-117 -79t-82.5 -116t-51 -141t-16.5 -154q0 -98 26.5 -188.5t76 -163.5t131 -117t182.5 -44t182.5 44t131 117t76 163.5t26.5 188.5q0 79 -16.5 154t-51 141t-82.5 116t-117 79t-149 29zM636 -17l-19 20l-113 -5l1 -1q1 -1 1 -2
q-128 28 -220 118.5t-135 211t-43 257.5q0 115 33 222t94.5 193t161.5 138t223 52t223 -52t161.5 -138t94.5 -193t33 -222q0 -90 -19.5 -175t-60 -161t-98.5 -133.5t-140 -92t-178 -37.5zM636 -17l86 -91q49 -54 114 -54q72 0 172 67q13 9 29 9t28 -13.5t12 -30.5
q0 -25 -23 -39q-36 -34 -98 -55.5t-102 -21.5q-56 0 -96.5 11t-79.5 42t-70.5 66t-86.5 103q-10 13 -15 19q52 -12 114 -12h16z" />
    <glyph glyph-name="R" unicode="R" 
d="M429 619h107q82 0 139.5 4.5t113 18.5t89 38.5t53.5 66t20 99.5q0 61 -15 103t-42.5 69t-77.5 41.5t-110 20t-150 5.5h-127v-466zM658 41q0 -16 -13 -28.5t-37 -12.5h-399q-24 0 -37.5 12.5t-13.5 28.5q0 17 13 29t37 12h125v1003h-97q-23 0 -36.5 12.5t-13.5 29.5
q0 18 13.5 31t37.5 13h320q78 0 137.5 -5t118 -17t99 -35.5t72.5 -57.5t47.5 -85t15.5 -118q0 -107 -58.5 -174.5t-147.5 -100.5l204 -496h84q64 0 64 -40q0 -18 -15 -30t-48 -12h-235q-24 0 -37.5 12.5t-13.5 29.5q0 16 13 28t36 12h51l-180 474q-11 -4 -68 -9t-92 -5h-175
v-460h180q23 0 36 -12t13 -29z" />
    <glyph glyph-name="S" unicode="S" 
d="M650 1101q-128 0 -200 -57.5t-72 -157.5q0 -29 5.5 -52.5t12 -40.5t26 -33.5t31.5 -25.5t45.5 -23t51.5 -20.5t65 -22.5l136 -47q78 -27 130.5 -53.5t94.5 -63.5t61.5 -85t19.5 -111q0 -86 -30 -150.5t-82.5 -101.5t-116.5 -55t-139 -18q-85 0 -179 33t-147 89
q0 -122 -47 -122q-26 0 -37 16t-11 58v314q0 23 12.5 35t31.5 12t32.5 -13t13.5 -36v-119q0 -65 105.5 -123t228.5 -58q119 0 194 57t75 178q0 47 -14.5 82t-46.5 61t-70.5 44t-98.5 39l-164 56q-55 19 -91 34t-76.5 40t-63.5 53.5t-38.5 71t-15.5 96.5q0 144 98.5 225
t246.5 81q206 0 290 -92q0 92 52 92q21 0 30.5 -16t9.5 -54v-253q0 -26 -13 -39.5t-33 -13.5q-18 0 -31.5 12.5t-13.5 34.5v91q-6 49 -49 85t-100 51.5t-119 15.5z" />
    <glyph glyph-name="T" unicode="T" 
d="M210 814q-1 -22 -13 -33.5t-28 -11.5q-19 0 -34 14.5t-15 39.5v294q0 54 42 54h916q40 0 40 -54v-294q0 -25 -13.5 -38.5t-32.5 -13.5q-17 0 -30 11.5t-14 31.5l-10 271h-352v-999h242q23 0 36 -12.5t13 -29.5q0 -18 -13.5 -31t-37.5 -13h-576q-24 0 -38 13t-14 31
q0 17 13.5 29.5t36.5 12.5h242v999h-348z" />
    <glyph glyph-name="U" unicode="U" 
d="M654 -17q-182 0 -293.5 115t-111.5 315v672h-145q-23 0 -36 12.5t-13 29.5q0 18 13.5 31t36.5 13h401q23 0 36.5 -13t13.5 -31q0 -17 -13 -29.5t-36 -12.5h-162v-672q0 -164 80 -254t229 -90q138 0 222 95.5t84 246.5v674h-121q-23 0 -36.5 12.5t-13.5 29.5q0 18 13.5 31
t37.5 13h333q33 0 51.5 -13t18.5 -31q0 -17 -18 -29.5t-51 -12.5h-118v-674q0 -191 -111.5 -309.5t-290.5 -118.5z" />
    <glyph glyph-name="V" unicode="V" 
d="M1131 1171q24 0 37 -12.5t13 -30.5q0 -17 -13 -30t-36 -13h-86l-316 -1065q-14 -31 -26.5 -43.5t-37.5 -12.5q-45 0 -64 56l-342 1065h-104q-23 0 -35.5 12.5t-12.5 29.5q0 18 13.5 31t36.5 13h340q24 0 37 -12.5t13 -30.5q0 -17 -13 -30t-36 -13h-131l303 -966l275 966
h-120q-23 0 -36.5 13t-13.5 30q0 18 13.5 30.5t37.5 12.5h304z" />
    <glyph glyph-name="W" unicode="W" 
d="M873 1085q-23 0 -36.5 13t-13.5 31q0 17 13 29.5t36 12.5h279q23 0 36.5 -12.5t13.5 -29.5q0 -18 -13.5 -31t-37.5 -13h-70l-164 -1058q-7 -44 -52 -44q-17 0 -32 14t-21 38l-170 666l-187 -674q-12 -44 -51 -44q-19 0 -34 14t-18 38l-166 1050h-84q-23 0 -36.5 13
t-13.5 31q0 17 13 29.5t36 12.5h302q23 0 36 -12.5t13 -29.5q0 -18 -13.5 -31t-37.5 -13h-114l138 -886l177 651q9 36 45 36q34 0 43 -36l169 -654l122 889h-107z" />
    <glyph glyph-name="X" unicode="X" 
d="M1094 1171q40 0 40 -44q0 -42 -39 -42h-73l-336 -496l341 -507h73q39 0 39 -40q0 -42 -41 -42h-332q-24 0 -37 12t-13 29q0 16 13 28.5t36 12.5h156l-289 428l-290 -428h149q39 0 39 -41t-40 -41h-348q-40 0 -40 41t39 41h85l348 514l-329 489h-82q-39 0 -39 42
q0 44 40 44h336q40 0 40 -44q0 -42 -39 -42h-148l275 -409l277 409h-101q-39 0 -39 42q0 44 40 44h289z" />
    <glyph glyph-name="Y" unicode="Y" 
d="M1065 1171q24 0 37.5 -11.5t13.5 -27.5q0 -15 -13 -26t-36 -11h-55l-323 -547v-462h232q23 0 35.5 -12.5t12.5 -29.5q0 -18 -13.5 -31t-36.5 -13h-585q-24 0 -38 13t-14 31q0 17 13.5 29.5t36.5 12.5h261v467l-335 542h-84q-23 0 -36.5 11.5t-13.5 26.5t14 26.5t37 11.5
h330q24 0 37.5 -11.5t13.5 -26.5t-13.5 -26.5t-36.5 -11.5h-136l276 -462l268 462h-111q-23 0 -36.5 11.5t-13.5 26.5t13.5 26.5t37.5 11.5h261z" />
    <glyph glyph-name="Z" unicode="Z" 
d="M254 806v310q2 55 68 55h630q23 0 36 -16.5t13 -38.5q0 -19 -10 -35l-622 -995h573v298q1 23 16.5 37t34.5 14q17 0 29 -12.5t12 -37.5l10 -332q1 -25 -13.5 -39t-37.5 -14h-722q-52 0 -52 31q0 15 28 64l633 990h-514l-16 -288q-1 -19 -14 -29.5t-31 -10.5
q-20 0 -35.5 13t-15.5 36z" />
    <glyph glyph-name="bracketleft" unicode="[" 
d="M802 1331q13 0 20.5 -12.5t7.5 -29.5t-7.5 -29.5t-20.5 -12.5h-191v-1311h191q13 0 20.5 -12.5t7.5 -29.5t-7.5 -29.5t-20.5 -12.5h-232q-26 0 -40.5 15.5t-14.5 42.5v1360q0 61 55 61h232z" />
    <glyph glyph-name="backslash" unicode="\" 
d="M991 -178q4 -8 4 -17q0 -17 -14 -29.5t-32 -12.5q-25 0 -38 24l-664 1326q-5 10 -5 21q0 17 14 28t32 11q26 0 36 -21z" />
    <glyph glyph-name="bracketright" unicode="]" 
d="M452 -148q-13 0 -20.5 12.5t-7.5 29.5t7.5 29.5t20.5 12.5h191v1311h-191q-13 0 -20.5 12.5t-7.5 29.5t7.5 29.5t20.5 12.5h232q26 0 40.5 -15.5t14.5 -42.5v-1360q0 -61 -55 -61h-232z" />
    <glyph glyph-name="asciicircum" unicode="^" 
d="M924 436q0 -18 -14.5 -31.5t-33.5 -13.5q-30 0 -45 31l-204 437l-222 -433q-17 -35 -49 -35q-17 0 -28.5 12.5t-11.5 32.5q0 22 10 41l240 487q26 54 59 54q32 0 55 -49l238 -509q6 -16 6 -24z" />
    <glyph glyph-name="underscore" unicode="_" 
d="M1000 91q21 0 33 -13.5t12 -31.5q0 -19 -12 -32.5t-33 -13.5h-759q-21 0 -33 13.5t-12 32.5q0 18 12 31.5t33 13.5h759z" />
    <glyph glyph-name="grave" unicode="`" 
d="M410 1010q0 -13 -10 -24t-23 -11q-8 0 -12 4q-58 34 -340 210q-19 13 -19 31q0 21 18 39t40 18q17 0 28 -10q158 -136 308 -236q10 -6 10 -21z" />
    <glyph glyph-name="a" unicode="a" 
d="M611 731q-121 0 -221 -45q-4 -77 -18 -116t-48 -39q-29 0 -44.5 20t-15.5 52q0 92 97 151t251 59q87 0 146 -24.5t92 -74.5t46.5 -114.5t13.5 -155.5v-312q0 -35 14 -47.5t38 -12.5q26 0 55 15.5t46 33.5q11 12 24 12q15 0 26 -13t11 -29q0 -15 -10 -25q-70 -73 -160 -73
q-51 0 -86 24.5t-47 95.5q-49 -55 -137.5 -92t-192.5 -37q-112 0 -175 61.5t-63 164.5q0 36 9.5 66.5t23.5 53.5t40 41.5t49 31t62.5 23t67.5 16t76 10.5t78 7.5t82 5.5q49 3 73 5v20q0 117 -45.5 179t-157.5 62zM814 401q-233 -23 -298 -37q-127 -28 -155 -96
q-11 -25 -11 -58q0 -76 41.5 -110.5t110.5 -34.5q89 0 173.5 33.5t138.5 90.5v212z" />
    <glyph glyph-name="b" unicode="b" 
d="M952 398q0 141 -75.5 237t-212.5 96q-175 0 -278 -129v-392q101 -145 286 -145q133 0 206.5 95.5t73.5 237.5zM386 1141v-434q60 52 126.5 79t157.5 27q172 0 275 -116.5t103 -298.5q0 -185 -100.5 -300t-273.5 -115q-90 0 -165 33t-127 86q0 -48 -8.5 -72.5t-17.5 -29
t-25 -4.5q-41 0 -41 78v1017l-128 -8q-1 0 -8.5 -1.5t-11.5 -1.5q-17 0 -28 11t-11 27q0 34 33 41l189 19q16 2 20 2q41 0 41 -39z" />
    <glyph glyph-name="c" unicode="c" 
d="M635 813q158 0 251 -60t93 -189q0 -36 -15.5 -58t-44.5 -22t-40 35.5t-21 125.5q-3 27 -5 41q-91 45 -203 45q-175 0 -273 -86t-98 -238q0 -169 93.5 -255.5t251.5 -86.5q92 0 154 25t124 82q17 16 41 16q35 0 35 -41q0 -23 -18 -42q-52 -57 -147.5 -89.5t-180.5 -32.5
q-203 0 -326 113.5t-123 310.5q0 186 129.5 296t322.5 110z" />
    <glyph glyph-name="d" unicode="d" 
d="M289 398q0 -142 75 -237.5t209 -95.5q181 0 282 145v392q-103 129 -278 129q-137 0 -212.5 -96t-75.5 -237zM867 47l-3 60q-46 -55 -123.5 -89.5t-169.5 -34.5q-174 0 -276 115.5t-102 299.5q0 182 103 298.5t275 116.5q91 0 157.5 -27t126.5 -79v384l-128 -8
q-1 0 -8.5 -1.5t-11.5 -1.5q-17 0 -28 11t-11 27q0 34 33 41l189 19q16 2 20 2q41 0 41 -39v-1056l148 11h6q20 0 30 -10t10 -25t-10 -27.5t-28 -16.5l-186 -20h-7q-44 0 -47 50z" />
    <glyph glyph-name="e" unicode="e" 
d="M654 813q160 0 260 -87.5t100 -246.5q0 -38 -21 -62.5t-56 -24.5l-629 -5q5 -158 100 -240t249 -82q162 0 277 109q21 17 41 17q18 0 29 -13t11 -31q0 -23 -18 -42q-52 -56 -149.5 -89t-182.5 -33q-203 0 -328 113.5t-125 310.5q0 94 35 171.5t95.5 128t140.5 78.5
t171 28zM311 461l618 4q-2 36 -7.5 66t-23 69.5t-45.5 66t-78.5 45.5t-118.5 19q-146 0 -236.5 -71t-108.5 -199z" />
    <glyph glyph-name="f" unicode="f" 
d="M1036 1020q0 -27 -14.5 -41.5t-34.5 -14.5q-19 0 -33 13.5t-14 38.5v93q-172 -12 -235.5 -73.5t-63.5 -203.5v-66h309q19 0 29.5 -12.5t10.5 -28.5q0 -17 -11 -29t-30 -12h-309l1 -602h362q18 0 28.5 -12.5t10.5 -28.5q0 -17 -10.5 -29t-29.5 -12h-675q-22 0 -34 12.5
t-12 29.5q0 16 11 28t31 12h221v602h-192q-22 0 -34 12.5t-12 29.5q0 16 11 28t31 12h196v72q0 177 112.5 263.5t322.5 86.5q24 0 40.5 -14t16.5 -37v-117z" />
    <glyph glyph-name="g" unicode="g" 
d="M548 109h93q91 0 151 -8.5t108.5 -32t71 -68.5t22.5 -114q0 -78 -61 -133t-151 -79t-197 -24q-50 0 -92.5 5.5t-83 20t-69 37t-45.5 58.5t-17 82q0 72 33 125.5t86 79.5q-94 45 -94 127q0 53 49 96.5t96 49.5q-86 35 -129 83.5t-43 130.5q0 131 92.5 199.5t230.5 68.5
q144 0 239 -79l152 101q62 42 121 42q58 0 58 -51t-133 -51l-169 -74q57 -71 57 -161q0 -131 -83.5 -192t-252.5 -61q-78 0 -133.5 -28.5t-55.5 -68.5q0 -39 29.5 -60t119.5 -21zM460 37q-29 -11 -57.5 -63.5t-28.5 -95.5q0 -83 50.5 -114.5t158.5 -31.5q57 0 109.5 7.5
t100.5 24t76.5 47t28.5 71.5q0 91 -54 123t-200 32h-184zM828 534q0 102 -65 149.5t-166 47.5q-99 0 -162 -47t-63 -142q0 -88 61.5 -134.5t157.5 -46.5q237 0 237 173z" />
    <glyph glyph-name="h" unicode="h" 
d="M716 731q-136 0 -228 -74.5t-92 -159.5v-415h105q23 0 35.5 -12t12.5 -28q0 -17 -13.5 -29.5t-36.5 -12.5h-303q-22 0 -34 13t-12 30q0 16 11 27.5t31 11.5h108v1009l-148 -9q-17 -1 -28 9.5t-11 26.5q0 14 8.5 27t24.5 14l189 19q16 2 20 2q41 0 41 -39v-502
q38 75 125.5 124.5t189.5 49.5q141 0 211 -73t70 -207v-451h109q19 0 29.5 -12t10.5 -28q0 -17 -11 -29.5t-31 -12.5h-345q-22 0 -34 13t-12 30q0 16 11 27.5t31 11.5h146v458q0 91 -45.5 141t-134.5 50z" />
    <glyph glyph-name="i" unicode="i" 
d="M692 1171q34 0 58 -24t24 -59q0 -34 -24 -58t-58 -24q-35 0 -59 24t-24 58t24.5 58.5t58.5 24.5zM295 0q-22 0 -34 13t-12 30q0 16 11 27.5t31 11.5h372v637l-333 -45q-2 0 -4 -0.5t-3 -0.5q-19 0 -30 12.5t-11 29.5q0 36 32 40l398 55q3 1 11 1q16 0 26 -8.5t10 -23.5
v-697h333q19 0 29.5 -12.5t10.5 -28.5q0 -17 -11 -29t-30 -12h-796z" />
    <glyph glyph-name="j" unicode="j" 
d="M367 -310q-23 0 -37 13t-14 31t15.5 31.5t42.5 13.5q69 0 140.5 13t137 38.5t106.5 69.5t41 99v732h-456q-21 0 -32.5 13t-11.5 30q0 16 10.5 27.5t29.5 11.5h520q36 0 36 -29v-795q0 -89 -82 -159.5t-201 -105t-245 -34.5zM802 1171q34 0 58 -24t24 -59q0 -34 -24 -58
t-58 -24q-35 0 -59 24t-24 58t24.5 58.5t58.5 24.5z" />
    <glyph glyph-name="k" unicode="k" 
d="M464 399l383 293h-103q-20 0 -31 12t-11 29t12 29.5t34 12.5h317q20 0 30.5 -13t10.5 -33q0 -14 -12 -25.5t-28 -11.5h-89l-317 -246l341 -364h87q19 0 29.5 -12.5t10.5 -28.5q0 -17 -10.5 -29t-29.5 -12h-313q-20 0 -31 12.5t-11 28.5q0 17 12 29t34 12h110l-299 318
l-126 -92v-226h71q18 0 28.5 -12.5t10.5 -28.5q0 -17 -10.5 -29t-29.5 -12h-334q-21 0 -33.5 12.5t-12.5 29.5q0 16 11 28t31 12h172v1000l-170 -24q-3 -1 -7 -1q-19 0 -30 12.5t-11 29.5q0 36 32 40l234 42q1 0 5 0.5t7 0.5q16 0 26 -8.5t10 -23.5v-751z" />
    <glyph glyph-name="l" unicode="l" 
d="M719 1150v-1068h340q18 0 28.5 -12.5t10.5 -28.5q0 -17 -10.5 -29t-29.5 -12h-800q-22 0 -34 12.5t-12 29.5q0 16 11 28t31 12h369v1008l-353 -28q-2 0 -4 -0.5t-3 -0.5q-19 0 -30 12.5t-11 29.5q0 36 32 40l418 38q1 0 4.5 0.5t6.5 0.5q16 0 26 -8.5t10 -23.5z" />
    <glyph glyph-name="m" unicode="m" 
d="M591 540q0 98 -28.5 144.5t-76.5 46.5q-65 0 -120 -70t-59 -158v-421h85q23 0 35.5 -12t12.5 -28q0 -17 -13.5 -29.5t-36.5 -12.5h-283q-22 0 -34 13t-12 30q0 16 11 27.5t31 11.5h108v627l-108 -22q-10 -3 -20 -3q-17 0 -28 11t-11 27q0 33 33 41l164 33q14 2 18 2
q37 0 39 -39l5 -120q29 83 79 128.5t114 45.5q59 0 106 -40t69 -119q35 77 89.5 118t117.5 41q83 0 136 -71.5t53 -208.5v-451h109q19 0 29.5 -12t10.5 -28q0 -17 -11 -29.5t-31 -12.5h-157q-22 0 -34 13t-12 30v497q0 191 -99 191q-67 0 -125.5 -68.5t-59.5 -153.5v-427
h118q19 0 29.5 -12t10.5 -28q0 -17 -11 -29.5t-31 -12.5h-166q-22 0 -34 13t-12 30v497z" />
    <glyph glyph-name="n" unicode="n" 
d="M714 731q-136 0 -228 -73t-92 -155v-421h105q23 0 35.5 -12t12.5 -28q0 -17 -13.5 -29.5t-36.5 -12.5h-303q-22 0 -34 13t-12 30q0 16 11 27.5t31 11.5h108v627l-108 -22q-11 -3 -20 -3q-17 0 -28 11t-11 27q0 33 33 41l164 33q14 2 18 2q37 0 39 -39l5 -120
q38 75 127 124.5t192 49.5q141 0 211 -73t70 -207v-451h109q19 0 29.5 -12t10.5 -28q0 -17 -11 -29.5t-31 -12.5h-345q-22 0 -34 13t-12 30q0 16 11 27.5t31 11.5h146v458q0 91 -45.5 141t-134.5 50z" />
    <glyph glyph-name="o" unicode="o" 
d="M620 65q148 0 232 92t84 241t-84 241t-232 92t-232 -92t-84 -241t84 -241t232 -92zM620 813q191 0 307.5 -112t116.5 -303q0 -189 -116.5 -302t-307.5 -113t-307.5 113t-116.5 302q0 191 116.5 303t307.5 112z" />
    <glyph glyph-name="p" unicode="p" 
d="M971 398q0 142 -73.5 237.5t-206.5 95.5q-185 0 -286 -145v-392q103 -129 278 -129q137 0 212.5 96t75.5 237zM399 690q53 54 129 88.5t165 34.5q173 0 273.5 -115t100.5 -300q0 -182 -103 -298.5t-275 -116.5q-91 0 -157.5 27t-126.5 79v-377h216q20 0 31 -11.5
t11 -27.5q0 -17 -12 -30t-34 -13h-396q-20 0 -31 12.5t-11 29.5q0 16 10.5 28t29.5 12h90v996l-108 -21q-1 0 -8.5 -1.5t-11.5 -1.5q-17 0 -28 11t-11 27q0 33 33 41l164 33q14 2 18 2q37 0 39 -39z" />
    <glyph glyph-name="q" unicode="q" 
d="M296 398q0 -141 75.5 -237t212.5 -96q175 0 278 129v392q-101 145 -286 145q-133 0 -206.5 -95.5t-73.5 -237.5zM958 -288h90q19 0 29.5 -12t10.5 -28q0 -17 -11 -29.5t-31 -12.5h-396q-22 0 -34 13t-12 30q0 16 11 27.5t31 11.5h216v377q-60 -52 -126.5 -79t-157.5 -27
q-172 0 -275 116.5t-103 298.5q0 185 100.5 300t273.5 115q90 0 165 -33t127 -86q0 48 8.5 72.5t17.5 29t25 4.5q19 0 30 -15t11 -61v-1012z" />
    <glyph glyph-name="r" unicode="r" 
d="M920 731q-134 0 -237 -52.5t-143 -152.5v-444h336q19 0 29.5 -12t10.5 -29q0 -16 -11 -28.5t-30 -12.5h-610q-22 0 -34 12.5t-12 29.5q0 16 11 28t31 12h183v627l-122 -25q-4 -1 -12 -1q-19 0 -29.5 12t-10.5 28q0 32 30 38l171 34q14 3 23 3q22 0 29.5 -14t8.5 -42
l4 -104q114 175 392 175q88 0 88 -60v-138q0 -27 -14.5 -41.5t-34.5 -14.5q-19 0 -33 13.5t-14 38.5v120z" />
    <glyph glyph-name="s" unicode="s" 
d="M609 813q87 0 168 -26.5t111 -65.5v37q-1 23 12 36.5t30 13.5t29 -13t12 -36l-2 -201q-5 -37 -40 -37q-25 0 -32 19t-8 66q-53 125 -287 125q-212 0 -212 -130q0 -46 28 -74.5t99 -44.5l259 -52q97 -19 149.5 -69t52.5 -153q0 -112 -88.5 -168.5t-237.5 -56.5
q-206 0 -310 119v-60q0 -21 -10.5 -31.5t-25.5 -10.5q-16 0 -28 11t-12 28l2 226q0 26 11 39t25 13q17 0 26.5 -10t9.5 -42q0 -85 88.5 -142.5t217.5 -57.5q235 0 235 144q0 51 -27 82.5t-91 43.5l-266 52q-210 40 -210 199q0 64 27.5 110.5t75.5 70.5t102 35t117 11z" />
    <glyph glyph-name="t" unicode="t" 
d="M505 204q0 -72 47.5 -105.5t124.5 -33.5q70 0 145.5 24.5t123.5 60.5q4 4 11 4q14 0 28 -17t14 -34q0 -8 -5 -15q-33 -39 -130 -72t-197 -33q-104 0 -181 55.5t-77 130.5v523h-143q-22 0 -34 13t-12 30q0 16 11 27.5t31 11.5h147q0 177 9.5 230.5t50.5 53.5
q22 0 29 -11.5t7 -33.5v-239h372q18 0 28.5 -12.5t10.5 -28.5q0 -17 -10.5 -29t-29.5 -12h-371v-488z" />
    <glyph glyph-name="u" unicode="u" 
d="M562 65q90 0 180.5 48.5t123.5 117.5v475l-97 -20q-9 -3 -18 -3q-21 0 -34 13t-13 30q0 32 38 39l174 35q8 2 12 2q15 0 24.5 -10t9.5 -24v-683l148 11h6q20 0 30 -10t10 -25t-10 -27.5t-28 -16.5l-186 -20h-7q-44 0 -47 50l-5 87q-44 -65 -131 -108t-181 -43
q-136 0 -213.5 76.5t-77.5 202.5v444l-98 -20q-6 -2 -17 -2q-20 0 -33 13t-13 30q0 31 36 38l175 35q8 2 12 2q15 0 24.5 -10t9.5 -24v-509q0 -87 49.5 -140.5t146.5 -53.5z" />
    <glyph glyph-name="v" unicode="v" 
d="M491 774q39 0 39 -42q0 -40 -38 -40h-109l267 -600l244 600h-85q-39 0 -39 40q0 42 40 42h261q46 0 46 -41t-42 -41h-89l-267 -638q-18 -43 -33.5 -55.5t-38.5 -12.5q-24 0 -41.5 13.5t-38.5 59.5l-294 633h-101q-42 0 -42 41t46 41h315z" />
    <glyph glyph-name="w" unicode="w" 
d="M765 774q39 0 39 -42q0 -40 -38 -40h-109l212 -600l169 600h-65q-39 0 -39 40q0 42 40 42h221q46 0 46 -41t-42 -41h-69l-192 -638q-13 -42 -30 -55t-42 -13q-16 0 -27.5 4t-26 21t-26.5 48l-135 374l-144 -379q-16 -43 -32 -55.5t-40 -12.5q-17 0 -28.5 3.5t-26 20.5
t-25.5 49l-209 633h-78q-42 0 -42 41t46 41h235q39 0 39 -42q0 -40 -38 -40h-52l182 -600l169 463l-49 137h-51q-42 0 -42 41t46 41h254z" />
    <glyph glyph-name="x" unicode="x" 
d="M778 0q-27 0 -41.5 12.5t-14.5 29.5q0 16 13.5 28t37.5 12h80l-225 258l-221 -258h59q38 0 38 -40q0 -42 -40 -42h-247q-46 0 -46 42q0 40 42 40h84l273 324l-250 286h-88q-46 0 -46 42q0 40 42 40h237q38 0 38 -40q0 -42 -40 -42h-40l200 -223l188 223h-45q-46 0 -46 42
q0 40 42 40h267q39 0 39 -40q0 -42 -41 -42h-98l-247 -289l288 -321h71q23 0 36 -12t13 -28q0 -17 -13.5 -29.5t-37.5 -12.5h-261z" />
    <glyph glyph-name="y" unicode="y" 
d="M488 774q41 0 41 -42q0 -40 -39 -40h-102l255 -597l228 597h-89q-39 0 -39 40q0 42 40 42h265q46 0 46 -41t-42 -41h-79l-303 -775q-51 -131 -121.5 -204.5t-177.5 -73.5q-68 0 -68 52q0 48 68 48q55 0 105 37t67 83l54 139q-64 133 -176.5 387t-136.5 307h-93
q-41 0 -41 40q0 42 46 42h292z" />
    <glyph glyph-name="z" unicode="z" 
d="M896 772q61 0 61 -45q0 -27 -18 -45l-552 -600h515l11 237q1 17 14 27.5t30 10.5t29 -11t12 -31v-269q0 -18 -16 -32t-35 -14h-613q-56 0 -56 59q0 31 17 50l534 583h-461l-8 -197q-1 -21 -13 -33t-29 -12q-18 0 -31.5 13.5t-13.5 36.5v226q0 18 14 32t32 14h577z" />
    <glyph glyph-name="braceleft" unicode="{" 
d="M657 658q0 -24 -0.5 -36.5t-5.5 -31t-14 -29t-26 -20.5t-43 -15q31 -7 50.5 -20.5t27 -35.5t9.5 -38.5t2 -46.5q0 -66 -30 -204t-30 -196q0 -73 57 -100.5t206 -27.5q13 0 20.5 -12.5t7.5 -29.5t-7.5 -29.5t-20.5 -12.5q-80 0 -138.5 6t-97.5 20.5t-63.5 32.5t-37.5 46.5
t-17 57.5t-4 72q0 75 31 198.5t31 178.5q0 41 -27 61.5t-96 20.5q-21 0 -34 18.5t-13 43.5q0 23 12 39.5t35 16.5q71 0 97 16.5t26 55.5q0 55 -31 178.5t-31 198.5q0 52 6.5 85t27 64.5t59.5 48.5t104.5 27.5t160.5 10.5q13 0 20.5 -12.5t7.5 -29.5t-7.5 -29.5t-20.5 -12.5
q-149 0 -206 -27.5t-57 -100.5q0 -58 30 -196t30 -204z" />
    <glyph glyph-name="bar" unicode="|" 
d="M701 1257q53 0 58 -49v-1275q0 -20 -19 -32.5t-41 -12.5q-60 0 -60 56v1264q0 23 18.5 36t43.5 13z" />
    <glyph glyph-name="braceright" unicode="}" 
d="M614 385q0 24 0.5 36.5t5.5 31t14 29t26 20.5t43 15q-31 7 -50.5 20.5t-27 35.5t-9.5 38.5t-2 46.5q0 66 30 204t30 196q0 73 -57 100.5t-206 27.5q-13 0 -20.5 12.5t-7.5 29.5t7.5 29.5t20.5 12.5q80 0 138.5 -6t97.5 -20.5t63.5 -32.5t37.5 -46.5t17 -57.5t4 -72
q0 -75 -31 -198.5t-31 -178.5q0 -41 27 -61.5t96 -20.5q21 0 34 -18.5t13 -43.5q0 -23 -12 -39.5t-35 -16.5q-71 0 -97 -16.5t-26 -55.5q0 -55 31 -178.5t31 -198.5q0 -52 -6.5 -85t-27 -64.5t-59.5 -48.5t-104.5 -27.5t-160.5 -10.5q-13 0 -20.5 12.5t-7.5 29.5t7.5 29.5
t20.5 12.5q149 0 206 27.5t57 100.5q0 58 -30 196t-30 204z" />
    <glyph glyph-name="asciitilde" unicode="~" 
d="M350 727q0 84 44 139.5t107 55.5q56 0 114.5 -19.5t97.5 -42.5t76.5 -42.5t56.5 -19.5q27 0 47.5 11.5t33 27.5t23 32t22.5 27.5t26 11.5q50 0 50 -36q0 -84 -51 -139t-125 -55q-57 0 -126 31t-129.5 61.5t-95.5 30.5q-27 0 -47 -17t-29 -38t-20.5 -38t-24.5 -17
q-21 0 -35.5 9t-14.5 27z" />
    <glyph glyph-name="uni0091" 
 />
    <glyph glyph-name="uni0092" 
 />
    <glyph glyph-name="uni0093" 
 />
    <glyph glyph-name="uni0094" 
 />
    <glyph glyph-name="uni009A" 
 />
    <glyph glyph-name="uni009B" 
 />
    <glyph glyph-name="uni009D" 
 />
    <glyph glyph-name="uni00A0" unicode="&#xa0;" 
 />
    <glyph glyph-name="exclamdown" unicode="&#xa1;" 
d="M555 -234q0 114 20 356t20 367q0 36 24 36t24 -36q0 -126 21 -367t21 -356q0 -47 -17 -65.5t-49 -18.5q-64 0 -64 84zM620 878q43 0 72.5 -29.5t29.5 -72.5t-29.5 -71.5t-72.5 -28.5t-72 28.5t-29 71.5t29 72.5t72 29.5z" />
    <glyph glyph-name="cent" unicode="&#xa2;" 
d="M634 990q17 0 21.5 -7.5t4.5 -26.5v-5v-138q140 -4 226 -60q93 -60 93 -189q0 -36 -15.5 -58t-44.5 -22t-40 35.5t-21 125.5q-3 27 -5 41q-87 43 -193 45v-665q69 4 118 24q62 25 124 82q17 16 41 16q35 0 35 -41q0 -23 -18 -42q-52 -57 -148 -89q-80 -27 -152 -32v-173
q0 -24 -5 -35.5t-21 -11.5q-17 0 -22 10t-5 36v173q-186 7 -301 113q-123 114 -123 311q-1 186 129 296q120 102 295 109v139q0 21 5 30t22 9zM607 730q-144 -9 -230 -85q-98 -86 -98 -238q-1 -169 93 -255q88 -82 235 -87v665z" />
    <glyph glyph-name="sterling" unicode="&#xa3;" 
d="M250 130q0 52 40 86.5t100 34.5q97 0 184 -90q12 23 12 68q0 86 -36 201t-94 188h-169q-11 0 -18 12t-7 28q0 37 23 37h142q-4 10 -29 60.5t-35 86t-10 79.5q0 115 87 189t209 74q98 0 160.5 -16.5t101.5 -63.5q8 -9 10 -12t6 -10t5 -13t1 -16q0 -33 -25 -54.5t-59 -21.5
q-14 0 -25.5 15t-24 36t-29 42t-47.5 36t-72 15q-78 0 -135.5 -50.5t-57.5 -147.5q0 -90 64 -228h235q11 0 17.5 -11.5t6.5 -26.5t-7 -27t-18 -12h-205q3 -9 37.5 -73t60 -138t25.5 -144q0 -75 -30 -135q54 -44 105.5 -59.5t122.5 -15.5q10 0 28 21.5t43.5 43t51.5 21.5
q20 0 36 -18t16 -39q0 -27 -12.5 -46t-30.5 -29t-46.5 -15.5t-52.5 -7t-57 -1.5q-79 0 -132.5 20t-128.5 69q-92 -88 -192 -88q-63 0 -104 39.5t-41 106.5zM404 48q60 0 127 68q-78 75 -135 75q-30 0 -47.5 -19t-19.5 -44v-6q0 -32 20.5 -53t54.5 -21z" />
    <glyph glyph-name="currency" unicode="&#xa4;" 
d="M459 358l-88 -87q-15 -15 -32 -10t-21 20.5t10 32.5l86 86q-53 65 -53 158q0 91 53 159l-86 86q-15 15 -9.5 32t21.5 20t32 -10l85 -85q67 51 159 51q94 0 158 -51l84 83q15 15 32.5 10t21 -21t-10.5 -33l-84 -84q46 -65 46 -152q0 -90 -53 -158l90 -90q15 -15 10 -32
t-20.5 -20.5t-32.5 10.5l-89 89q-65 -49 -157 -49q-89 0 -152 45zM616 368q88 0 136.5 54t48.5 138q0 85 -48 140.5t-138 55.5t-137.5 -55.5t-47.5 -140.5q0 -82 49.5 -137t136.5 -55z" />
    <glyph glyph-name="yen" unicode="&#xa5;" 
d="M956 578q39 0 39 -36t-39 -36h-267v-137h267q39 0 39 -36t-39 -36h-267v-211h232q23 0 35.5 -12.5t12.5 -29.5q0 -18 -13.5 -31t-36.5 -13h-585q-24 0 -38 13t-14 31q0 17 13.5 29.5t36.5 12.5h261v211h-275q-39 0 -39 36t39 36h275v137h-275q-39 0 -39 36t39 36h260
l-320 517h-84q-23 0 -36.5 11.5t-13.5 26.5t14 26.5t37 11.5h330q24 0 37.5 -11.5t13.5 -26.5t-13.5 -26.5t-36.5 -11.5h-136l276 -462l268 462h-111q-23 0 -36.5 11.5t-13.5 26.5t13.5 26.5t37.5 11.5h261q24 0 37.5 -11.5t13.5 -27.5q0 -15 -13 -26t-36 -11h-55l-305 -517
h249z" />
    <glyph glyph-name="brokenbar" unicode="&#xa6;" 
d="M664 -56q0 -12 -13 -18.5t-30 -6.5q-18 0 -31 6.5t-13 18.5v468q0 15 13 23t31 8q17 0 30 -8t13 -23v-468zM664 704q0 -11 -13 -18t-30 -7q-18 0 -31 7t-13 18v468q0 15 13 23t31 8q17 0 30 -8t13 -23v-468z" />
    <glyph glyph-name="section" unicode="&#xa7;" 
d="M428 1005q0 81 56.5 133t142.5 52q80 0 146.5 -42t66.5 -107q0 -18 -11 -28.5t-29 -10.5q-37 0 -47 31q-32 84 -122 84q-45 0 -77.5 -27.5t-32.5 -69.5q0 -43 23 -81q30 -51 108 -131.5t94 -100.5q37 -46 58 -89t21 -96q0 -58 -24 -107t-67 -69q70 -101 70 -178
q0 -82 -55.5 -133.5t-141.5 -51.5q-80 0 -146.5 41.5t-66.5 106.5q0 18 11.5 29t29.5 11q35 0 46 -31q32 -84 120 -84q46 0 78.5 27t32.5 69q0 44 -22 82q-30 51 -106.5 129t-95.5 102q-80 98 -80 186q0 58 24 107t68 69q-72 97 -72 178zM536 782q-38 -31 -38 -92
q0 -38 22 -77q21 -37 49 -72.5t70.5 -83t58.5 -66.5q38 30 38 93q0 36 -23 76q-21 37 -49.5 73t-68.5 81t-59 68z" />
    <glyph glyph-name="dieresis" unicode="&#xa8;" 
d="M867 1143q34 0 58 -24t24 -59q0 -34 -23.5 -58t-58.5 -24t-59 24t-24 58t24 58.5t59 24.5zM532 1143q34 0 58 -24t24 -59q0 -34 -24 -58t-58 -24q-35 0 -59 24t-24 58t24.5 58.5t58.5 24.5z" />
    <glyph glyph-name="copyright" unicode="&#xa9;" 
d="M128 583q0 -241 125.5 -370.5t366.5 -129.5t367 130t126 370q0 242 -126.5 374t-366.5 132t-366 -132.5t-126 -373.5zM1193 581q0 -271 -150.5 -419.5t-422.5 -148.5t-422 148.5t-150 419.5q0 273 150.5 425t421.5 152t422 -152t151 -425zM923 443q-18 -82 -98.5 -146.5
t-197.5 -64.5q-149 0 -241.5 99t-92.5 265q0 152 96.5 251t241.5 99q71 0 128.5 -30.5t82.5 -76.5v70q0 13 9.5 21t21.5 8t21 -8t9 -22v-178q0 -13 -8.5 -20t-19.5 -7q-22 0 -30 27q-47 154 -214 154q-116 0 -187 -81.5t-71 -205.5q0 -140 70.5 -219.5t183.5 -79.5
q176 0 239 158q9 20 28 20q12 0 21 -7.5t9 -19.5q0 -1 -0.5 -3t-0.5 -3z" />
    <glyph glyph-name="ordfeminine" unicode="&#xaa;" 
d="M599.339 757.248q-80.4697 0 -146.974 -30.1797q-2.66016 -51.6396 -11.9707 -77.7949q-9.31055 -26.1562 -31.9219 -26.1562q-19.2861 0 -29.5938 13.4131q-10.3086 13.4131 -10.3086 34.874q0 61.7002 64.5088 101.27q64.5088 39.5684 166.925 39.5684
q57.8584 0 97.0957 -16.4316q39.2373 -16.4307 61.1836 -49.9629q21.9463 -33.5332 30.9238 -76.79q8.97852 -43.2578 8.97852 -104.287v-209.244q0 -23.4727 9.31055 -31.8564q9.31055 -8.38281 25.2715 -8.38281q17.291 0 36.5771 10.3955
q19.2861 10.3945 30.5918 22.4668q7.31543 8.04785 15.9609 8.04785q9.97559 0 17.291 -8.71875t7.31543 -19.4492q0 -10.0596 -6.65039 -16.7656q-46.5527 -48.958 -106.406 -48.958q-33.917 0 -57.1934 16.4307q-23.2764 16.4316 -31.2568 64.0479
q-32.5869 -36.8857 -91.4424 -61.7002q-58.8564 -24.8145 -128.021 -24.8145q-74.4844 0 -116.382 41.2451t-41.8975 110.323q0 24.1426 6.31738 44.5977q6.31836 20.4551 15.6289 35.8809q9.31055 15.4248 26.6016 27.832q17.291 12.4062 32.5869 20.79
q15.2959 8.38281 41.5654 15.4248q26.2686 7.04199 44.8896 10.7305t50.543 7.04199t51.873 5.03027q19.9512 1.67578 54.5332 3.68848q32.5869 2.01172 48.5479 3.35254v13.4141q0 78.4658 -30.2598 120.047q-30.2588 41.5801 -104.743 41.5801zM734.342 535.933
q-154.954 -15.4248 -198.182 -24.8145q-84.46 -18.7783 -103.081 -64.3828q-7.31543 -16.7666 -7.31543 -38.8975q0 -50.9707 27.5996 -74.1074q27.5986 -23.1377 73.4863 -23.1377q59.1885 0 115.385 22.4668q56.1953 22.4668 92.1074 60.6943v142.179z" />
    <glyph glyph-name="guillemotleft" unicode="&#xab;" 
d="M918 216l-344 259q-38 29 -38 55q0 27 38 56l334 255q16 11 30 11q17 0 28.5 -10.5t11.5 -25.5q0 -21 -24 -39l-321 -246l330 -244q31 -23 31 -49q0 -15 -11 -25.5t-27 -10.5q-20 0 -38 14zM554 216l-344 259q-38 29 -38 55q0 27 38 56l334 255q16 11 30 11
q17 0 28.5 -10.5t11.5 -25.5q0 -21 -24 -39l-321 -246l330 -244q31 -23 31 -49q0 -15 -11 -25.5t-27 -10.5q-20 0 -38 14z" />
    <glyph glyph-name="logicalnot" unicode="&#xac;" 
d="M301 546h557q60 0 60 -58v-274q0 -26 -15 -41t-35 -15q-19 0 -33 13.5t-14 38.5v250h-520q-25 0 -37 12t-12 30t12 31t37 13z" />
    <glyph glyph-name="uni00AD" unicode="&#xad;" 
d="M895 533q21 0 33 -12.5t12 -30.5q0 -17 -12 -30t-33 -13h-550q-21 0 -33 13t-12 30q0 18 12 30.5t33 12.5h550z" />
    <glyph glyph-name="registered" unicode="&#xae;" 
d="M1193 581q0 -271 -150.5 -419.5t-422.5 -148.5t-422 148.5t-150 419.5q0 273 150.5 425t421.5 152t422 -152t151 -425zM128 583q0 -241 125.5 -370.5t366.5 -129.5t367 130t126 370q0 242 -126.5 374t-366.5 132t-366 -132.5t-126 -373.5zM514 623l59 1q29 1 42 1.5
t39.5 3t40 7t32.5 13t28.5 21t16.5 31.5t7 44q0 35 -10 59.5t-26 39t-45 22t-58.5 10t-75.5 2.5h-50v-255zM633 273q0 -10 -7.5 -19t-20.5 -9h-225q-13 0 -21 9t-8 19q0 11 7.5 19.5t20.5 8.5h64v577h-48q-13 0 -20.5 9t-7.5 20t7.5 20.5t21.5 9.5h182q67 0 112.5 -7
t84 -26.5t57.5 -58t19 -96.5q0 -63 -32.5 -103t-81.5 -59l104 -286h37q37 0 37 -27q0 -12 -8.5 -20.5t-27.5 -8.5h-147q-14 0 -21.5 9t-7.5 20q0 10 7 18.5t20 8.5h29l-88 273q-5 -2 -47 -5.5t-63 -3.5h-47v-264h91q13 0 20.5 -8.5t7.5 -19.5z" />
    <glyph glyph-name="macron" unicode="&#xaf;" 
d="M883 1033h-362q-51 0 -51 43t50 43h361q49 0 49 -43t-47 -43z" />
    <glyph glyph-name="degree" unicode="&#xb0;" 
d="M703 1121q117 0 182 -73.5t65 -174.5t-67 -175.5t-185 -74.5t-184 72.5t-66 172.5q0 102 68 177.5t187 75.5zM707 719q67 0 102.5 43t35.5 108q0 66 -37 110t-106 44t-105.5 -44t-36.5 -110q0 -63 40 -107t107 -44z" />
    <glyph glyph-name="plusminus" unicode="&#xb1;" 
d="M924 558q43 0 43 -41t-43 -41h-255v-241q0 -25 -14 -38.5t-34 -13.5t-34 13.5t-14 38.5v241h-257q-43 0 -43 41q0 17 10.5 29t32.5 12h257v246q0 25 14 38.5t34 13.5t34 -13.5t14 -38.5v-246h255zM316 82h608q43 0 43 -41t-43 -41h-608q-43 0 -43 41t43 41z" />
    <glyph glyph-name="uni00B2" unicode="&#xb2;" 
d="M821 1007q0 -57 -29.5 -108.5t-73.5 -93.5t-90 -83t-85 -93.5t-52 -108.5h281l7 104q1 16 10 25.5t21 9.5q27 0 27 -40v-124q0 -19 -9 -29.5t-23 -10.5h-382q-4 18 -4 29q0 49 18.5 95.5t47.5 84t64 73.5t70.5 68.5t64.5 64t47.5 65.5t18.5 66q0 63 -39.5 97.5
t-101.5 34.5t-120 -32q-10 -106 -17 -123q-7 -16 -22 -16q-36 0 -36 63q0 77 56.5 119.5t135.5 42.5q86 0 150.5 -48t64.5 -132z" />
    <glyph glyph-name="uni00B3" unicode="&#xb3;" 
d="M564 790q-28 0 -28 28q0 17 22 30l51 30t48.5 29.5t37.5 26.5t32.5 29.5t17.5 30.5t8 38q0 39 -29 65.5t-86 26.5q-41 0 -68 -6.5t-38.5 -16t-20 -19.5t-20.5 -16.5t-31 -6.5q-14 0 -22 7.5t-8 17.5q0 31 39 56t86 36t85 11q79 0 131 -41.5t52 -113.5q0 -107 -164 -187
q99 -4 154 -62t55 -150q0 -111 -79.5 -183t-196.5 -72q-70 0 -131 27t-61 60q0 8 8.5 16.5t20.5 8.5q24 0 42 -12t46 -24t77 -12q93 0 148.5 54.5t55.5 140.5q0 74 -45 116.5t-122 42.5q-11 0 -37.5 -3t-29.5 -3z" />
    <glyph glyph-name="acute" unicode="&#xb4;" 
d="M858 1216l-322 -234q-4 -4 -11 -4q-9 0 -16.5 6.5t-7.5 15.5q0 8 7 15l271 276q14 14 31 14q23 0 42.5 -20t19.5 -41q0 -18 -14 -28z" />
    <glyph glyph-name="uni00B5" unicode="&#xb5;" 
d="M562 65q90 0 180.5 48.5t123.5 117.5v475l-97 -20q-9 -3 -18 -3q-21 0 -34 13t-13 30q0 32 38 39l174 35q8 2 12 2q15 0 24.5 -10t9.5 -24v-683l148 11h6q20 0 30 -10t10 -25t-10 -27.5t-28 -16.5l-186 -20h-7q-44 0 -47 50l-5 87q-44 -65 -131 -108t-181 -43
q-144 0 -224 88q37 -267 48 -328q2 -16 2 -21q0 -33 -18 -49t-42 -16q-27 0 -42 23t-15 64v962l-98 -20q-6 -2 -17 -2q-20 0 -33 13t-13 30q0 31 36 38l175 35q8 2 12 2q15 0 24.5 -10t9.5 -24v-509q0 -87 49.5 -140.5t146.5 -53.5z" />
    <glyph glyph-name="paragraph" unicode="&#xb6;" 
d="M636 82h158v1007h-158v-1007zM890 1171l2 -1089h181q19 0 29 -11.5t10 -27.5q0 -17 -11 -30t-30 -13h-738q-19 0 -30 13t-11 30q0 16 10 27.5t29 11.5h209v529q-94 0 -166 43.5t-107 109t-35 139.5q0 111 82.5 189.5t239.5 78.5h336z" />
    <glyph glyph-name="periodcentered" unicode="&#xb7;" 
d="M699 680q34 0 58 -24t24 -59t-23.5 -58.5t-58.5 -23.5t-59 24t-24 58q0 35 24 59t59 24z" />
    <glyph glyph-name="cedilla" unicode="&#xb8;" 
d="M180 0l-41 -321q-5 -42 -22.5 -61t-39.5 -19q-23 0 -36 14.5t-13 39.5q0 17 8 41l107 306h37z" />
    <glyph glyph-name="uni00B9" unicode="&#xb9;" 
d="M658 1140v-685h106q13 0 20.5 -9t7.5 -21t-7.5 -20.5t-21.5 -8.5h-295q-16 0 -25 9t-9 21q0 11 8.5 20t22.5 9h124v641l-124 -55q-6 -3 -12 -3q-12 0 -20.5 10t-8.5 22q0 18 17 25l173 76q6 3 14 3q30 0 30 -34z" />
    <glyph glyph-name="ordmasculine" unicode="&#xba;" 
d="M702 451q-85 0 -132.5 -54t-47.5 -142q0 -89 47.5 -143.5t132.5 -54.5q83 0 129.5 55.5t46.5 142.5t-46.5 141.5t-129.5 54.5zM702 -20q-126 0 -203.5 75t-77.5 200q0 126 77.5 200t203.5 74q124 0 199.5 -75t75.5 -199t-75.5 -199.5t-199.5 -75.5z" />
    <glyph glyph-name="guillemotright" unicode="&#xbb;" 
d="M270 831l344 -259q38 -29 38 -55q0 -27 -38 -56l-334 -255q-16 -11 -30 -11q-17 0 -28.5 10.5t-11.5 25.5q0 21 24 39l321 246l-330 244q-31 23 -31 49q0 15 11 25.5t27 10.5q20 0 38 -14zM634 831l344 -259q38 -29 38 -55q0 -27 -38 -56l-334 -255q-16 -11 -30 -11
q-17 0 -28.5 10.5t-11.5 25.5q0 21 24 39l321 246l-330 244q-31 23 -31 49q0 15 11 25.5t27 10.5q20 0 38 -14z" />
    <glyph glyph-name="onequarter" unicode="&#xbc;" 
d="M322 79l612 1020q9 16 27 16q14 0 24.5 -8t10.5 -21q0 -8 -4 -16l-610 -1018q-11 -18 -28 -18q-14 0 -24.5 9t-10.5 22q0 9 3 14zM961 667l-218 -366h218v366zM786 1q-13 0 -20 9t-7 22q0 12 7 21.5t19 9.5h176v182h-271q-11 0 -20.5 10.5t-9.5 23.5q0 9 8 22l309 493
q5 10 28 10q31 0 31 -42v-461h119q13 0 20 -8.5t7 -19.5t-8 -19.5t-21 -8.5h-117v-182h124q13 0 20.5 -9t7.5 -21q0 -13 -8 -22.5t-21 -9.5h-373zM269 1085v-686h106q13 0 20.5 -8.5t7.5 -20.5t-7.5 -21t-21.5 -9h-296q-16 0 -24.5 9.5t-8.5 21.5q0 11 8 19.5t22 8.5h124
v642l-123 -56q-6 -3 -12 -3q-12 0 -21 10.5t-9 22.5q0 18 17 25l174 76q6 3 14 3q30 0 30 -34z" />
    <glyph glyph-name="onehalf" unicode="&#xbd;" 
d="M295 79l612 1020q9 16 27 16q14 0 24.5 -8t10.5 -21q0 -8 -4 -16l-610 -1018q-11 -18 -28 -18q-14 0 -24.5 9t-10.5 22q0 9 3 14zM269 1085v-686h106q13 0 20.5 -8.5t7.5 -20.5t-7.5 -21t-21.5 -9h-296q-16 0 -24.5 9.5t-8.5 21.5q0 11 8 19.5t22 8.5h124v642l-123 -56
q-6 -3 -12 -3q-12 0 -21 10.5t-9 22.5q0 18 17 25l174 76q6 3 14 3q30 0 30 -34zM1167 552q0 -57 -29.5 -108.5t-73.5 -93.5t-90 -83t-85 -93.5t-52 -108.5h281l7 104q1 16 10 25.5t21 9.5q27 0 27 -40v-124q0 -19 -9 -29.5t-23 -10.5h-382q-4 18 -4 29q0 49 18.5 95.5
t47.5 84t64 73.5t70.5 68.5t64.5 64t47.5 65.5t18.5 66q0 63 -39.5 98t-101.5 35q-60 0 -120 -33q-10 -106 -17 -123q-7 -16 -22 -16q-36 0 -36 63q0 77 56.5 119.5t135.5 42.5q86 0 150.5 -48t64.5 -132z" />
    <glyph glyph-name="threequarters" unicode="&#xbe;" 
d="M180 725q-28 0 -28 28q0 17 22 30q16 10 50.5 30.5t48.5 29.5t37 26t32.5 29.5t17.5 30.5t8 38q0 39 -28.5 65.5t-85.5 26.5q-41 0 -68 -6.5t-38.5 -16.5t-19.5 -19.5t-20 -16t-32 -6.5q-14 0 -22 7.5t-8 17.5q0 31 39 56t86 36t85 11q79 0 131 -41.5t52 -113.5
q0 -107 -164 -187q99 -4 154 -62t55 -150q0 -111 -79.5 -183t-196.5 -72q-70 0 -131 27t-61 60q0 8 8.5 16.5t20.5 8.5q24 0 42 -12t46 -24t77 -12q93 0 148 54.5t55 140.5q0 74 -44.5 116.5t-121.5 42.5q-11 0 -37.5 -3t-29.5 -3zM341 79l612 1020q9 16 27 16q14 0 24.5 -8
t10.5 -21q0 -8 -4 -16l-610 -1018q-11 -18 -28 -18q-14 0 -24.5 9t-10.5 22q0 9 3 14zM985 667l-218 -366h218v366zM810 1q-13 0 -20 9t-7 22q0 12 7 21.5t19 9.5h176v182h-271q-11 0 -20.5 10.5t-9.5 23.5q0 9 8 22l309 493q5 10 28 10q31 0 31 -42v-461h119q13 0 20 -8.5
t7 -19.5t-8 -19.5t-21 -8.5h-117v-182h124q13 0 20.5 -9t7.5 -21q0 -13 -8 -22.5t-21 -9.5h-373z" />
    <glyph glyph-name="questiondown" unicode="&#xbf;" 
d="M300 -37q0 61 24.5 116.5t61 93.5t79.5 77.5t79.5 71t61 72t24.5 81.5q0 29 6.5 42.5t25.5 13.5q16 0 23.5 -8.5t9 -18t1.5 -28.5q0 -61 -25 -113t-62.5 -90.5t-76 -76.5t-70.5 -89.5t-41 -111.5q-3 -20 -3 -38q0 -89 58.5 -144t158.5 -55q85 0 149 29q1 8 2 27.5t2 30
t2.5 28t4 28t6 24.5t8.5 22t11.5 16t15.5 11.5t20 3.5q49 0 49 -80q0 -100 -75 -158.5t-198 -58.5q-148 0 -240 73.5t-92 208.5zM656 878q43 0 72.5 -29.5t29.5 -72.5t-29.5 -72t-72.5 -29t-72 28.5t-29 71.5t29 73t72 30z" />
    <glyph glyph-name="Agrave" unicode="&#xc0;" 
d="M829 1385q0 -13 -10 -24t-23 -11q-8 0 -12 4q-58 34 -340 210q-19 13 -19 31q0 21 18 39t40 18q17 0 28 -10q158 -136 308 -236q10 -6 10 -21zM425 475h420l-199 597zM90 0q-24 0 -37 12.5t-13 30.5q0 17 13 30t36 13h85l385 999h-217q-24 0 -37 12.5t-13 30.5
q0 17 13 30t36 13h303q58 0 81 -65l362 -1020h79q23 0 35.5 -12.5t12.5 -29.5q0 -18 -13.5 -31t-36.5 -13h-366q-24 0 -37.5 13t-13.5 31q0 17 13 29.5t36 12.5h186l-107 306h-483l-112 -306h159q23 0 36.5 -13t13.5 -30q0 -18 -13.5 -30.5t-37.5 -12.5h-348z" />
    <glyph glyph-name="Aacute" unicode="&#xc1;" 
d="M798 1588l-322 -234q-4 -4 -11 -4q-9 0 -16.5 6.5t-7.5 15.5q0 8 7 15l271 276q14 14 31 14q23 0 42.5 -20t19.5 -41q0 -18 -14 -28zM425 475h420l-199 597zM90 0q-24 0 -37 12.5t-13 30.5q0 17 13 30t36 13h85l385 999h-217q-24 0 -37 12.5t-13 30.5q0 17 13 30t36 13
h303q58 0 81 -65l362 -1020h79q23 0 35.5 -12.5t12.5 -29.5q0 -18 -13.5 -31t-36.5 -13h-366q-24 0 -37.5 13t-13.5 31q0 17 13 29.5t36 12.5h186l-107 306h-483l-112 -306h159q23 0 36.5 -13t13.5 -30q0 -18 -13.5 -30.5t-37.5 -12.5h-348z" />
    <glyph glyph-name="Acircumflex" unicode="&#xc2;" 
d="M627 1691q25 0 32 -12l184 -283q7 -7 7 -17q0 -12 -11.5 -20.5t-25.5 -8.5q-17 0 -23 9l-163 209l-162 -209q-6 -9 -23 -9q-14 0 -25.5 8.5t-11.5 20.5q0 10 7 17l184 283q8 12 31 12zM425 475h420l-199 597zM90 0q-24 0 -37 12.5t-13 30.5q0 17 13 30t36 13h85l385 999
h-217q-24 0 -37 12.5t-13 30.5q0 17 13 30t36 13h303q58 0 81 -65l362 -1020h79q23 0 35.5 -12.5t12.5 -29.5q0 -18 -13.5 -31t-36.5 -13h-366q-24 0 -37.5 13t-13.5 31q0 17 13 29.5t36 12.5h186l-107 306h-483l-112 -306h159q23 0 36.5 -13t13.5 -30q0 -18 -13.5 -30.5
t-37.5 -12.5h-348z" />
    <glyph glyph-name="Atilde" unicode="&#xc3;" 
d="M500 1528q4 0 16 -2q36 -7 123.5 -52t108.5 -45q9 0 16.5 4t15 14t11.5 16.5t12 21.5t10 20q4 8 17 8q17 0 34 -12t14 -26q-48 -125 -126 -125q-9 0 -27 4q-41 11 -115.5 49t-98.5 44q-3 1 -9 1q-34 0 -63 -68q-6 -12 -22 -12q-14 0 -27.5 8.5t-13.5 19.5q0 45 39.5 88.5
t84.5 43.5zM425 475h420l-199 597zM90 0q-24 0 -37 12.5t-13 30.5q0 17 13 30t36 13h85l385 999h-217q-24 0 -37 12.5t-13 30.5q0 17 13 30t36 13h303q58 0 81 -65l362 -1020h79q23 0 35.5 -12.5t12.5 -29.5q0 -18 -13.5 -31t-36.5 -13h-366q-24 0 -37.5 13t-13.5 31
q0 17 13 29.5t36 12.5h186l-107 306h-483l-112 -306h159q23 0 36.5 -13t13.5 -30q0 -18 -13.5 -30.5t-37.5 -12.5h-348z" />
    <glyph glyph-name="Adieresis" unicode="&#xc4;" 
d="M795 1474q34 0 58 -24t24 -59q0 -34 -23.5 -58t-58.5 -24t-59 24t-24 58t24 58.5t59 24.5zM460 1474q34 0 58 -24t24 -59q0 -34 -24 -58t-58 -24q-35 0 -59 24t-24 58t24.5 58.5t58.5 24.5zM425 475h420l-199 597zM90 0q-24 0 -37 12.5t-13 30.5q0 17 13 30t36 13h85
l385 999h-217q-24 0 -37 12.5t-13 30.5q0 17 13 30t36 13h303q58 0 81 -65l362 -1020h79q23 0 35.5 -12.5t12.5 -29.5q0 -18 -13.5 -31t-36.5 -13h-366q-24 0 -37.5 13t-13.5 31q0 17 13 29.5t36 12.5h186l-107 306h-483l-112 -306h159q23 0 36.5 -13t13.5 -30
q0 -18 -13.5 -30.5t-37.5 -12.5h-348z" />
    <glyph glyph-name="Aring" unicode="&#xc5;" 
d="M630 1516q80 0 124.5 -50t44.5 -119t-46 -120t-126 -51t-125.5 50t-45.5 118q0 69 46.5 120.5t127.5 51.5zM632 1241q46 0 70 29.5t24 74.5t-25.5 75t-71.5 30q-47 0 -72 -30t-25 -75q0 -43 27 -73.5t73 -30.5zM425 475h420l-199 597zM90 0q-24 0 -37 12.5t-13 30.5
q0 17 13 30t36 13h85l385 999h-217q-24 0 -37 12.5t-13 30.5q0 17 13 30t36 13h303q58 0 81 -65l362 -1020h79q23 0 35.5 -12.5t12.5 -29.5q0 -18 -13.5 -31t-36.5 -13h-366q-24 0 -37.5 13t-13.5 31q0 17 13 29.5t36 12.5h186l-107 306h-483l-112 -306h159q23 0 36.5 -13
t13.5 -30q0 -18 -13.5 -30.5t-37.5 -12.5h-348z" />
    <glyph glyph-name="AE" unicode="&#xc6;" 
d="M642 475v610h-97l-191 -610h288zM88 0q-24 0 -37 12.5t-13 30.5q0 17 13 30t36 13h51l325 999h-162q-24 0 -37 12.5t-13 30.5q0 17 13 30t36 13h750q25 0 40.5 -14.5t15.5 -39.5v-224q0 -21 -12 -32.5t-28 -11.5t-27 10t-12 28l-14 198h-284v-448h142l13 103
q2 21 13.5 33t26.5 12q16 0 27 -13.5t11 -39.5v-272q0 -25 -11 -38t-27 -13q-15 0 -27 11.5t-13 31.5l-13 108h-142v-475h287l16 211q1 17 13 28t28 11q17 0 29.5 -13.5t12.5 -38.5v-230q0 -25 -15.5 -39t-40.5 -14h-446q-24 0 -37.5 13t-13.5 30t13.5 29.5t36.5 12.5h30
v307h-315l-96 -306h167q23 0 36.5 -13t13.5 -30q0 -18 -13.5 -30.5t-37.5 -12.5h-309z" />
    <glyph glyph-name="Ccedilla" unicode="&#xc7;" 
d="M658 -4l-41 -321q-5 -42 -22.5 -61t-39.5 -19q-23 0 -36 14.5t-13 39.5q0 17 8 41l107 306h37zM1145 336q-15 -66 -50.5 -126.5t-92 -112.5t-143 -83t-190.5 -31q-235 0 -386 171t-151 453q0 258 151.5 419t384.5 161q117 0 215 -48.5t139 -123.5v106q0 23 14.5 36.5
t34.5 13.5t34.5 -13.5t14.5 -37.5v-293q0 -23 -13.5 -35t-32.5 -12q-40 0 -48 47q-23 123 -121.5 198.5t-233.5 75.5q-203 0 -323 -140t-120 -361q0 -123 36 -224.5t97 -168t140.5 -102.5t168.5 -36q142 0 240 77t139 213q10 28 40 28q21 0 39 -13.5t18 -30.5q0 -5 -1 -7z
" />
    <glyph glyph-name="Egrave" unicode="&#xc8;" 
d="M822 1385q0 -13 -10 -24t-23 -11q-8 0 -12 4q-58 34 -340 210q-19 13 -19 31q0 21 18 39t40 18q17 0 28 -10q158 -136 308 -236q10 -6 10 -21zM837 437q0 -25 -11 -38t-27 -13q-15 0 -27 11.5t-13 31.5l-13 148h-326v-492h615l16 251q1 17 14 28t30 11t29.5 -13.5
t12.5 -38.5v-270q0 -25 -15.5 -39t-40.5 -14h-926q-24 0 -37.5 13t-13.5 30t13.5 29.5t36.5 12.5h170v1000h-135q-23 0 -35.5 12.5t-12.5 29.5q0 18 13.5 31t36.5 13h878q25 0 40.5 -14.5t15.5 -39.5v-270q0 -21 -12 -32.5t-28 -11.5t-28.5 10t-13.5 28l-14 244h-609v-431
h326l13 133q2 21 13.5 33t26.5 12q16 0 27 -13.5t11 -39.5v-342z" />
    <glyph glyph-name="Eacute" unicode="&#xc9;" 
d="M792 1588l-322 -234q-4 -4 -11 -4q-9 0 -16.5 6.5t-7.5 15.5q0 8 7 15l271 276q14 14 31 14q23 0 42.5 -20t19.5 -41q0 -18 -14 -28zM837 437q0 -25 -11 -38t-27 -13q-15 0 -27 11.5t-13 31.5l-13 148h-326v-492h615l16 251q1 17 14 28t30 11t29.5 -13.5t12.5 -38.5v-270
q0 -25 -15.5 -39t-40.5 -14h-926q-24 0 -37.5 13t-13.5 30t13.5 29.5t36.5 12.5h170v1000h-135q-23 0 -35.5 12.5t-12.5 29.5q0 18 13.5 31t36.5 13h878q25 0 40.5 -14.5t15.5 -39.5v-270q0 -21 -12 -32.5t-28 -11.5t-28.5 10t-13.5 28l-14 244h-609v-431h326l13 133
q2 21 13.5 33t26.5 12q16 0 27 -13.5t11 -39.5v-342z" />
    <glyph glyph-name="Ecircumflex" unicode="&#xca;" 
d="M620 1691q25 0 32 -12l184 -283q7 -7 7 -17q0 -12 -11.5 -20.5t-25.5 -8.5q-17 0 -23 9l-163 209l-162 -209q-6 -9 -23 -9q-14 0 -25.5 8.5t-11.5 20.5q0 10 7 17l184 283q8 12 31 12zM837 437q0 -25 -11 -38t-27 -13q-15 0 -27 11.5t-13 31.5l-13 148h-326v-492h615
l16 251q1 17 14 28t30 11t29.5 -13.5t12.5 -38.5v-270q0 -25 -15.5 -39t-40.5 -14h-926q-24 0 -37.5 13t-13.5 30t13.5 29.5t36.5 12.5h170v1000h-135q-23 0 -35.5 12.5t-12.5 29.5q0 18 13.5 31t36.5 13h878q25 0 40.5 -14.5t15.5 -39.5v-270q0 -21 -12 -32.5t-28 -11.5
t-28.5 10t-13.5 28l-14 244h-609v-431h326l13 133q2 21 13.5 33t26.5 12q16 0 27 -13.5t11 -39.5v-342z" />
    <glyph glyph-name="Edieresis" unicode="&#xcb;" 
d="M789 1474q34 0 58 -24t24 -59q0 -34 -23.5 -58t-58.5 -24t-59 24t-24 58t24 58.5t59 24.5zM454 1474q34 0 58 -24t24 -59q0 -34 -24 -58t-58 -24q-35 0 -59 24t-24 58t24.5 58.5t58.5 24.5zM837 437q0 -25 -11 -38t-27 -13q-15 0 -27 11.5t-13 31.5l-13 148h-326v-492
h615l16 251q1 17 14 28t30 11t29.5 -13.5t12.5 -38.5v-270q0 -25 -15.5 -39t-40.5 -14h-926q-24 0 -37.5 13t-13.5 30t13.5 29.5t36.5 12.5h170v1000h-135q-23 0 -35.5 12.5t-12.5 29.5q0 18 13.5 31t36.5 13h878q25 0 40.5 -14.5t15.5 -39.5v-270q0 -21 -12 -32.5
t-28 -11.5t-28.5 10t-13.5 28l-14 244h-609v-431h326l13 133q2 21 13.5 33t26.5 12q16 0 27 -13.5t11 -39.5v-342z" />
    <glyph glyph-name="Igrave" unicode="&#xcc;" 
d="M854 1385q0 -13 -10 -24t-23 -11q-8 0 -12 4q-58 34 -340 210q-19 13 -19 31q0 21 18 39t40 18q17 0 28 -10q158 -136 308 -236q10 -6 10 -21zM310 0q-24 0 -37.5 12.5t-13.5 30.5q0 17 13.5 30t36.5 13h305v999h-305q-23 0 -36.5 12.5t-13.5 29.5q0 18 13.5 31t37.5 13
h685q23 0 36.5 -13t13.5 -31q0 -17 -13 -29.5t-36 -12.5h-286v-999h286q23 0 36 -13t13 -30q0 -18 -13 -30.5t-37 -12.5h-685z" />
    <glyph glyph-name="Iacute" unicode="&#xcd;" 
d="M823 1588l-322 -234q-4 -4 -11 -4q-9 0 -16.5 6.5t-7.5 15.5q0 8 7 15l271 276q14 14 31 14q23 0 42.5 -20t19.5 -41q0 -18 -14 -28zM310 0q-24 0 -37.5 12.5t-13.5 30.5q0 17 13.5 30t36.5 13h305v999h-305q-23 0 -36.5 12.5t-13.5 29.5q0 18 13.5 31t37.5 13h685
q23 0 36.5 -13t13.5 -31q0 -17 -13 -29.5t-36 -12.5h-286v-999h286q23 0 36 -13t13 -30q0 -18 -13 -30.5t-37 -12.5h-685z" />
    <glyph glyph-name="Icircumflex" unicode="&#xce;" 
d="M651 1691q25 0 32 -12l184 -283q7 -7 7 -17q0 -12 -11.5 -20.5t-25.5 -8.5q-17 0 -23 9l-163 209l-162 -209q-6 -9 -23 -9q-14 0 -25.5 8.5t-11.5 20.5q0 10 7 17l184 283q8 12 31 12zM310 0q-24 0 -37.5 12.5t-13.5 30.5q0 17 13.5 30t36.5 13h305v999h-305
q-23 0 -36.5 12.5t-13.5 29.5q0 18 13.5 31t37.5 13h685q23 0 36.5 -13t13.5 -31q0 -17 -13 -29.5t-36 -12.5h-286v-999h286q23 0 36 -13t13 -30q0 -18 -13 -30.5t-37 -12.5h-685z" />
    <glyph glyph-name="Idieresis" unicode="&#xcf;" 
d="M820 1474q34 0 58 -24t24 -59q0 -34 -23.5 -58t-58.5 -24t-59 24t-24 58t24 58.5t59 24.5zM485 1474q34 0 58 -24t24 -59q0 -34 -24 -58t-58 -24q-35 0 -59 24t-24 58t24.5 58.5t58.5 24.5zM310 0q-24 0 -37.5 12.5t-13.5 30.5q0 17 13.5 30t36.5 13h305v999h-305
q-23 0 -36.5 12.5t-13.5 29.5q0 18 13.5 31t37.5 13h685q23 0 36.5 -13t13.5 -31q0 -17 -13 -29.5t-36 -12.5h-286v-999h286q23 0 36 -13t13 -30q0 -18 -13 -30.5t-37 -12.5h-685z" />
    <glyph glyph-name="Eth" unicode="&#xd0;" 
d="M978 591q0 239 -113 366.5t-331 127.5h-114v-437h187q39 0 39 -37q0 -39 -41 -39h-185v-486h100q243 0 350.5 124t107.5 381zM172 572q-46 0 -46 39q0 37 42 37h146v437h-159q-23 0 -35.5 12.5t-12.5 29.5q0 18 13.5 31t36.5 13h358q267 0 418 -144t151 -436
q0 -308 -145.5 -449.5t-425.5 -141.5h-361q-24 0 -37.5 12.5t-13.5 30.5q0 17 13.5 30t36.5 13h163v486h-142z" />
    <glyph glyph-name="Ntilde" unicode="&#xd1;" 
d="M504 1528q4 0 16 -2q36 -7 123.5 -52t108.5 -45q9 0 16.5 4t15 14t11.5 16.5t12 21.5t10 20q4 8 17 8q17 0 34 -12t14 -26q-48 -125 -126 -125q-9 0 -27 4q-41 11 -115.5 49t-98.5 44q-3 1 -9 1q-34 0 -63 -68q-6 -12 -22 -12q-14 0 -27.5 8.5t-13.5 19.5q0 45 39.5 88.5
t84.5 43.5zM129 1085q-23 0 -36 12.5t-13 29.5q0 18 13.5 31t36.5 13h287q28 0 40 -24l486 -953v891h-149q-23 0 -36 12.5t-13 29.5q0 18 13.5 31t37.5 13h337q23 0 36.5 -13t13.5 -31q0 -17 -12.5 -29.5t-35.5 -12.5h-96v-1038q0 -31 -14 -47t-35 -16q-36 0 -56 38
l-553 1062v-998h138q23 0 36 -13t13 -30q0 -18 -13 -30.5t-37 -12.5h-358q-24 0 -37 12.5t-13 30.5q0 17 13 30t36 13h126v999h-156z" />
    <glyph glyph-name="Ograve" unicode="&#xd2;" 
d="M822 1385q0 -13 -10 -24t-23 -11q-8 0 -12 4q-58 34 -340 210q-19 13 -19 31q0 21 18 39t40 18q17 0 28 -10q158 -136 308 -236q10 -6 10 -21zM620 1101q-80 0 -149 -29t-117 -79t-82.5 -116t-51 -141t-16.5 -154q0 -98 26.5 -188.5t76 -163.5t131 -117t182.5 -44
t182.5 44t131 117t76 163.5t26.5 188.5q0 79 -16.5 154t-51 141t-82.5 116t-117 79t-149 29zM620 -17q-123 0 -223 51t-161.5 136t-94.5 191t-33 221t33 222t94.5 193t161.5 138t223 52t223 -52t161.5 -138t94.5 -193t33 -222t-33 -221t-94.5 -191t-161.5 -136t-223 -51z
" />
    <glyph glyph-name="Oacute" unicode="&#xd3;" 
d="M791 1588l-322 -234q-4 -4 -11 -4q-9 0 -16.5 6.5t-7.5 15.5q0 8 7 15l271 276q14 14 31 14q23 0 42.5 -20t19.5 -41q0 -18 -14 -28zM620 1101q-80 0 -149 -29t-117 -79t-82.5 -116t-51 -141t-16.5 -154q0 -98 26.5 -188.5t76 -163.5t131 -117t182.5 -44t182.5 44
t131 117t76 163.5t26.5 188.5q0 79 -16.5 154t-51 141t-82.5 116t-117 79t-149 29zM620 -17q-123 0 -223 51t-161.5 136t-94.5 191t-33 221t33 222t94.5 193t161.5 138t223 52t223 -52t161.5 -138t94.5 -193t33 -222t-33 -221t-94.5 -191t-161.5 -136t-223 -51z" />
    <glyph glyph-name="Ocircumflex" unicode="&#xd4;" 
d="M619 1691q25 0 32 -12l184 -283q7 -7 7 -17q0 -12 -11.5 -20.5t-25.5 -8.5q-17 0 -23 9l-163 209l-162 -209q-6 -9 -23 -9q-14 0 -25.5 8.5t-11.5 20.5q0 10 7 17l184 283q8 12 31 12zM620 1101q-80 0 -149 -29t-117 -79t-82.5 -116t-51 -141t-16.5 -154
q0 -98 26.5 -188.5t76 -163.5t131 -117t182.5 -44t182.5 44t131 117t76 163.5t26.5 188.5q0 79 -16.5 154t-51 141t-82.5 116t-117 79t-149 29zM620 -17q-123 0 -223 51t-161.5 136t-94.5 191t-33 221t33 222t94.5 193t161.5 138t223 52t223 -52t161.5 -138t94.5 -193
t33 -222t-33 -221t-94.5 -191t-161.5 -136t-223 -51z" />
    <glyph glyph-name="Otilde" unicode="&#xd5;" 
d="M493 1528q4 0 16 -2q36 -7 123.5 -52t108.5 -45q9 0 16.5 4t15 14t11.5 16.5t12 21.5t10 20q4 8 17 8q17 0 34 -12t14 -26q-48 -125 -126 -125q-9 0 -27 4q-41 11 -115.5 49t-98.5 44q-3 1 -9 1q-34 0 -63 -68q-6 -12 -22 -12q-14 0 -27.5 8.5t-13.5 19.5q0 45 39.5 88.5
t84.5 43.5zM620 1101q-80 0 -149 -29t-117 -79t-82.5 -116t-51 -141t-16.5 -154q0 -98 26.5 -188.5t76 -163.5t131 -117t182.5 -44t182.5 44t131 117t76 163.5t26.5 188.5q0 79 -16.5 154t-51 141t-82.5 116t-117 79t-149 29zM620 -17q-123 0 -223 51t-161.5 136t-94.5 191
t-33 221t33 222t94.5 193t161.5 138t223 52t223 -52t161.5 -138t94.5 -193t33 -222t-33 -221t-94.5 -191t-161.5 -136t-223 -51z" />
    <glyph glyph-name="Odieresis" unicode="&#xd6;" 
d="M787 1515q34 0 58 -24t24 -59q0 -34 -23.5 -58t-58.5 -24t-59 24t-24 58t24 58.5t59 24.5zM452 1515q34 0 58 -24t24 -59q0 -34 -24 -58t-58 -24q-35 0 -59 24t-24 58t24.5 58.5t58.5 24.5zM620 1101q-80 0 -149 -29t-117 -79t-82.5 -116t-51 -141t-16.5 -154
q0 -98 26.5 -188.5t76 -163.5t131 -117t182.5 -44t182.5 44t131 117t76 163.5t26.5 188.5q0 79 -16.5 154t-51 141t-82.5 116t-117 79t-149 29zM620 -17q-123 0 -223 51t-161.5 136t-94.5 191t-33 221t33 222t94.5 193t161.5 138t223 52t223 -52t161.5 -138t94.5 -193
t33 -222t-33 -221t-94.5 -191t-161.5 -136t-223 -51z" />
    <glyph glyph-name="multiply" unicode="&#xd7;" 
d="M919 757q20 0 35 -15t15 -35q0 -21 -15 -36l-184 -183l184 -185q15 -15 15 -35t-15 -35t-35 -15q-21 0 -36 15l-184 184l-183 -184q-15 -15 -36 -15q-20 0 -35 15t-15 35t15 35l183 185l-183 183q-15 15 -15 36q0 20 15 35t35 15q21 0 36 -15l183 -184l184 184
q15 15 36 15z" />
    <glyph glyph-name="Oslash" unicode="&#xd8;" 
d="M620 1101q-80 0 -149 -29t-117 -79t-82.5 -116t-51 -141t-16.5 -154q0 -98 26 -188q26 -91 76 -164q31 -46 75 -80l454 887q-30 21 -66 35q-69 29 -149 29zM295 -172q-9 -20 -30 -20q-15 0 -27 10.5t-12 23.5q0 6 3 12l110 215q-61 43 -103 101q-62 85 -95 191t-33 221
t33 222t94.5 193t161.5 138t223 52t223 -52q17 -9 33 -18l96 188q9 16 27 16q14 0 26 -9t12 -23q0 -8 -4 -15l-101 -198q40 -35 72 -79q62 -86 95 -193t33 -222t-33 -221t-94.5 -191t-161.5 -136t-223 -51q-121 0 -221 50zM440 112q81 -43 180 -43q101 0 182.5 44t131 117
t76 163.5t26.5 188.5q0 79 -16 154q-18 75 -52 141q-34 64 -80 114z" />
    <glyph glyph-name="Ugrave" unicode="&#xd9;" 
d="M851 1385q0 -13 -10 -24t-23 -11q-8 0 -12 4q-58 34 -340 210q-19 13 -19 31q0 21 18 39t40 18q17 0 28 -10q158 -136 308 -236q10 -6 10 -21zM654 -17q-182 0 -293.5 115t-111.5 315v672h-145q-23 0 -36 12.5t-13 29.5q0 18 13.5 31t36.5 13h401q23 0 36.5 -13t13.5 -31
q0 -17 -13 -29.5t-36 -12.5h-162v-672q0 -164 80 -254t229 -90q138 0 222 95.5t84 246.5v674h-121q-23 0 -36.5 12.5t-13.5 29.5q0 18 13.5 31t37.5 13h333q33 0 51.5 -13t18.5 -31q0 -17 -18 -29.5t-51 -12.5h-118v-674q0 -191 -111.5 -309.5t-290.5 -118.5z" />
    <glyph glyph-name="Uacute" unicode="&#xda;" 
d="M820 1588l-322 -234q-4 -4 -11 -4q-9 0 -16.5 6.5t-7.5 15.5q0 8 7 15l271 276q14 14 31 14q23 0 42.5 -20t19.5 -41q0 -18 -14 -28zM654 -17q-182 0 -293.5 115t-111.5 315v672h-145q-23 0 -36 12.5t-13 29.5q0 18 13.5 31t36.5 13h401q23 0 36.5 -13t13.5 -31
q0 -17 -13 -29.5t-36 -12.5h-162v-672q0 -164 80 -254t229 -90q138 0 222 95.5t84 246.5v674h-121q-23 0 -36.5 12.5t-13.5 29.5q0 18 13.5 31t37.5 13h333q33 0 51.5 -13t18.5 -31q0 -17 -18 -29.5t-51 -12.5h-118v-674q0 -191 -111.5 -309.5t-290.5 -118.5z" />
    <glyph glyph-name="Ucircumflex" unicode="&#xdb;" 
d="M649 1691q25 0 32 -12l184 -283q7 -7 7 -17q0 -12 -11.5 -20.5t-25.5 -8.5q-17 0 -23 9l-163 209l-162 -209q-6 -9 -23 -9q-14 0 -25.5 8.5t-11.5 20.5q0 10 7 17l184 283q8 12 31 12zM654 -17q-182 0 -293.5 115t-111.5 315v672h-145q-23 0 -36 12.5t-13 29.5
q0 18 13.5 31t36.5 13h401q23 0 36.5 -13t13.5 -31q0 -17 -13 -29.5t-36 -12.5h-162v-672q0 -164 80 -254t229 -90q138 0 222 95.5t84 246.5v674h-121q-23 0 -36.5 12.5t-13.5 29.5q0 18 13.5 31t37.5 13h333q33 0 51.5 -13t18.5 -31q0 -17 -18 -29.5t-51 -12.5h-118v-674
q0 -191 -111.5 -309.5t-290.5 -118.5z" />
    <glyph glyph-name="Udieresis" unicode="&#xdc;" 
d="M817 1474q34 0 58 -24t24 -59q0 -34 -23.5 -58t-58.5 -24t-59 24t-24 58t24 58.5t59 24.5zM482 1474q34 0 58 -24t24 -59q0 -34 -24 -58t-58 -24q-35 0 -59 24t-24 58t24.5 58.5t58.5 24.5zM654 -17q-182 0 -293.5 115t-111.5 315v672h-145q-23 0 -36 12.5t-13 29.5
q0 18 13.5 31t36.5 13h401q23 0 36.5 -13t13.5 -31q0 -17 -13 -29.5t-36 -12.5h-162v-672q0 -164 80 -254t229 -90q138 0 222 95.5t84 246.5v674h-121q-23 0 -36.5 12.5t-13.5 29.5q0 18 13.5 31t37.5 13h333q33 0 51.5 -13t18.5 -31q0 -17 -18 -29.5t-51 -12.5h-118v-674
q0 -191 -111.5 -309.5t-290.5 -118.5z" />
    <glyph glyph-name="Yacute" unicode="&#xdd;" 
d="M791 1588l-322 -234q-4 -4 -11 -4q-9 0 -16.5 6.5t-7.5 15.5q0 8 7 15l271 276q14 14 31 14q23 0 42.5 -20t19.5 -41q0 -18 -14 -28zM1065 1171q24 0 37.5 -11.5t13.5 -27.5q0 -15 -13 -26t-36 -11h-55l-323 -547v-462h232q23 0 35.5 -12.5t12.5 -29.5q0 -18 -13.5 -31
t-36.5 -13h-585q-24 0 -38 13t-14 31q0 17 13.5 29.5t36.5 12.5h261v467l-335 542h-84q-23 0 -36.5 11.5t-13.5 26.5t14 26.5t37 11.5h330q24 0 37.5 -11.5t13.5 -26.5t-13.5 -26.5t-36.5 -11.5h-136l276 -462l268 462h-111q-23 0 -36.5 11.5t-13.5 26.5t13.5 26.5
t37.5 11.5h261z" />
    <glyph glyph-name="Thorn" unicode="&#xde;" 
d="M1067 619q0 -62 -21.5 -110.5t-52 -79.5t-86.5 -53t-101.5 -33.5t-122.5 -17t-124 -6.5t-130 -1v-236h227q39 0 39 -41t-40 -41h-546q-41 0 -41 41t40 41h225v1003h-212q-39 0 -39 42q0 44 41 44h477q31 0 31 -41q0 -45 -39 -45h-163v-157q89 0 136 -1t126 -6.5
t122.5 -17t99.5 -34t84.5 -54.5t49 -82t20.5 -114zM971 626q0 90 -47.5 137.5t-162 67.5t-332.5 20v-459q311 0 426.5 46.5t115.5 187.5z" />
    <glyph glyph-name="germandbls" unicode="&#xdf;" 
d="M928 894q0 -93 -62 -160.5t-141 -90.5q65 -13 118.5 -35t103 -59t77.5 -96t28 -135q0 -268 -328 -318q-5 -1 -14 -1q-22 0 -34.5 12t-12.5 33q0 14 8 21.5t17 10t36 6.5q48 7 85.5 21.5t72 40.5t53.5 70.5t19 105.5q0 73 -32 127t-87.5 84.5t-119.5 45t-136 14.5
q-23 0 -35 13.5t-12 31.5t12 29.5t35 11.5q42 0 85.5 13.5t82.5 39t63.5 69.5t24.5 99q0 97 -59.5 152.5t-156.5 55.5q-249 0 -249 -400v-624h156q27 0 38 -9.5t11 -34.5q0 -38 -51 -38h-379q-51 0 -51 38q0 25 11 34.5t38 9.5h131v618q0 112 19 198.5t50 140t75.5 88t92 48
t103.5 13.5q132 0 223 -79t91 -215z" />
    <glyph glyph-name="agrave" unicode="&#xe0;" 
d="M900 1011q0 -13 -10 -24t-23 -11q-8 0 -12 4q-58 34 -340 210q-19 13 -19 31q0 21 18 39t40 18q17 0 28 -10q158 -136 308 -236q10 -6 10 -21zM611 731q-121 0 -221 -45q-4 -77 -18 -116t-48 -39q-29 0 -44.5 20t-15.5 52q0 92 97 151t251 59q87 0 146 -24.5t92 -74.5
t46.5 -114.5t13.5 -155.5v-312q0 -35 14 -47.5t38 -12.5q26 0 55 15.5t46 33.5q11 12 24 12q15 0 26 -13t11 -29q0 -15 -10 -25q-70 -73 -160 -73q-51 0 -86 24.5t-47 95.5q-49 -55 -137.5 -92t-192.5 -37q-112 0 -175 61.5t-63 164.5q0 36 9.5 66.5t23.5 53.5t40 41.5
t49 31t62.5 23t67.5 16t76 10.5t78 7.5t82 5.5q49 3 73 5v20q0 117 -45.5 179t-157.5 62zM814 401q-233 -23 -298 -37q-127 -28 -155 -96q-11 -25 -11 -58q0 -76 41.5 -110.5t110.5 -34.5q89 0 173.5 33.5t138.5 90.5v212z" />
    <glyph glyph-name="aacute" unicode="&#xe1;" 
d="M870 1214l-322 -234q-4 -4 -11 -4q-9 0 -16.5 6.5t-7.5 15.5q0 8 7 15l271 276q14 14 31 14q23 0 42.5 -20t19.5 -41q0 -18 -14 -28zM611 731q-121 0 -221 -45q-4 -77 -18 -116t-48 -39q-29 0 -44.5 20t-15.5 52q0 92 97 151t251 59q87 0 146 -24.5t92 -74.5t46.5 -114.5
t13.5 -155.5v-312q0 -35 14 -47.5t38 -12.5q26 0 55 15.5t46 33.5q11 12 24 12q15 0 26 -13t11 -29q0 -15 -10 -25q-70 -73 -160 -73q-51 0 -86 24.5t-47 95.5q-49 -55 -137.5 -92t-192.5 -37q-112 0 -175 61.5t-63 164.5q0 36 9.5 66.5t23.5 53.5t40 41.5t49 31t62.5 23
t67.5 16t76 10.5t78 7.5t82 5.5q49 3 73 5v20q0 117 -45.5 179t-157.5 62zM814 401q-233 -23 -298 -37q-127 -28 -155 -96q-11 -25 -11 -58q0 -76 41.5 -110.5t110.5 -34.5q89 0 173.5 33.5t138.5 90.5v212z" />
    <glyph glyph-name="acircumflex" unicode="&#xe2;" 
d="M698 1317q25 0 32 -12l184 -283q7 -7 7 -17q0 -12 -11.5 -20.5t-25.5 -8.5q-17 0 -23 9l-163 209l-162 -209q-6 -9 -23 -9q-14 0 -25.5 8.5t-11.5 20.5q0 10 7 17l184 283q8 12 31 12zM611 731q-121 0 -221 -45q-4 -77 -18 -116t-48 -39q-29 0 -44.5 20t-15.5 52
q0 92 97 151t251 59q87 0 146 -24.5t92 -74.5t46.5 -114.5t13.5 -155.5v-312q0 -35 14 -47.5t38 -12.5q26 0 55 15.5t46 33.5q11 12 24 12q15 0 26 -13t11 -29q0 -15 -10 -25q-70 -73 -160 -73q-51 0 -86 24.5t-47 95.5q-49 -55 -137.5 -92t-192.5 -37q-112 0 -175 61.5
t-63 164.5q0 36 9.5 66.5t23.5 53.5t40 41.5t49 31t62.5 23t67.5 16t76 10.5t78 7.5t82 5.5q49 3 73 5v20q0 117 -45.5 179t-157.5 62zM814 401q-233 -23 -298 -37q-127 -28 -155 -96q-11 -25 -11 -58q0 -76 41.5 -110.5t110.5 -34.5q89 0 173.5 33.5t138.5 90.5v212z" />
    <glyph glyph-name="atilde" unicode="&#xe3;" 
d="M571 1154q4 0 16 -2q36 -7 123.5 -52t108.5 -45q9 0 16.5 4t15 14t11.5 16.5t12 21.5t10 20q4 8 17 8q17 0 34 -12t14 -26q-48 -125 -126 -125q-9 0 -27 4q-41 11 -115.5 49t-98.5 44q-3 1 -9 1q-34 0 -63 -68q-6 -12 -22 -12q-14 0 -27.5 8.5t-13.5 19.5q0 45 39.5 88.5
t84.5 43.5zM611 731q-121 0 -221 -45q-4 -77 -18 -116t-48 -39q-29 0 -44.5 20t-15.5 52q0 92 97 151t251 59q87 0 146 -24.5t92 -74.5t46.5 -114.5t13.5 -155.5v-312q0 -35 14 -47.5t38 -12.5q26 0 55 15.5t46 33.5q11 12 24 12q15 0 26 -13t11 -29q0 -15 -10 -25
q-70 -73 -160 -73q-51 0 -86 24.5t-47 95.5q-49 -55 -137.5 -92t-192.5 -37q-112 0 -175 61.5t-63 164.5q0 36 9.5 66.5t23.5 53.5t40 41.5t49 31t62.5 23t67.5 16t76 10.5t78 7.5t82 5.5q49 3 73 5v20q0 117 -45.5 179t-157.5 62zM814 401q-233 -23 -298 -37
q-127 -28 -155 -96q-11 -25 -11 -58q0 -76 41.5 -110.5t110.5 -34.5q89 0 173.5 33.5t138.5 90.5v212z" />
    <glyph glyph-name="adieresis" unicode="&#xe4;" 
d="M857 1100q34 0 58 -24t24 -59q0 -34 -23.5 -58t-58.5 -24t-59 24t-24 58t24 58.5t59 24.5zM522 1100q34 0 58 -24t24 -59q0 -34 -24 -58t-58 -24q-35 0 -59 24t-24 58t24.5 58.5t58.5 24.5zM611 731q-121 0 -221 -45q-4 -77 -18 -116t-48 -39q-29 0 -44.5 20t-15.5 52
q0 92 97 151t251 59q87 0 146 -24.5t92 -74.5t46.5 -114.5t13.5 -155.5v-312q0 -35 14 -47.5t38 -12.5q26 0 55 15.5t46 33.5q11 12 24 12q15 0 26 -13t11 -29q0 -15 -10 -25q-70 -73 -160 -73q-51 0 -86 24.5t-47 95.5q-49 -55 -137.5 -92t-192.5 -37q-112 0 -175 61.5
t-63 164.5q0 36 9.5 66.5t23.5 53.5t40 41.5t49 31t62.5 23t67.5 16t76 10.5t78 7.5t82 5.5q49 3 73 5v20q0 117 -45.5 179t-157.5 62zM814 401q-233 -23 -298 -37q-127 -28 -155 -96q-11 -25 -11 -58q0 -76 41.5 -110.5t110.5 -34.5q89 0 173.5 33.5t138.5 90.5v212z" />
    <glyph glyph-name="aring" unicode="&#xe5;" 
d="M701 1316q80 0 124.5 -50t44.5 -119t-46 -120t-126 -51t-125.5 50t-45.5 118q0 69 46.5 120.5t127.5 51.5zM703 1041q46 0 70 29.5t24 74.5t-25.5 75t-71.5 30q-47 0 -72 -30t-25 -75q0 -43 27 -73.5t73 -30.5zM611 731q-121 0 -221 -45q-4 -77 -18 -116t-48 -39
q-29 0 -44.5 20t-15.5 52q0 92 97 151t251 59q87 0 146 -24.5t92 -74.5t46.5 -114.5t13.5 -155.5v-312q0 -35 14 -47.5t38 -12.5q26 0 55 15.5t46 33.5q11 12 24 12q15 0 26 -13t11 -29q0 -15 -10 -25q-70 -73 -160 -73q-51 0 -86 24.5t-47 95.5q-49 -55 -137.5 -92
t-192.5 -37q-112 0 -175 61.5t-63 164.5q0 36 9.5 66.5t23.5 53.5t40 41.5t49 31t62.5 23t67.5 16t76 10.5t78 7.5t82 5.5q49 3 73 5v20q0 117 -45.5 179t-157.5 62zM814 401q-233 -23 -298 -37q-127 -28 -155 -96q-11 -25 -11 -58q0 -76 41.5 -110.5t110.5 -34.5
q89 0 173.5 33.5t138.5 90.5v212z" />
    <glyph glyph-name="ae" unicode="&#xe6;" 
d="M628 129q-39 -69 -118.5 -107.5t-174.5 -38.5q-86 0 -151 61.5t-65 158.5q0 56 13.5 97.5t47 68t65 43t94.5 26t106 13.5t127 8v37q0 115 -34.5 175t-132.5 60q-89 0 -158 -30q-4 -81 -17.5 -125.5t-44.5 -44.5q-27 0 -41.5 20t-14.5 52q0 96 69 153t208 57
q86 0 145.5 -46.5t72.5 -124.5q34 80 98 125.5t147 45.5q106 0 174.5 -84t68.5 -241q0 -37 -19.5 -58.5t-52.5 -21.5l-385 -14q11 -333 229 -333q52 0 80.5 15t83.5 70q20 17 38 17q36 0 36 -36q0 -23 -16 -42q-89 -102 -230 -102q-83 0 -147.5 40t-100.5 106zM658 461
l375 13q-16 257 -163 257q-52 0 -91 -19t-60 -45t-35 -66.5t-18.5 -70t-7.5 -69.5zM352 60q78 0 148.5 34.5t102.5 98.5q-29 89 -30 198q-77 -4 -125 -8.5t-93.5 -13.5t-69.5 -21t-43 -32t-25.5 -47t-6.5 -66q0 -64 40.5 -103.5t101.5 -39.5z" />
    <glyph glyph-name="ccedilla" unicode="&#xe7;" 
d="M600 -4l-41 -321q-5 -42 -22.5 -61t-39.5 -19q-23 0 -36 14.5t-13 39.5q0 17 8 41l107 306h37zM635 813q158 0 251 -60t93 -189q0 -36 -15.5 -58t-44.5 -22t-40 35.5t-21 125.5q-3 27 -5 41q-91 45 -203 45q-175 0 -273 -86t-98 -238q0 -169 93.5 -255.5t251.5 -86.5
q92 0 154 25t124 82q17 16 41 16q35 0 35 -41q0 -23 -18 -42q-52 -57 -147.5 -89.5t-180.5 -32.5q-203 0 -326 113.5t-123 310.5q0 186 129.5 296t322.5 110z" />
    <glyph glyph-name="egrave" unicode="&#xe8;" 
d="M824 970q0 -13 -10 -24t-23 -11q-8 0 -12 4q-58 34 -340 210q-19 13 -19 31q0 21 18 39t40 18q17 0 28 -10q158 -136 308 -236q10 -6 10 -21zM654 813q160 0 260 -87.5t100 -246.5q0 -38 -21 -62.5t-56 -24.5l-629 -5q5 -158 100 -240t249 -82q162 0 277 109q21 17 41 17
q18 0 29 -13t11 -31q0 -23 -18 -42q-52 -56 -149.5 -89t-182.5 -33q-203 0 -328 113.5t-125 310.5q0 94 35 171.5t95.5 128t140.5 78.5t171 28zM311 461l618 4q-2 36 -7.5 66t-23 69.5t-45.5 66t-78.5 45.5t-118.5 19q-146 0 -236.5 -71t-108.5 -199z" />
    <glyph glyph-name="eacute" unicode="&#xe9;" 
d="M793 1173l-322 -234q-4 -4 -11 -4q-9 0 -16.5 6.5t-7.5 15.5q0 8 7 15l271 276q14 14 31 14q23 0 42.5 -20t19.5 -41q0 -18 -14 -28zM654 813q160 0 260 -87.5t100 -246.5q0 -38 -21 -62.5t-56 -24.5l-629 -5q5 -158 100 -240t249 -82q162 0 277 109q21 17 41 17
q18 0 29 -13t11 -31q0 -23 -18 -42q-52 -56 -149.5 -89t-182.5 -33q-203 0 -328 113.5t-125 310.5q0 94 35 171.5t95.5 128t140.5 78.5t171 28zM311 461l618 4q-2 36 -7.5 66t-23 69.5t-45.5 66t-78.5 45.5t-118.5 19q-146 0 -236.5 -71t-108.5 -199z" />
    <glyph glyph-name="ecircumflex" unicode="&#xea;" 
d="M621 1276q25 0 32 -12l184 -283q7 -7 7 -17q0 -12 -11.5 -20.5t-25.5 -8.5q-17 0 -23 9l-163 209l-162 -209q-6 -9 -23 -9q-14 0 -25.5 8.5t-11.5 20.5q0 10 7 17l184 283q8 12 31 12zM654 813q160 0 260 -87.5t100 -246.5q0 -38 -21 -62.5t-56 -24.5l-629 -5
q5 -158 100 -240t249 -82q162 0 277 109q21 17 41 17q18 0 29 -13t11 -31q0 -23 -18 -42q-52 -56 -149.5 -89t-182.5 -33q-203 0 -328 113.5t-125 310.5q0 94 35 171.5t95.5 128t140.5 78.5t171 28zM311 461l618 4q-2 36 -7.5 66t-23 69.5t-45.5 66t-78.5 45.5t-118.5 19
q-146 0 -236.5 -71t-108.5 -199z" />
    <glyph glyph-name="edieresis" unicode="&#xeb;" 
d="M781 1100q34 0 58 -24t24 -59q0 -34 -23.5 -58t-58.5 -24t-59 24t-24 58t24 58.5t59 24.5zM446 1100q34 0 58 -24t24 -59q0 -34 -24 -58t-58 -24q-35 0 -59 24t-24 58t24.5 58.5t58.5 24.5zM654 813q160 0 260 -87.5t100 -246.5q0 -38 -21 -62.5t-56 -24.5l-629 -5
q5 -158 100 -240t249 -82q162 0 277 109q21 17 41 17q18 0 29 -13t11 -31q0 -23 -18 -42q-52 -56 -149.5 -89t-182.5 -33q-203 0 -328 113.5t-125 310.5q0 94 35 171.5t95.5 128t140.5 78.5t171 28zM311 461l618 4q-2 36 -7.5 66t-23 69.5t-45.5 66t-78.5 45.5t-118.5 19
q-146 0 -236.5 -71t-108.5 -199z" />
    <glyph glyph-name="igrave" unicode="&#xec;" 
d="M896 970q0 -13 -10 -24t-23 -11q-8 0 -12 4q-58 34 -340 210q-19 13 -19 31q0 21 18 39t40 18q17 0 28 -10q158 -136 308 -236q10 -6 10 -21zM299 0q-22 0 -34 13t-12 30q0 16 11 27.5t31 11.5h372v637l-333 -45q-2 0 -4 -0.5t-3 -0.5q-19 0 -30 12.5t-11 29.5
q0 36 32 40l398 55q3 1 11 1q16 0 26 -8.5t10 -23.5v-697h333q19 0 29.5 -12.5t10.5 -28.5q0 -17 -11 -29t-30 -12h-796z" />
    <glyph glyph-name="iacute" unicode="&#xed;" 
d="M866 1173l-322 -234q-4 -4 -11 -4q-9 0 -16.5 6.5t-7.5 15.5q0 8 7 15l271 276q14 14 31 14q23 0 42.5 -20t19.5 -41q0 -18 -14 -28zM299 0q-22 0 -34 13t-12 30q0 16 11 27.5t31 11.5h372v637l-333 -45q-2 0 -4 -0.5t-3 -0.5q-19 0 -30 12.5t-11 29.5q0 36 32 40l398 55
q3 1 11 1q16 0 26 -8.5t10 -23.5v-697h333q19 0 29.5 -12.5t10.5 -28.5q0 -17 -11 -29t-30 -12h-796z" />
    <glyph glyph-name="icircumflex" unicode="&#xee;" 
d="M694 1276q25 0 32 -12l184 -283q7 -7 7 -17q0 -12 -11.5 -20.5t-25.5 -8.5q-17 0 -23 9l-163 209l-162 -209q-6 -9 -23 -9q-14 0 -25.5 8.5t-11.5 20.5q0 10 7 17l184 283q8 12 31 12zM299 0q-22 0 -34 13t-12 30q0 16 11 27.5t31 11.5h372v637l-333 -45q-2 0 -4 -0.5
t-3 -0.5q-19 0 -30 12.5t-11 29.5q0 36 32 40l398 55q3 1 11 1q16 0 26 -8.5t10 -23.5v-697h333q19 0 29.5 -12.5t10.5 -28.5q0 -17 -11 -29t-30 -12h-796z" />
    <glyph glyph-name="idieresis" unicode="&#xef;" 
d="M863 1100q34 0 58 -24t24 -59q0 -34 -23.5 -58t-58.5 -24t-59 24t-24 58t24 58.5t59 24.5zM528 1100q34 0 58 -24t24 -59q0 -34 -24 -58t-58 -24q-35 0 -59 24t-24 58t24.5 58.5t58.5 24.5zM299 0q-22 0 -34 13t-12 30q0 16 11 27.5t31 11.5h372v637l-333 -45
q-2 0 -4 -0.5t-3 -0.5q-19 0 -30 12.5t-11 29.5q0 36 32 40l398 55q3 1 11 1q16 0 26 -8.5t10 -23.5v-697h333q19 0 29.5 -12.5t10.5 -28.5q0 -17 -11 -29t-30 -12h-796z" />
    <glyph glyph-name="eth" unicode="&#xf0;" 
d="M703 1116q169 -157 238 -320.5t69 -342.5q0 -221 -102 -345.5t-306 -124.5q-177 0 -283.5 112t-106.5 299q0 189 106 304t289 115q208 0 312 -198q-62 240 -290 450l-137 -94q-10 -7 -21 -7q-16 0 -28.5 13.5t-12.5 30.5q0 18 16 30l119 83q-28 23 -57 44.5t-49.5 35
t-24.5 17.5q-6 4 -6 13q0 17 15.5 37t30.5 20q4 0 9 -3q80 -51 155 -113l139 97q9 6 18 6q17 0 30.5 -15.5t13.5 -33.5q0 -17 -14 -27zM602 65q148 0 230 87.5t82 238.5q0 162 -88.5 251t-217.5 89q-145 0 -222.5 -88.5t-77.5 -251.5q0 -153 82 -239.5t212 -86.5z" />
    <glyph glyph-name="ntilde" unicode="&#xf1;" 
d="M508 1113q4 0 16 -2q36 -7 123.5 -52t108.5 -45q9 0 16.5 4t15 14t11.5 16.5t12 21.5t10 20q4 8 17 8q17 0 34 -12t14 -26q-48 -125 -126 -125q-9 0 -27 4q-41 11 -115.5 49t-98.5 44q-3 1 -9 1q-34 0 -63 -68q-6 -12 -22 -12q-14 0 -27.5 8.5t-13.5 19.5q0 45 39.5 88.5
t84.5 43.5zM714 731q-136 0 -228 -73t-92 -155v-421h105q23 0 35.5 -12t12.5 -28q0 -17 -13.5 -29.5t-36.5 -12.5h-303q-22 0 -34 13t-12 30q0 16 11 27.5t31 11.5h108v627l-108 -22q-11 -3 -20 -3q-17 0 -28 11t-11 27q0 33 33 41l164 33q14 2 18 2q37 0 39 -39l5 -120
q38 75 127 124.5t192 49.5q141 0 211 -73t70 -207v-451h109q19 0 29.5 -12t10.5 -28q0 -17 -11 -29.5t-31 -12.5h-345q-22 0 -34 13t-12 30q0 16 11 27.5t31 11.5h146v458q0 91 -45.5 141t-134.5 50z" />
    <glyph glyph-name="ograve" unicode="&#xf2;" 
d="M822 970q0 -13 -10 -24t-23 -11q-8 0 -12 4q-58 34 -340 210q-19 13 -19 31q0 21 18 39t40 18q17 0 28 -10q158 -136 308 -236q10 -6 10 -21zM620 65q148 0 232 92t84 241t-84 241t-232 92t-232 -92t-84 -241t84 -241t232 -92zM620 813q191 0 307.5 -112t116.5 -303
q0 -189 -116.5 -302t-307.5 -113t-307.5 113t-116.5 302q0 191 116.5 303t307.5 112z" />
    <glyph glyph-name="oacute" unicode="&#xf3;" 
d="M791 1173l-322 -234q-4 -4 -11 -4q-9 0 -16.5 6.5t-7.5 15.5q0 8 7 15l271 276q14 14 31 14q23 0 42.5 -20t19.5 -41q0 -18 -14 -28zM620 65q148 0 232 92t84 241t-84 241t-232 92t-232 -92t-84 -241t84 -241t232 -92zM620 813q191 0 307.5 -112t116.5 -303
q0 -189 -116.5 -302t-307.5 -113t-307.5 113t-116.5 302q0 191 116.5 303t307.5 112z" />
    <glyph glyph-name="ocircumflex" unicode="&#xf4;" 
d="M619 1276q25 0 32 -12l184 -283q7 -7 7 -17q0 -12 -11.5 -20.5t-25.5 -8.5q-17 0 -23 9l-163 209l-162 -209q-6 -9 -23 -9q-14 0 -25.5 8.5t-11.5 20.5q0 10 7 17l184 283q8 12 31 12zM620 65q148 0 232 92t84 241t-84 241t-232 92t-232 -92t-84 -241t84 -241t232 -92z
M620 813q191 0 307.5 -112t116.5 -303q0 -189 -116.5 -302t-307.5 -113t-307.5 113t-116.5 302q0 191 116.5 303t307.5 112z" />
    <glyph glyph-name="otilde" unicode="&#xf5;" 
d="M493 1113q4 0 16 -2q36 -7 123.5 -52t108.5 -45q9 0 16.5 4t15 14t11.5 16.5t12 21.5t10 20q4 8 17 8q17 0 34 -12t14 -26q-48 -125 -126 -125q-9 0 -27 4q-41 11 -115.5 49t-98.5 44q-3 1 -9 1q-34 0 -63 -68q-6 -12 -22 -12q-14 0 -27.5 8.5t-13.5 19.5q0 45 39.5 88.5
t84.5 43.5zM620 65q148 0 232 92t84 241t-84 241t-232 92t-232 -92t-84 -241t84 -241t232 -92zM620 813q191 0 307.5 -112t116.5 -303q0 -189 -116.5 -302t-307.5 -113t-307.5 113t-116.5 302q0 191 116.5 303t307.5 112z" />
    <glyph glyph-name="odieresis" unicode="&#xf6;" 
d="M788 1100q34 0 58 -24t24 -59q0 -34 -23.5 -58t-58.5 -24t-59 24t-24 58t24 58.5t59 24.5zM453 1100q34 0 58 -24t24 -59q0 -34 -24 -58t-58 -24q-35 0 -59 24t-24 58t24.5 58.5t58.5 24.5zM620 65q148 0 232 92t84 241t-84 241t-232 92t-232 -92t-84 -241t84 -241
t232 -92zM620 813q191 0 307.5 -112t116.5 -303q0 -189 -116.5 -302t-307.5 -113t-307.5 113t-116.5 302q0 191 116.5 303t307.5 112z" />
    <glyph glyph-name="divide" unicode="&#xf7;" 
d="M347 596h547q21 0 33 -13.5t12 -33.5t-12 -33.5t-33 -13.5h-547q-22 0 -34 14t-12 35q0 19 11.5 32t34.5 13zM534 823q0 34 24.5 58t59.5 24q34 0 58 -23.5t24 -58.5t-24 -58.5t-58 -23.5q-35 0 -59.5 24t-24.5 58zM534 277q0 34 24.5 58t59.5 24q34 0 58 -23.5t24 -58.5
t-24 -59.5t-58 -24.5t-59 24.5t-25 59.5z" />
    <glyph glyph-name="oslash" unicode="&#xf8;" 
d="M620 65q148 0 232 92t84 241t-84 241q-26 28 -57 47l-289 -605q52 -16 114 -16zM410 -121q-10 -21 -30 -21q-15 0 -24 9t-9 25q0 7 3 13l59 123q-53 26 -97 68q-116 113 -116 302q0 191 116.5 303t307.5 112q84 0 154 -22l60 126q7 17 27 17q33 0 33 -34q0 -6 -3 -12
l-58 -121q53 -26 95 -66q116 -112 116 -303q0 -189 -116.5 -302t-307.5 -113q-82 0 -150 21zM737 714q-52 17 -117 17q-148 0 -232 -92t-84 -241t84 -241q26 -29 59 -49z" />
    <glyph glyph-name="ugrave" unicode="&#xf9;" 
d="M834 1011q0 -13 -10 -24t-23 -11q-8 0 -12 4q-58 34 -340 210q-19 13 -19 31q0 21 18 39t40 18q17 0 28 -10q158 -136 308 -236q10 -6 10 -21zM562 65q90 0 180.5 48.5t123.5 117.5v475l-97 -20q-9 -3 -18 -3q-21 0 -34 13t-13 30q0 32 38 39l174 35q8 2 12 2
q15 0 24.5 -10t9.5 -24v-683l148 11h6q20 0 30 -10t10 -25t-10 -27.5t-28 -16.5l-186 -20h-7q-44 0 -47 50l-5 87q-44 -65 -131 -108t-181 -43q-136 0 -213.5 76.5t-77.5 202.5v444l-98 -20q-6 -2 -17 -2q-20 0 -33 13t-13 30q0 31 36 38l175 35q8 2 12 2q15 0 24.5 -10
t9.5 -24v-509q0 -87 49.5 -140.5t146.5 -53.5z" />
    <glyph glyph-name="uacute" unicode="&#xfa;" 
d="M804 1214l-322 -234q-4 -4 -11 -4q-9 0 -16.5 6.5t-7.5 15.5q0 8 7 15l271 276q14 14 31 14q23 0 42.5 -20t19.5 -41q0 -18 -14 -28zM562 65q90 0 180.5 48.5t123.5 117.5v475l-97 -20q-9 -3 -18 -3q-21 0 -34 13t-13 30q0 32 38 39l174 35q8 2 12 2q15 0 24.5 -10
t9.5 -24v-683l148 11h6q20 0 30 -10t10 -25t-10 -27.5t-28 -16.5l-186 -20h-7q-44 0 -47 50l-5 87q-44 -65 -131 -108t-181 -43q-136 0 -213.5 76.5t-77.5 202.5v444l-98 -20q-6 -2 -17 -2q-20 0 -33 13t-13 30q0 31 36 38l175 35q8 2 12 2q15 0 24.5 -10t9.5 -24v-509
q0 -87 49.5 -140.5t146.5 -53.5z" />
    <glyph glyph-name="ucircumflex" unicode="&#xfb;" 
d="M632 1317q25 0 32 -12l184 -283q7 -7 7 -17q0 -12 -11.5 -20.5t-25.5 -8.5q-17 0 -23 9l-163 209l-162 -209q-6 -9 -23 -9q-14 0 -25.5 8.5t-11.5 20.5q0 10 7 17l184 283q8 12 31 12zM562 65q90 0 180.5 48.5t123.5 117.5v475l-97 -20q-9 -3 -18 -3q-21 0 -34 13t-13 30
q0 32 38 39l174 35q8 2 12 2q15 0 24.5 -10t9.5 -24v-683l148 11h6q20 0 30 -10t10 -25t-10 -27.5t-28 -16.5l-186 -20h-7q-44 0 -47 50l-5 87q-44 -65 -131 -108t-181 -43q-136 0 -213.5 76.5t-77.5 202.5v444l-98 -20q-6 -2 -17 -2q-20 0 -33 13t-13 30q0 31 36 38l175 35
q8 2 12 2q15 0 24.5 -10t9.5 -24v-509q0 -87 49.5 -140.5t146.5 -53.5z" />
    <glyph glyph-name="udieresis" unicode="&#xfc;" 
d="M801 1100q34 0 58 -24t24 -59q0 -34 -23.5 -58t-58.5 -24t-59 24t-24 58t24 58.5t59 24.5zM466 1100q34 0 58 -24t24 -59q0 -34 -24 -58t-58 -24q-35 0 -59 24t-24 58t24.5 58.5t58.5 24.5zM562 65q90 0 180.5 48.5t123.5 117.5v475l-97 -20q-9 -3 -18 -3q-21 0 -34 13
t-13 30q0 32 38 39l174 35q8 2 12 2q15 0 24.5 -10t9.5 -24v-683l148 11h6q20 0 30 -10t10 -25t-10 -27.5t-28 -16.5l-186 -20h-7q-44 0 -47 50l-5 87q-44 -65 -131 -108t-181 -43q-136 0 -213.5 76.5t-77.5 202.5v444l-98 -20q-6 -2 -17 -2q-20 0 -33 13t-13 30q0 31 36 38
l175 35q8 2 12 2q15 0 24.5 -10t9.5 -24v-509q0 -87 49.5 -140.5t146.5 -53.5z" />
    <glyph glyph-name="yacute" unicode="&#xfd;" 
d="M793 1214l-322 -234q-4 -4 -11 -4q-9 0 -16.5 6.5t-7.5 15.5q0 8 7 15l271 276q14 14 31 14q23 0 42.5 -20t19.5 -41q0 -18 -14 -28zM488 774q41 0 41 -42q0 -40 -39 -40h-102l255 -597l228 597h-89q-39 0 -39 40q0 42 40 42h265q46 0 46 -41t-42 -41h-79l-303 -775
q-51 -131 -121.5 -204.5t-177.5 -73.5q-68 0 -68 52q0 48 68 48q55 0 105 37t67 83l54 139q-64 133 -176.5 387t-136.5 307h-93q-41 0 -41 40q0 42 46 42h292z" />
    <glyph glyph-name="thorn" unicode="&#xfe;" 
d="M975 398q0 142 -73.5 237.5t-206.5 95.5q-185 0 -286 -145v-392q103 -129 278 -129q137 0 212.5 96t75.5 237zM409 1150v-460q121 123 288 123q173 0 273.5 -115t100.5 -300q0 -182 -103 -298.5t-275 -116.5q-91 0 -157.5 27t-126.5 79v-377h216q20 0 31 -11.5t11 -27.5
q0 -17 -12 -30t-34 -13h-396q-20 0 -31 12.5t-11 29.5q0 16 10.5 28t29.5 12h90v1370l-169 -24q-2 0 -4.5 -0.5t-3.5 -0.5q-19 0 -29.5 12.5t-10.5 29.5q0 36 32 40l234 42q1 0 4.5 0.5t6.5 0.5q16 0 26 -8.5t10 -23.5z" />
    <glyph glyph-name="ydieresis" unicode="&#xff;" 
d="M790 1100q34 0 58 -24t24 -59q0 -34 -23.5 -58t-58.5 -24t-59 24t-24 58t24 58.5t59 24.5zM455 1100q34 0 58 -24t24 -59q0 -34 -24 -58t-58 -24q-35 0 -59 24t-24 58t24.5 58.5t58.5 24.5zM488 774q41 0 41 -42q0 -40 -39 -40h-102l255 -597l228 597h-89q-39 0 -39 40
q0 42 40 42h265q46 0 46 -41t-42 -41h-79l-303 -775q-51 -131 -121.5 -204.5t-177.5 -73.5q-68 0 -68 52q0 48 68 48q55 0 105 37t67 83l54 139q-64 133 -176.5 387t-136.5 307h-93q-41 0 -41 40q0 42 46 42h292z" />
    <glyph glyph-name="Amacron" unicode="&#x100;" 
d="M810 1350h-362q-51 0 -51 43t50 43h361q49 0 49 -43t-47 -43zM425 475h420l-199 597zM90 0q-24 0 -37 12.5t-13 30.5q0 17 13 30t36 13h85l385 999h-217q-24 0 -37 12.5t-13 30.5q0 17 13 30t36 13h303q58 0 81 -65l362 -1020h79q23 0 35.5 -12.5t12.5 -29.5
q0 -18 -13.5 -31t-36.5 -13h-366q-24 0 -37.5 13t-13.5 31q0 17 13 29.5t36 12.5h186l-107 306h-483l-112 -306h159q23 0 36.5 -13t13.5 -30q0 -18 -13.5 -30.5t-37.5 -12.5h-348z" />
    <glyph glyph-name="amacron" unicode="&#x101;" 
d="M881 976h-362q-51 0 -51 43t50 43h361q49 0 49 -43t-47 -43zM611 731q-121 0 -221 -45q-4 -77 -18 -116t-48 -39q-29 0 -44.5 20t-15.5 52q0 92 97 151t251 59q87 0 146 -24.5t92 -74.5t46.5 -114.5t13.5 -155.5v-312q0 -35 14 -47.5t38 -12.5q26 0 55 15.5t46 33.5
q11 12 24 12q15 0 26 -13t11 -29q0 -15 -10 -25q-70 -73 -160 -73q-51 0 -86 24.5t-47 95.5q-49 -55 -137.5 -92t-192.5 -37q-112 0 -175 61.5t-63 164.5q0 36 9.5 66.5t23.5 53.5t40 41.5t49 31t62.5 23t67.5 16t76 10.5t78 7.5t82 5.5q49 3 73 5v20q0 117 -45.5 179
t-157.5 62zM814 401q-233 -23 -298 -37q-127 -28 -155 -96q-11 -25 -11 -58q0 -76 41.5 -110.5t110.5 -34.5q89 0 173.5 33.5t138.5 90.5v212z" />
    <glyph glyph-name="Abreve" unicode="&#x102;" 
d="M627 1408q48 0 85 27.5t45 76.5q5 16 23 16q12 0 23 -7.5t11 -16.5q0 -44 -20 -76.5t-51 -48t-60 -22.5t-56 -7t-56 7t-60 22.5t-51 48t-20 76.5q0 9 11 16.5t23 7.5q18 0 23 -16q8 -49 45 -76.5t85 -27.5zM425 475h420l-199 597zM90 0q-24 0 -37 12.5t-13 30.5
q0 17 13 30t36 13h85l385 999h-217q-24 0 -37 12.5t-13 30.5q0 17 13 30t36 13h303q58 0 81 -65l362 -1020h79q23 0 35.5 -12.5t12.5 -29.5q0 -18 -13.5 -31t-36.5 -13h-366q-24 0 -37.5 13t-13.5 31q0 17 13 29.5t36 12.5h186l-107 306h-483l-112 -306h159q23 0 36.5 -13
t13.5 -30q0 -18 -13.5 -30.5t-37.5 -12.5h-348z" />
    <glyph glyph-name="abreve" unicode="&#x103;" 
d="M699 1034q48 0 85 27.5t45 76.5q5 16 23 16q12 0 23 -7.5t11 -16.5q0 -44 -20 -76.5t-51 -48t-60 -22.5t-56 -7t-56 7t-60 22.5t-51 48t-20 76.5q0 9 11 16.5t23 7.5q18 0 23 -16q8 -49 45 -76.5t85 -27.5zM611 731q-121 0 -221 -45q-4 -77 -18 -116t-48 -39
q-29 0 -44.5 20t-15.5 52q0 92 97 151t251 59q87 0 146 -24.5t92 -74.5t46.5 -114.5t13.5 -155.5v-312q0 -35 14 -47.5t38 -12.5q26 0 55 15.5t46 33.5q11 12 24 12q15 0 26 -13t11 -29q0 -15 -10 -25q-70 -73 -160 -73q-51 0 -86 24.5t-47 95.5q-49 -55 -137.5 -92
t-192.5 -37q-112 0 -175 61.5t-63 164.5q0 36 9.5 66.5t23.5 53.5t40 41.5t49 31t62.5 23t67.5 16t76 10.5t78 7.5t82 5.5q49 3 73 5v20q0 117 -45.5 179t-157.5 62zM814 401q-233 -23 -298 -37q-127 -28 -155 -96q-11 -25 -11 -58q0 -76 41.5 -110.5t110.5 -34.5
q89 0 173.5 33.5t138.5 90.5v212z" />
    <glyph glyph-name="Aogonek" unicode="&#x104;" 
d="M949 -274q0 -30 17 -39t47 -9h23q4 0 13.5 0.5t14 0t10.5 -1.5t8.5 -4.5t2.5 -8.5q0 -27 -37.5 -52t-84.5 -25q-112 0 -112 110q0 55 48.5 154t126.5 163h41q1 0 -28 -56t-59.5 -128t-30.5 -104zM425 475h420l-199 597zM90 0q-24 0 -37 12.5t-13 30.5q0 17 13 30t36 13
h85l385 999h-217q-24 0 -37 12.5t-13 30.5q0 17 13 30t36 13h303q58 0 81 -65l362 -1020h79q23 0 35.5 -12.5t12.5 -29.5q0 -18 -13.5 -31t-36.5 -13h-366q-24 0 -37.5 13t-13.5 31q0 17 13 29.5t36 12.5h186l-107 306h-483l-112 -306h159q23 0 36.5 -13t13.5 -30
q0 -18 -13.5 -30.5t-37.5 -12.5h-348z" />
    <glyph glyph-name="aogonek" unicode="&#x105;" 
d="M874 -290q0 -30 17 -39t47 -9h23q4 0 13.5 0.5t14 0t10.5 -1.5t8.5 -4.5t2.5 -8.5q0 -27 -37.5 -52t-84.5 -25q-112 0 -112 110q0 55 48.5 154t126.5 163h41q1 0 -28 -56t-59.5 -128t-30.5 -104zM611 731q-121 0 -221 -45q-4 -77 -18 -116t-48 -39q-29 0 -44.5 20
t-15.5 52q0 92 97 151t251 59q87 0 146 -24.5t92 -74.5t46.5 -114.5t13.5 -155.5v-312q0 -35 14 -47.5t38 -12.5q26 0 55 15.5t46 33.5q11 12 24 12q15 0 26 -13t11 -29q0 -15 -10 -25q-70 -73 -160 -73q-51 0 -86 24.5t-47 95.5q-49 -55 -137.5 -92t-192.5 -37
q-112 0 -175 61.5t-63 164.5q0 36 9.5 66.5t23.5 53.5t40 41.5t49 31t62.5 23t67.5 16t76 10.5t78 7.5t82 5.5q49 3 73 5v20q0 117 -45.5 179t-157.5 62zM814 401q-233 -23 -298 -37q-127 -28 -155 -96q-11 -25 -11 -58q0 -76 41.5 -110.5t110.5 -34.5q89 0 173.5 33.5
t138.5 90.5v212z" />
    <glyph glyph-name="Cacute" unicode="&#x106;" 
d="M810 1588l-322 -234q-4 -4 -11 -4q-9 0 -16.5 6.5t-7.5 15.5q0 8 7 15l271 276q14 14 31 14q23 0 42.5 -20t19.5 -41q0 -18 -14 -28zM1145 336q-15 -66 -50.5 -126.5t-92 -112.5t-143 -83t-190.5 -31q-235 0 -386 171t-151 453q0 258 151.5 419t384.5 161
q117 0 215 -48.5t139 -123.5v106q0 23 14.5 36.5t34.5 13.5t34.5 -13.5t14.5 -37.5v-293q0 -23 -13.5 -35t-32.5 -12q-40 0 -48 47q-23 123 -121.5 198.5t-233.5 75.5q-203 0 -323 -140t-120 -361q0 -123 36 -224.5t97 -168t140.5 -102.5t168.5 -36q142 0 240 77t139 213
q10 28 40 28q21 0 39 -13.5t18 -30.5q0 -5 -1 -7z" />
    <glyph glyph-name="cacute" unicode="&#x107;" 
d="M752 1214l-322 -234q-4 -4 -11 -4q-9 0 -16.5 6.5t-7.5 15.5q0 8 7 15l271 276q14 14 31 14q23 0 42.5 -20t19.5 -41q0 -18 -14 -28zM635 813q158 0 251 -60t93 -189q0 -36 -15.5 -58t-44.5 -22t-40 35.5t-21 125.5q-3 27 -5 41q-91 45 -203 45q-175 0 -273 -86t-98 -238
q0 -169 93.5 -255.5t251.5 -86.5q92 0 154 25t124 82q17 16 41 16q35 0 35 -41q0 -23 -18 -42q-52 -57 -147.5 -89.5t-180.5 -32.5q-203 0 -326 113.5t-123 310.5q0 186 129.5 296t322.5 110z" />
    <glyph glyph-name="Ccircumflex" unicode="&#x108;" 
d="M639 1691q25 0 32 -12l184 -283q7 -7 7 -17q0 -12 -11.5 -20.5t-25.5 -8.5q-17 0 -23 9l-163 209l-162 -209q-6 -9 -23 -9q-14 0 -25.5 8.5t-11.5 20.5q0 10 7 17l184 283q8 12 31 12zM1145 336q-15 -66 -50.5 -126.5t-92 -112.5t-143 -83t-190.5 -31q-235 0 -386 171
t-151 453q0 258 151.5 419t384.5 161q117 0 215 -48.5t139 -123.5v106q0 23 14.5 36.5t34.5 13.5t34.5 -13.5t14.5 -37.5v-293q0 -23 -13.5 -35t-32.5 -12q-40 0 -48 47q-23 123 -121.5 198.5t-233.5 75.5q-203 0 -323 -140t-120 -361q0 -123 36 -224.5t97 -168
t140.5 -102.5t168.5 -36q142 0 240 77t139 213q10 28 40 28q21 0 39 -13.5t18 -30.5q0 -5 -1 -7z" />
    <glyph glyph-name="ccircumflex" unicode="&#x109;" 
d="M581 1317q25 0 32 -12l184 -283q7 -7 7 -17q0 -12 -11.5 -20.5t-25.5 -8.5q-17 0 -23 9l-163 209l-162 -209q-6 -9 -23 -9q-14 0 -25.5 8.5t-11.5 20.5q0 10 7 17l184 283q8 12 31 12zM635 813q158 0 251 -60t93 -189q0 -36 -15.5 -58t-44.5 -22t-40 35.5t-21 125.5
q-3 27 -5 41q-91 45 -203 45q-175 0 -273 -86t-98 -238q0 -169 93.5 -255.5t251.5 -86.5q92 0 154 25t124 82q17 16 41 16q35 0 35 -41q0 -23 -18 -42q-52 -57 -147.5 -89.5t-180.5 -32.5q-203 0 -326 113.5t-123 310.5q0 186 129.5 296t322.5 110z" />
    <glyph glyph-name="Cdotaccent" unicode="&#x10a;" 
d="M640 1474q34 0 58 -24t24 -59q0 -34 -24 -58t-58 -24q-35 0 -59 24t-24 58t24.5 58.5t58.5 24.5zM1145 336q-15 -66 -50.5 -126.5t-92 -112.5t-143 -83t-190.5 -31q-235 0 -386 171t-151 453q0 258 151.5 419t384.5 161q117 0 215 -48.5t139 -123.5v106q0 23 14.5 36.5
t34.5 13.5t34.5 -13.5t14.5 -37.5v-293q0 -23 -13.5 -35t-32.5 -12q-40 0 -48 47q-23 123 -121.5 198.5t-233.5 75.5q-203 0 -323 -140t-120 -361q0 -123 36 -224.5t97 -168t140.5 -102.5t168.5 -36q142 0 240 77t139 213q10 28 40 28q21 0 39 -13.5t18 -30.5q0 -5 -1 -7z
" />
    <glyph glyph-name="cdotaccent" unicode="&#x10b;" 
d="M582 1100q34 0 58 -24t24 -59q0 -34 -24 -58t-58 -24q-35 0 -59 24t-24 58t24.5 58.5t58.5 24.5zM635 813q158 0 251 -60t93 -189q0 -36 -15.5 -58t-44.5 -22t-40 35.5t-21 125.5q-3 27 -5 41q-91 45 -203 45q-175 0 -273 -86t-98 -238q0 -169 93.5 -255.5t251.5 -86.5
q92 0 154 25t124 82q17 16 41 16q35 0 35 -41q0 -23 -18 -42q-52 -57 -147.5 -89.5t-180.5 -32.5q-203 0 -326 113.5t-123 310.5q0 186 129.5 296t322.5 110z" />
    <glyph glyph-name="Ccaron" unicode="&#x10c;" 
d="M639 1350q-24 0 -31 11l-184 283q-7 7 -7 17q0 12 11.5 21t25.5 9q17 0 23 -9l162 -209l163 209q6 9 23 9q14 0 25.5 -9t11.5 -21q0 -10 -7 -17l-184 -283q-7 -11 -32 -11zM1145 336q-15 -66 -50.5 -126.5t-92 -112.5t-143 -83t-190.5 -31q-235 0 -386 171t-151 453
q0 258 151.5 419t384.5 161q117 0 215 -48.5t139 -123.5v106q0 23 14.5 36.5t34.5 13.5t34.5 -13.5t14.5 -37.5v-293q0 -23 -13.5 -35t-32.5 -12q-40 0 -48 47q-23 123 -121.5 198.5t-233.5 75.5q-203 0 -323 -140t-120 -361q0 -123 36 -224.5t97 -168t140.5 -102.5
t168.5 -36q142 0 240 77t139 213q10 28 40 28q21 0 39 -13.5t18 -30.5q0 -5 -1 -7z" />
    <glyph glyph-name="ccaron" unicode="&#x10d;" 
d="M581 976q-24 0 -31 11l-184 283q-7 7 -7 17q0 12 11.5 21t25.5 9q17 0 23 -9l162 -209l163 209q6 9 23 9q14 0 25.5 -9t11.5 -21q0 -10 -7 -17l-184 -283q-7 -11 -32 -11zM635 813q158 0 251 -60t93 -189q0 -36 -15.5 -58t-44.5 -22t-40 35.5t-21 125.5q-3 27 -5 41
q-91 45 -203 45q-175 0 -273 -86t-98 -238q0 -169 93.5 -255.5t251.5 -86.5q92 0 154 25t124 82q17 16 41 16q35 0 35 -41q0 -23 -18 -42q-52 -57 -147.5 -89.5t-180.5 -32.5q-203 0 -326 113.5t-123 310.5q0 186 129.5 296t322.5 110z" />
    <glyph glyph-name="Dcaron" unicode="&#x10e;" 
d="M592 1350q-24 0 -31 11l-184 283q-7 7 -7 17q0 12 11.5 21t25.5 9q17 0 23 -9l162 -209l163 209q6 9 23 9q14 0 25.5 -9t11.5 -21q0 -10 -7 -17l-184 -283q-7 -11 -32 -11zM988 591q0 238 -117.5 366t-336.5 128h-124v-999h110q244 0 356 124.5t112 380.5zM1084 591
q0 -308 -145.5 -449.5t-425.5 -141.5h-361q-24 0 -37.5 12.5t-13.5 30.5q0 17 13.5 30t36.5 13h163v999h-159q-23 0 -35.5 12.5t-12.5 29.5q0 18 13.5 31t36.5 13h358q267 0 418 -144t151 -436z" />
    <glyph glyph-name="dcaron" unicode="&#x10f;" 
d="M1500 1180q48 0 80 -32t32 -89q0 -81 -58 -156.5t-127 -110.5q-3 -2 -10 -2q-11 0 -19.5 8.5t-8.5 18.5q0 12 12 21q109 79 109 154q-47 0 -77.5 23.5t-30.5 69.5q0 45 29.5 70t68.5 25zM289 398q0 -142 75 -237.5t209 -95.5q181 0 282 145v392q-103 129 -278 129
q-137 0 -212.5 -96t-75.5 -237zM867 47l-3 60q-46 -55 -123.5 -89.5t-169.5 -34.5q-174 0 -276 115.5t-102 299.5q0 182 103 298.5t275 116.5q91 0 157.5 -27t126.5 -79v384l-128 -8q-1 0 -8.5 -1.5t-11.5 -1.5q-17 0 -28 11t-11 27q0 34 33 41l189 19q16 2 20 2
q41 0 41 -39v-1056l148 11h6q20 0 30 -10t10 -25t-10 -27.5t-28 -16.5l-186 -20h-7q-44 0 -47 50z" />
    <glyph glyph-name="Dcroat" unicode="&#x110;" 
d="M978 591q0 239 -113 366.5t-331 127.5h-114v-437h187q39 0 39 -37q0 -39 -41 -39h-185v-486h100q243 0 350.5 124t107.5 381zM172 572q-46 0 -46 39q0 37 42 37h146v437h-159q-23 0 -35.5 12.5t-12.5 29.5q0 18 13.5 31t36.5 13h358q267 0 418 -144t151 -436
q0 -308 -145.5 -449.5t-425.5 -141.5h-361q-24 0 -37.5 12.5t-13.5 30.5q0 17 13.5 30t36.5 13h163v486h-142z" />
    <glyph glyph-name="dcroat" unicode="&#x111;" 
d="M289 398q0 -142 75 -237.5t209 -95.5q181 0 282 145v392q-103 129 -278 129q-137 0 -212.5 -96t-75.5 -237zM867 47l-3 60q-46 -55 -123.5 -89.5t-169.5 -34.5q-174 0 -276 115.5t-102 299.5q0 182 103 298.5t275 116.5q91 0 157.5 -27t126.5 -79v200h-194
q-28 0 -39.5 8.5t-11.5 28.5t12 27.5t38 7.5h195v112l-128 -8q-1 0 -8.5 -1.5t-11.5 -1.5q-17 0 -28 11t-11 27q0 34 33 41l189 19q16 2 20 2q41 0 41 -39v-162h70q26 0 37.5 -7.5t11.5 -27.5t-11 -28.5t-36 -8.5h-72v-822l148 11h6q20 0 30 -10t10 -25t-10 -27.5t-28 -16.5
l-186 -20h-7q-44 0 -47 50z" />
    <glyph glyph-name="Emacron" unicode="&#x112;" 
d="M803 1350h-362q-51 0 -51 43t50 43h361q49 0 49 -43t-47 -43zM837 437q0 -25 -11 -38t-27 -13q-15 0 -27 11.5t-13 31.5l-13 148h-326v-492h615l16 251q1 17 14 28t30 11t29.5 -13.5t12.5 -38.5v-270q0 -25 -15.5 -39t-40.5 -14h-926q-24 0 -37.5 13t-13.5 30t13.5 29.5
t36.5 12.5h170v1000h-135q-23 0 -35.5 12.5t-12.5 29.5q0 18 13.5 31t36.5 13h878q25 0 40.5 -14.5t15.5 -39.5v-270q0 -21 -12 -32.5t-28 -11.5t-28.5 10t-13.5 28l-14 244h-609v-431h326l13 133q2 21 13.5 33t26.5 12q16 0 27 -13.5t11 -39.5v-342z" />
    <glyph glyph-name="emacron" unicode="&#x113;" 
d="M805 976h-362q-51 0 -51 43t50 43h361q49 0 49 -43t-47 -43zM654 813q160 0 260 -87.5t100 -246.5q0 -38 -21 -62.5t-56 -24.5l-629 -5q5 -158 100 -240t249 -82q162 0 277 109q21 17 41 17q18 0 29 -13t11 -31q0 -23 -18 -42q-52 -56 -149.5 -89t-182.5 -33
q-203 0 -328 113.5t-125 310.5q0 94 35 171.5t95.5 128t140.5 78.5t171 28zM311 461l618 4q-2 36 -7.5 66t-23 69.5t-45.5 66t-78.5 45.5t-118.5 19q-146 0 -236.5 -71t-108.5 -199z" />
    <glyph glyph-name="Ebreve" unicode="&#x114;" 
d="M621 1408q48 0 85 27.5t45 76.5q5 16 23 16q12 0 23 -7.5t11 -16.5q0 -44 -20 -76.5t-51 -48t-60 -22.5t-56 -7t-56 7t-60 22.5t-51 48t-20 76.5q0 9 11 16.5t23 7.5q18 0 23 -16q8 -49 45 -76.5t85 -27.5zM837 437q0 -25 -11 -38t-27 -13q-15 0 -27 11.5t-13 31.5
l-13 148h-326v-492h615l16 251q1 17 14 28t30 11t29.5 -13.5t12.5 -38.5v-270q0 -25 -15.5 -39t-40.5 -14h-926q-24 0 -37.5 13t-13.5 30t13.5 29.5t36.5 12.5h170v1000h-135q-23 0 -35.5 12.5t-12.5 29.5q0 18 13.5 31t36.5 13h878q25 0 40.5 -14.5t15.5 -39.5v-270
q0 -21 -12 -32.5t-28 -11.5t-28.5 10t-13.5 28l-14 244h-609v-431h326l13 133q2 21 13.5 33t26.5 12q16 0 27 -13.5t11 -39.5v-342z" />
    <glyph glyph-name="ebreve" unicode="&#x115;" 
d="M621 1034q48 0 85 27.5t45 76.5q5 16 23 16q12 0 23 -7.5t11 -16.5q0 -44 -20 -76.5t-51 -48t-60 -22.5t-56 -7t-56 7t-60 22.5t-51 48t-20 76.5q0 9 11 16.5t23 7.5q18 0 23 -16q8 -49 45 -76.5t85 -27.5zM654 813q160 0 260 -87.5t100 -246.5q0 -38 -21 -62.5
t-56 -24.5l-629 -5q5 -158 100 -240t249 -82q162 0 277 109q21 17 41 17q18 0 29 -13t11 -31q0 -23 -18 -42q-52 -56 -149.5 -89t-182.5 -33q-203 0 -328 113.5t-125 310.5q0 94 35 171.5t95.5 128t140.5 78.5t171 28zM311 461l618 4q-2 36 -7.5 66t-23 69.5t-45.5 66
t-78.5 45.5t-118.5 19q-146 0 -236.5 -71t-108.5 -199z" />
    <glyph glyph-name="Edotaccent" unicode="&#x116;" 
d="M621 1474q34 0 58 -24t24 -59q0 -34 -24 -58t-58 -24q-35 0 -59 24t-24 58t24.5 58.5t58.5 24.5zM837 437q0 -25 -11 -38t-27 -13q-15 0 -27 11.5t-13 31.5l-13 148h-326v-492h615l16 251q1 17 14 28t30 11t29.5 -13.5t12.5 -38.5v-270q0 -25 -15.5 -39t-40.5 -14h-926
q-24 0 -37.5 13t-13.5 30t13.5 29.5t36.5 12.5h170v1000h-135q-23 0 -35.5 12.5t-12.5 29.5q0 18 13.5 31t36.5 13h878q25 0 40.5 -14.5t15.5 -39.5v-270q0 -21 -12 -32.5t-28 -11.5t-28.5 10t-13.5 28l-14 244h-609v-431h326l13 133q2 21 13.5 33t26.5 12q16 0 27 -13.5
t11 -39.5v-342z" />
    <glyph glyph-name="edotaccent" unicode="&#x117;" 
d="M614 1100q34 0 58 -24t24 -59q0 -34 -24 -58t-58 -24q-35 0 -59 24t-24 58t24.5 58.5t58.5 24.5zM654 813q160 0 260 -87.5t100 -246.5q0 -38 -21 -62.5t-56 -24.5l-629 -5q5 -158 100 -240t249 -82q162 0 277 109q21 17 41 17q18 0 29 -13t11 -31q0 -23 -18 -42
q-52 -56 -149.5 -89t-182.5 -33q-203 0 -328 113.5t-125 310.5q0 94 35 171.5t95.5 128t140.5 78.5t171 28zM311 461l618 4q-2 36 -7.5 66t-23 69.5t-45.5 66t-78.5 45.5t-118.5 19q-146 0 -236.5 -71t-108.5 -199z" />
    <glyph glyph-name="Eogonek" unicode="&#x118;" 
d="M661 -274q0 -30 17 -39t47 -9h23q4 0 13.5 0.5t14 0t10.5 -1.5t8.5 -4.5t2.5 -8.5q0 -27 -37.5 -52t-84.5 -25q-112 0 -112 110q0 55 48.5 154t126.5 163h41q1 0 -28 -56t-59.5 -128t-30.5 -104zM837 437q0 -25 -11 -38t-27 -13q-15 0 -27 11.5t-13 31.5l-13 148h-326
v-492h615l16 251q1 17 14 28t30 11t29.5 -13.5t12.5 -38.5v-270q0 -25 -15.5 -39t-40.5 -14h-926q-24 0 -37.5 13t-13.5 30t13.5 29.5t36.5 12.5h170v1000h-135q-23 0 -35.5 12.5t-12.5 29.5q0 18 13.5 31t36.5 13h878q25 0 40.5 -14.5t15.5 -39.5v-270q0 -21 -12 -32.5
t-28 -11.5t-28.5 10t-13.5 28l-14 244h-609v-431h326l13 133q2 21 13.5 33t26.5 12q16 0 27 -13.5t11 -39.5v-342z" />
    <glyph glyph-name="eogonek" unicode="&#x119;" 
d="M652 -291q0 -30 17 -39t47 -9h23q4 0 13.5 0.5t14 0t10.5 -1.5t8.5 -4.5t2.5 -8.5q0 -27 -37.5 -52t-84.5 -25q-112 0 -112 110q0 55 48.5 154t126.5 163h41q1 0 -28 -56t-59.5 -128t-30.5 -104zM654 813q160 0 260 -87.5t100 -246.5q0 -38 -21 -62.5t-56 -24.5l-629 -5
q5 -158 100 -240t249 -82q162 0 277 109q21 17 41 17q18 0 29 -13t11 -31q0 -23 -18 -42q-52 -56 -149.5 -89t-182.5 -33q-203 0 -328 113.5t-125 310.5q0 94 35 171.5t95.5 128t140.5 78.5t171 28zM311 461l618 4q-2 36 -7.5 66t-23 69.5t-45.5 66t-78.5 45.5t-118.5 19
q-146 0 -236.5 -71t-108.5 -199z" />
    <glyph glyph-name="Ecaron" unicode="&#x11a;" 
d="M620 1350q-24 0 -31 11l-184 283q-7 7 -7 17q0 12 11.5 21t25.5 9q17 0 23 -9l162 -209l163 209q6 9 23 9q14 0 25.5 -9t11.5 -21q0 -10 -7 -17l-184 -283q-7 -11 -32 -11zM837 437q0 -25 -11 -38t-27 -13q-15 0 -27 11.5t-13 31.5l-13 148h-326v-492h615l16 251
q1 17 14 28t30 11t29.5 -13.5t12.5 -38.5v-270q0 -25 -15.5 -39t-40.5 -14h-926q-24 0 -37.5 13t-13.5 30t13.5 29.5t36.5 12.5h170v1000h-135q-23 0 -35.5 12.5t-12.5 29.5q0 18 13.5 31t36.5 13h878q25 0 40.5 -14.5t15.5 -39.5v-270q0 -21 -12 -32.5t-28 -11.5t-28.5 10
t-13.5 28l-14 244h-609v-431h326l13 133q2 21 13.5 33t26.5 12q16 0 27 -13.5t11 -39.5v-342z" />
    <glyph glyph-name="ecaron" unicode="&#x11b;" 
d="M621 976q-24 0 -31 11l-184 283q-7 7 -7 17q0 12 11.5 21t25.5 9q17 0 23 -9l162 -209l163 209q6 9 23 9q14 0 25.5 -9t11.5 -21q0 -10 -7 -17l-184 -283q-7 -11 -32 -11zM654 813q160 0 260 -87.5t100 -246.5q0 -38 -21 -62.5t-56 -24.5l-629 -5q5 -158 100 -240
t249 -82q162 0 277 109q21 17 41 17q18 0 29 -13t11 -31q0 -23 -18 -42q-52 -56 -149.5 -89t-182.5 -33q-203 0 -328 113.5t-125 310.5q0 94 35 171.5t95.5 128t140.5 78.5t171 28zM311 461l618 4q-2 36 -7.5 66t-23 69.5t-45.5 66t-78.5 45.5t-118.5 19q-146 0 -236.5 -71
t-108.5 -199z" />
    <glyph glyph-name="Gcircumflex" unicode="&#x11c;" 
d="M641 1691q25 0 32 -12l184 -283q7 -7 7 -17q0 -12 -11.5 -20.5t-25.5 -8.5q-17 0 -23 9l-163 209l-162 -209q-6 -9 -23 -9q-14 0 -25.5 8.5t-11.5 20.5q0 10 7 17l184 283q8 12 31 12zM1083 510v-461q0 -27 -14 -42t-33 -15q-20 0 -34.5 15.5t-14.5 43.5v124
q-38 -85 -143 -138.5t-238 -53.5q-233 0 -375 169.5t-142 454.5q0 260 142.5 420t373.5 160q117 0 215 -48.5t139 -123.5v106q0 23 14.5 36.5t34.5 13.5t34.5 -13.5t14.5 -37.5v-293q0 -23 -13.5 -35t-32.5 -12q-40 0 -48 47q-23 123 -121.5 198.5t-233.5 75.5
q-201 0 -312 -138.5t-111 -362.5q0 -246 120 -388.5t302 -142.5q149 0 245.5 72t134.5 191v178h-124q-23 0 -36.5 13t-13.5 31q0 17 13 29.5t36 12.5h284q23 0 36 -12.5t13 -29.5q0 -18 -13.5 -31t-37.5 -13h-61z" />
    <glyph glyph-name="gcircumflex" unicode="&#x11d;" 
d="M722 1381q25 0 32 -12l184 -283q7 -7 7 -17q0 -12 -11.5 -20.5t-25.5 -8.5q-17 0 -23 9l-163 209l-162 -209q-6 -9 -23 -9q-14 0 -25.5 8.5t-11.5 20.5q0 10 7 17l184 283q8 12 31 12zM548 109h93q91 0 151 -8.5t108.5 -32t71 -68.5t22.5 -114q0 -78 -61 -133t-151 -79
t-197 -24q-50 0 -92.5 5.5t-83 20t-69 37t-45.5 58.5t-17 82q0 72 33 125.5t86 79.5q-94 45 -94 127q0 53 49 96.5t96 49.5q-86 35 -129 83.5t-43 130.5q0 131 92.5 199.5t230.5 68.5q144 0 239 -79l152 101q62 42 121 42q58 0 58 -51t-133 -51l-169 -74q57 -71 57 -161
q0 -131 -83.5 -192t-252.5 -61q-78 0 -133.5 -28.5t-55.5 -68.5q0 -39 29.5 -60t119.5 -21zM460 37q-29 -11 -57.5 -63.5t-28.5 -95.5q0 -83 50.5 -114.5t158.5 -31.5q57 0 109.5 7.5t100.5 24t76.5 47t28.5 71.5q0 91 -54 123t-200 32h-184zM828 534q0 102 -65 149.5
t-166 47.5q-99 0 -162 -47t-63 -142q0 -88 61.5 -134.5t157.5 -46.5q237 0 237 173z" />
    <glyph glyph-name="Gbreve" unicode="&#x11e;" 
d="M642 1408q48 0 85 27.5t45 76.5q5 16 23 16q12 0 23 -7.5t11 -16.5q0 -44 -20 -76.5t-51 -48t-60 -22.5t-56 -7t-56 7t-60 22.5t-51 48t-20 76.5q0 9 11 16.5t23 7.5q18 0 23 -16q8 -49 45 -76.5t85 -27.5zM1083 510v-461q0 -27 -14 -42t-33 -15q-20 0 -34.5 15.5
t-14.5 43.5v124q-38 -85 -143 -138.5t-238 -53.5q-233 0 -375 169.5t-142 454.5q0 260 142.5 420t373.5 160q117 0 215 -48.5t139 -123.5v106q0 23 14.5 36.5t34.5 13.5t34.5 -13.5t14.5 -37.5v-293q0 -23 -13.5 -35t-32.5 -12q-40 0 -48 47q-23 123 -121.5 198.5
t-233.5 75.5q-201 0 -312 -138.5t-111 -362.5q0 -246 120 -388.5t302 -142.5q149 0 245.5 72t134.5 191v178h-124q-23 0 -36.5 13t-13.5 31q0 17 13 29.5t36 12.5h284q23 0 36 -12.5t13 -29.5q0 -18 -13.5 -31t-37.5 -13h-61z" />
    <glyph glyph-name="gbreve" unicode="&#x11f;" 
d="M723 1098q48 0 85 27.5t45 76.5q5 16 23 16q12 0 23 -7.5t11 -16.5q0 -44 -20 -76.5t-51 -48t-60 -22.5t-56 -7t-56 7t-60 22.5t-51 48t-20 76.5q0 9 11 16.5t23 7.5q18 0 23 -16q8 -49 45 -76.5t85 -27.5zM548 109h93q91 0 151 -8.5t108.5 -32t71 -68.5t22.5 -114
q0 -78 -61 -133t-151 -79t-197 -24q-50 0 -92.5 5.5t-83 20t-69 37t-45.5 58.5t-17 82q0 72 33 125.5t86 79.5q-94 45 -94 127q0 53 49 96.5t96 49.5q-86 35 -129 83.5t-43 130.5q0 131 92.5 199.5t230.5 68.5q144 0 239 -79l152 101q62 42 121 42q58 0 58 -51t-133 -51
l-169 -74q57 -71 57 -161q0 -131 -83.5 -192t-252.5 -61q-78 0 -133.5 -28.5t-55.5 -68.5q0 -39 29.5 -60t119.5 -21zM460 37q-29 -11 -57.5 -63.5t-28.5 -95.5q0 -83 50.5 -114.5t158.5 -31.5q57 0 109.5 7.5t100.5 24t76.5 47t28.5 71.5q0 91 -54 123t-200 32h-184z
M828 534q0 102 -65 149.5t-166 47.5q-99 0 -162 -47t-63 -142q0 -88 61.5 -134.5t157.5 -46.5q237 0 237 173z" />
    <glyph glyph-name="Gdotaccent" unicode="&#x120;" 
d="M642 1474q34 0 58 -24t24 -59q0 -34 -24 -58t-58 -24q-35 0 -59 24t-24 58t24.5 58.5t58.5 24.5zM1083 510v-461q0 -27 -14 -42t-33 -15q-20 0 -34.5 15.5t-14.5 43.5v124q-38 -85 -143 -138.5t-238 -53.5q-233 0 -375 169.5t-142 454.5q0 260 142.5 420t373.5 160
q117 0 215 -48.5t139 -123.5v106q0 23 14.5 36.5t34.5 13.5t34.5 -13.5t14.5 -37.5v-293q0 -23 -13.5 -35t-32.5 -12q-40 0 -48 47q-23 123 -121.5 198.5t-233.5 75.5q-201 0 -312 -138.5t-111 -362.5q0 -246 120 -388.5t302 -142.5q149 0 245.5 72t134.5 191v178h-124
q-23 0 -36.5 13t-13.5 31q0 17 13 29.5t36 12.5h284q23 0 36 -12.5t13 -29.5q0 -18 -13.5 -31t-37.5 -13h-61z" />
    <glyph glyph-name="gdotaccent" unicode="&#x121;" 
d="M723 1164q34 0 58 -24t24 -59q0 -34 -24 -58t-58 -24q-35 0 -59 24t-24 58t24.5 58.5t58.5 24.5zM548 109h93q91 0 151 -8.5t108.5 -32t71 -68.5t22.5 -114q0 -78 -61 -133t-151 -79t-197 -24q-50 0 -92.5 5.5t-83 20t-69 37t-45.5 58.5t-17 82q0 72 33 125.5t86 79.5
q-94 45 -94 127q0 53 49 96.5t96 49.5q-86 35 -129 83.5t-43 130.5q0 131 92.5 199.5t230.5 68.5q144 0 239 -79l152 101q62 42 121 42q58 0 58 -51t-133 -51l-169 -74q57 -71 57 -161q0 -131 -83.5 -192t-252.5 -61q-78 0 -133.5 -28.5t-55.5 -68.5q0 -39 29.5 -60
t119.5 -21zM460 37q-29 -11 -57.5 -63.5t-28.5 -95.5q0 -83 50.5 -114.5t158.5 -31.5q57 0 109.5 7.5t100.5 24t76.5 47t28.5 71.5q0 91 -54 123t-200 32h-184zM828 534q0 102 -65 149.5t-166 47.5q-99 0 -162 -47t-63 -142q0 -88 61.5 -134.5t157.5 -46.5q237 0 237 173z
" />
    <glyph glyph-name="Gcommaaccent" unicode="&#x122;" 
d="M651 -180q102 0 102 -109q0 -81 -58 -156.5t-127 -110.5q-3 -2 -10 -2q-11 0 -19.5 8.5t-8.5 18.5q0 12 12 21q123 89 123 154q-47 0 -76.5 22.5t-29.5 68.5q0 45 26 65t66 20zM1083 510v-461q0 -27 -14 -42t-33 -15q-20 0 -34.5 15.5t-14.5 43.5v124
q-38 -85 -143 -138.5t-238 -53.5q-233 0 -375 169.5t-142 454.5q0 260 142.5 420t373.5 160q117 0 215 -48.5t139 -123.5v106q0 23 14.5 36.5t34.5 13.5t34.5 -13.5t14.5 -37.5v-293q0 -23 -13.5 -35t-32.5 -12q-40 0 -48 47q-23 123 -121.5 198.5t-233.5 75.5
q-201 0 -312 -138.5t-111 -362.5q0 -246 120 -388.5t302 -142.5q149 0 245.5 72t134.5 191v178h-124q-23 0 -36.5 13t-13.5 31q0 17 13 29.5t36 12.5h284q23 0 36 -12.5t13 -29.5q0 -18 -13.5 -31t-37.5 -13h-61z" />
    <glyph glyph-name="gcommaaccent" unicode="&#x123;" 
d="M627 1009q-102 0 -102 109q0 81 58 156.5t127 110.5q3 2 10 2q11 0 19.5 -8.5t8.5 -18.5q0 -12 -12 -21q-123 -89 -123 -154q47 0 76.5 -22.5t29.5 -68.5q0 -45 -26 -65t-66 -20zM548 109h93q91 0 151 -8.5t108.5 -32t71 -68.5t22.5 -114q0 -78 -61 -133t-151 -79
t-197 -24q-50 0 -92.5 5.5t-83 20t-69 37t-45.5 58.5t-17 82q0 72 33 125.5t86 79.5q-94 45 -94 127q0 53 49 96.5t96 49.5q-86 35 -129 83.5t-43 130.5q0 131 92.5 199.5t230.5 68.5q144 0 239 -79l152 101q62 42 121 42q58 0 58 -51t-133 -51l-169 -74q57 -71 57 -161
q0 -131 -83.5 -192t-252.5 -61q-78 0 -133.5 -28.5t-55.5 -68.5q0 -39 29.5 -60t119.5 -21zM460 37q-29 -11 -57.5 -63.5t-28.5 -95.5q0 -83 50.5 -114.5t158.5 -31.5q57 0 109.5 7.5t100.5 24t76.5 47t28.5 71.5q0 91 -54 123t-200 32h-184zM828 534q0 102 -65 149.5
t-166 47.5q-99 0 -162 -47t-63 -142q0 -88 61.5 -134.5t157.5 -46.5q237 0 237 173z" />
    <glyph glyph-name="Hcircumflex" unicode="&#x124;" 
d="M619 1691q25 0 32 -12l184 -283q7 -7 7 -17q0 -12 -11.5 -20.5t-25.5 -8.5q-17 0 -23 9l-163 209l-162 -209q-6 -9 -23 -9q-14 0 -25.5 8.5t-11.5 20.5q0 10 7 17l184 283q8 12 31 12zM143 0q-23 0 -36.5 13t-13.5 31q0 17 12.5 29.5t35.5 12.5h124v999h-108
q-24 0 -37 12.5t-13 30.5q0 17 13.5 30t36.5 13h302q23 0 36.5 -13t13.5 -31q0 -17 -12.5 -29.5t-35.5 -12.5h-100v-447h540v447h-100q-23 0 -35.5 12.5t-12.5 29.5q0 18 13.5 31t36.5 13h294q23 0 36.5 -12.5t13.5 -28.5q0 -18 -13.5 -31.5t-36.5 -13.5h-100v-999h100
q24 0 37 -12.5t13 -30.5q0 -17 -13.5 -30t-36.5 -13h-294q-23 0 -36.5 13t-13.5 31q0 17 12.5 29.5t35.5 12.5h100v472h-540v-472h100q23 0 35.5 -12t12.5 -28q0 -19 -13.5 -32.5t-36.5 -13.5h-316z" />
    <glyph glyph-name="hcircumflex" unicode="&#x125;" 
d="M635 1684q25 0 32 -12l184 -283q7 -7 7 -17q0 -12 -11.5 -20.5t-25.5 -8.5q-17 0 -23 9l-163 209l-162 -209q-6 -9 -23 -9q-14 0 -25.5 8.5t-11.5 20.5q0 10 7 17l184 283q8 12 31 12zM716 731q-136 0 -228 -74.5t-92 -159.5v-415h105q23 0 35.5 -12t12.5 -28
q0 -17 -13.5 -29.5t-36.5 -12.5h-303q-22 0 -34 13t-12 30q0 16 11 27.5t31 11.5h108v1009l-148 -9q-17 -1 -28 9.5t-11 26.5q0 14 8.5 27t24.5 14l189 19q16 2 20 2q41 0 41 -39v-502q38 75 125.5 124.5t189.5 49.5q141 0 211 -73t70 -207v-451h109q19 0 29.5 -12t10.5 -28
q0 -17 -11 -29.5t-31 -12.5h-345q-22 0 -34 13t-12 30q0 16 11 27.5t31 11.5h146v458q0 91 -45.5 141t-134.5 50z" />
    <glyph glyph-name="Hbar" unicode="&#x126;" 
d="M143 0q-23 0 -36.5 13t-13.5 31q0 17 12.5 29.5t35.5 12.5h124v769h-112q-46 0 -46 39q0 37 42 37h116v154h-108q-24 0 -37 12.5t-13 30.5q0 17 13.5 30t36.5 13h302q23 0 36.5 -13t13.5 -31q0 -17 -12.5 -29.5t-35.5 -12.5h-100v-154h540v154h-100q-23 0 -35.5 12.5
t-12.5 29.5q0 18 13.5 31t36.5 13h294q23 0 36.5 -12.5t13.5 -28.5q0 -18 -13.5 -31.5t-36.5 -13.5h-100v-154h111q39 0 39 -37q0 -39 -41 -39h-109v-769h100q24 0 37 -12.5t13 -30.5q0 -17 -13.5 -30t-36.5 -13h-294q-23 0 -36.5 13t-13.5 31q0 17 12.5 29.5t35.5 12.5h100
v472h-540v-472h100q23 0 35.5 -12t12.5 -28q0 -19 -13.5 -32.5t-36.5 -13.5h-316zM361 855v-217h540v217h-540z" />
    <glyph glyph-name="hbar" unicode="&#x127;" 
d="M716 731q-136 0 -228 -74.5t-92 -159.5v-415h105q23 0 35.5 -12t12.5 -28q0 -17 -13.5 -29.5t-36.5 -12.5h-303q-22 0 -34 13t-12 30q0 16 11 27.5t31 11.5h108v825h-120q-28 0 -39.5 8.5t-11.5 28.5t12 27.5t38 7.5h121v112l-148 -9q-17 -1 -28 9.5t-11 26.5
q0 14 8.5 27t24.5 14l189 19q16 2 20 2q41 0 41 -39v-162h144q26 0 37.5 -7.5t11.5 -27.5t-11 -28.5t-36 -8.5h-146v-268q38 75 125.5 124.5t189.5 49.5q141 0 211 -73t70 -207v-451h109q19 0 29.5 -12t10.5 -28q0 -17 -11 -29.5t-31 -12.5h-345q-22 0 -34 13t-12 30
q0 16 11 27.5t31 11.5h146v458q0 91 -45.5 141t-134.5 50z" />
    <glyph glyph-name="Itilde" unicode="&#x128;" 
d="M525 1528q4 0 16 -2q36 -7 123.5 -52t108.5 -45q9 0 16.5 4t15 14t11.5 16.5t12 21.5t10 20q4 8 17 8q17 0 34 -12t14 -26q-48 -125 -126 -125q-9 0 -27 4q-41 11 -115.5 49t-98.5 44q-3 1 -9 1q-34 0 -63 -68q-6 -12 -22 -12q-14 0 -27.5 8.5t-13.5 19.5q0 45 39.5 88.5
t84.5 43.5zM310 0q-24 0 -37.5 12.5t-13.5 30.5q0 17 13.5 30t36.5 13h305v999h-305q-23 0 -36.5 12.5t-13.5 29.5q0 18 13.5 31t37.5 13h685q23 0 36.5 -13t13.5 -31q0 -17 -13 -29.5t-36 -12.5h-286v-999h286q23 0 36 -13t13 -30q0 -18 -13 -30.5t-37 -12.5h-685z" />
    <glyph glyph-name="itilde" unicode="&#x129;" 
d="M567 1154q4 0 16 -2q36 -7 123.5 -52t108.5 -45q9 0 16.5 4t15 14t11.5 16.5t12 21.5t10 20q4 8 17 8q17 0 34 -12t14 -26q-48 -125 -126 -125q-9 0 -27 4q-41 11 -115.5 49t-98.5 44q-3 1 -9 1q-34 0 -63 -68q-6 -12 -22 -12q-14 0 -27.5 8.5t-13.5 19.5q0 45 39.5 88.5
t84.5 43.5zM299 0q-22 0 -34 13t-12 30q0 16 11 27.5t31 11.5h372v637l-333 -45q-2 0 -4 -0.5t-3 -0.5q-19 0 -30 12.5t-11 29.5q0 36 32 40l398 55q3 1 11 1q16 0 26 -8.5t10 -23.5v-697h333q19 0 29.5 -12.5t10.5 -28.5q0 -17 -11 -29t-30 -12h-796z" />
    <glyph glyph-name="Imacron" unicode="&#x12a;" 
d="M835 1350h-362q-51 0 -51 43t50 43h361q49 0 49 -43t-47 -43zM310 0q-24 0 -37.5 12.5t-13.5 30.5q0 17 13.5 30t36.5 13h305v999h-305q-23 0 -36.5 12.5t-13.5 29.5q0 18 13.5 31t37.5 13h685q23 0 36.5 -13t13.5 -31q0 -17 -13 -29.5t-36 -12.5h-286v-999h286
q23 0 36 -13t13 -30q0 -18 -13 -30.5t-37 -12.5h-685z" />
    <glyph glyph-name="imacron" unicode="&#x12b;" 
d="M877 976h-362q-51 0 -51 43t50 43h361q49 0 49 -43t-47 -43zM299 0q-22 0 -34 13t-12 30q0 16 11 27.5t31 11.5h372v637l-333 -45q-2 0 -4 -0.5t-3 -0.5q-19 0 -30 12.5t-11 29.5q0 36 32 40l398 55q3 1 11 1q16 0 26 -8.5t10 -23.5v-697h333q19 0 29.5 -12.5t10.5 -28.5
q0 -17 -11 -29t-30 -12h-796z" />
    <glyph glyph-name="Ibreve" unicode="&#x12c;" 
d="M652 1408q48 0 85 27.5t45 76.5q5 16 23 16q12 0 23 -7.5t11 -16.5q0 -44 -20 -76.5t-51 -48t-60 -22.5t-56 -7t-56 7t-60 22.5t-51 48t-20 76.5q0 9 11 16.5t23 7.5q18 0 23 -16q8 -49 45 -76.5t85 -27.5zM310 0q-24 0 -37.5 12.5t-13.5 30.5q0 17 13.5 30t36.5 13h305
v999h-305q-23 0 -36.5 12.5t-13.5 29.5q0 18 13.5 31t37.5 13h685q23 0 36.5 -13t13.5 -31q0 -17 -13 -29.5t-36 -12.5h-286v-999h286q23 0 36 -13t13 -30q0 -18 -13 -30.5t-37 -12.5h-685z" />
    <glyph glyph-name="ibreve" unicode="&#x12d;" 
d="M695 1034q48 0 85 27.5t45 76.5q5 16 23 16q12 0 23 -7.5t11 -16.5q0 -44 -20 -76.5t-51 -48t-60 -22.5t-56 -7t-56 7t-60 22.5t-51 48t-20 76.5q0 9 11 16.5t23 7.5q18 0 23 -16q8 -49 45 -76.5t85 -27.5zM299 0q-22 0 -34 13t-12 30q0 16 11 27.5t31 11.5h372v637
l-333 -45q-2 0 -4 -0.5t-3 -0.5q-19 0 -30 12.5t-11 29.5q0 36 32 40l398 55q3 1 11 1q16 0 26 -8.5t10 -23.5v-697h333q19 0 29.5 -12.5t10.5 -28.5q0 -17 -11 -29t-30 -12h-796z" />
    <glyph glyph-name="Iogonek" unicode="&#x12e;" 
d="M555 -274q0 -30 17 -39t47 -9h23q4 0 13.5 0.5t14 0t10.5 -1.5t8.5 -4.5t2.5 -8.5q0 -27 -37.5 -52t-84.5 -25q-112 0 -112 110q0 55 48.5 154t126.5 163h41q1 0 -28 -56t-59.5 -128t-30.5 -104zM310 0q-24 0 -37.5 12.5t-13.5 30.5q0 17 13.5 30t36.5 13h305v999h-305
q-23 0 -36.5 12.5t-13.5 29.5q0 18 13.5 31t37.5 13h685q23 0 36.5 -13t13.5 -31q0 -17 -13 -29.5t-36 -12.5h-286v-999h286q23 0 36 -13t13 -30q0 -18 -13 -30.5t-37 -12.5h-685z" />
    <glyph glyph-name="iogonek" unicode="&#x12f;" 
d="M593 -274q0 -30 17 -39t47 -9h23q4 0 13.5 0.5t14 0t10.5 -1.5t8.5 -4.5t2.5 -8.5q0 -27 -37.5 -52t-84.5 -25q-112 0 -112 110q0 55 48.5 154t126.5 163h41q1 0 -28 -56t-59.5 -128t-30.5 -104zM692 1171q34 0 58 -24t24 -59q0 -34 -24 -58t-58 -24q-35 0 -59 24t-24 58
t24.5 58.5t58.5 24.5zM295 0q-22 0 -34 13t-12 30q0 16 11 27.5t31 11.5h372v637l-333 -45q-2 0 -4 -0.5t-3 -0.5q-19 0 -30 12.5t-11 29.5q0 36 32 40l398 55q3 1 11 1q16 0 26 -8.5t10 -23.5v-697h333q19 0 29.5 -12.5t10.5 -28.5q0 -17 -11 -29t-30 -12h-796z" />
    <glyph glyph-name="Idotaccent" unicode="&#x130;" 
d="M652 1474q34 0 58 -24t24 -59q0 -34 -24 -58t-58 -24q-35 0 -59 24t-24 58t24.5 58.5t58.5 24.5zM310 0q-24 0 -37.5 12.5t-13.5 30.5q0 17 13.5 30t36.5 13h305v999h-305q-23 0 -36.5 12.5t-13.5 29.5q0 18 13.5 31t37.5 13h685q23 0 36.5 -13t13.5 -31q0 -17 -13 -29.5
t-36 -12.5h-286v-999h286q23 0 36 -13t13 -30q0 -18 -13 -30.5t-37 -12.5h-685z" />
    <glyph glyph-name="dotlessi" unicode="&#x131;" 
d="M299 0q-22 0 -34 13t-12 30q0 16 11 27.5t31 11.5h372v637l-333 -45q-2 0 -4 -0.5t-3 -0.5q-19 0 -30 12.5t-11 29.5q0 36 32 40l398 55q3 1 11 1q16 0 26 -8.5t10 -23.5v-697h333q19 0 29.5 -12.5t10.5 -28.5q0 -17 -11 -29t-30 -12h-796z" />
    <glyph glyph-name="IJ" unicode="&#x132;" 
d="M1040 307q0 -120 -31.5 -184.5t-109.5 -93.5t-223 -29q-15 0 -23.5 12t-8.5 29q0 16 8 28t24 12q62 0 104 3.5t73 15t48 25.5t27 42t13 58t3 79v781h-596v-999h131q23 0 36 -13t13 -30q0 -18 -13 -30.5t-37 -12.5h-360q-24 0 -37.5 12.5t-13.5 30.5q0 17 13.5 30t36.5 13
h135v999h-155q-23 0 -36.5 12.5t-13.5 29.5q0 18 13.5 31t37.5 13h1044q24 0 37 -12.5t13 -30.5q0 -17 -13 -30t-36 -13h-103v-778z" />
    <glyph glyph-name="ij" unicode="&#x133;" 
d="M576 -310q-24 0 -37.5 13t-13.5 31t15.5 31.5t42.5 13.5q93 0 172.5 21.5t135 73t55.5 125.5v732h-363v-649h118q19 0 29.5 -12.5t10.5 -28.5q0 -17 -11 -29t-30 -12h-515q-22 0 -34 13t-12 30q0 16 11 27.5t31 11.5h306v649h-180q-19 0 -30 13t-11 30q0 16 8.5 27.5
t23.5 11.5h708q36 0 36 -29v-795q0 -91 -66 -160t-171 -104t-229 -35zM955 1171q34 0 58 -24t24 -59q0 -34 -23.5 -58t-58.5 -24t-59 24t-24 58t24 58.5t59 24.5zM537 1171q34 0 58 -24t24 -59q0 -34 -23.5 -58t-58.5 -24t-59 24t-24 58t24 58.5t59 24.5z" />
    <glyph glyph-name="Jcircumflex" unicode="&#x134;" 
d="M606 1691q25 0 32 -12l184 -283q7 -7 7 -17q0 -12 -11.5 -20.5t-25.5 -8.5q-17 0 -23 9l-163 209l-162 -209q-6 -9 -23 -9q-14 0 -25.5 8.5t-11.5 20.5q0 10 7 17l184 283q8 12 31 12zM855 317q0 -68 -23.5 -123.5t-63 -93.5t-92 -64t-109 -37.5t-116.5 -11.5
q-128 0 -220.5 50.5t-92.5 133.5v112q0 21 15 33t34 12t33 -12t14 -33v-101q0 -50 67.5 -82t158.5 -32q56 0 107 13.5t95 41.5t70.5 77.5t26.5 113.5v771h-350q-23 0 -35.5 12.5t-12.5 29.5q0 18 13 31t36 13h615q24 0 37 -12.5t13 -30.5q0 -17 -13 -30t-36 -13h-171v-768z
" />
    <glyph glyph-name="jcircumflex" unicode="&#x135;" 
d="M597 1317q25 0 32 -12l184 -283q7 -7 7 -17q0 -12 -11.5 -20.5t-25.5 -8.5q-17 0 -23 9l-163 209l-162 -209q-6 -9 -23 -9q-14 0 -25.5 8.5t-11.5 20.5q0 10 7 17l184 283q8 12 31 12zM367 -310q-23 0 -37 13t-14 31t15.5 31.5t42.5 13.5q69 0 140.5 13t137 38.5
t106.5 69.5t41 99v732h-456q-21 0 -32.5 13t-11.5 30q0 16 10.5 27.5t29.5 11.5h520q36 0 36 -29v-795q0 -89 -82 -159.5t-201 -105t-245 -34.5z" />
    <glyph glyph-name="Kcommaaccent" unicode="&#x136;" 
d="M679 -163q102 0 102 -109q0 -81 -58 -156.5t-127 -110.5q-3 -2 -10 -2q-11 0 -19.5 8.5t-8.5 18.5q0 12 12 21q123 89 123 154q-47 0 -76.5 22.5t-29.5 68.5q0 45 26 65t66 20zM84 0q-24 0 -37.5 12.5t-13.5 30.5q0 17 13.5 30t36.5 13h159v998h-159q-24 0 -37 12.5
t-13 30.5t13.5 31t37.5 13h445q23 0 36.5 -13.5t13.5 -31.5q0 -17 -12.5 -29.5t-35.5 -12.5h-193v-526l576 520q7 7 7 10q0 6 -19 6h-89q-23 0 -36 11t-13 26q0 16 13.5 28t36.5 12h362q23 0 36 -13t13 -31t-12.5 -30.5t-35.5 -12.5h-138l-438 -408l521 -590h137
q23 0 35.5 -13t12.5 -30q0 -18 -13 -30.5t-36 -12.5h-418q-24 0 -37 12.5t-13 30.5q0 17 13 30t36 13h166l-478 535l-185 -156v-379h244q23 0 36 -13t13 -30q0 -18 -13 -30.5t-37 -12.5h-501z" />
    <glyph glyph-name="kcommaaccent" unicode="&#x137;" 
d="M648 -163q102 0 102 -109q0 -81 -58 -156.5t-127 -110.5q-3 -2 -10 -2q-11 0 -19.5 8.5t-8.5 18.5q0 12 12 21q123 89 123 154q-47 0 -76.5 22.5t-29.5 68.5q0 45 26 65t66 20zM464 399l383 293h-103q-20 0 -31 12t-11 29t12 29.5t34 12.5h317q20 0 30.5 -13t10.5 -33
q0 -14 -12 -25.5t-28 -11.5h-89l-317 -246l341 -364h87q19 0 29.5 -12.5t10.5 -28.5q0 -17 -10.5 -29t-29.5 -12h-313q-20 0 -31 12.5t-11 28.5q0 17 12 29t34 12h110l-299 318l-126 -92v-226h71q18 0 28.5 -12.5t10.5 -28.5q0 -17 -10.5 -29t-29.5 -12h-334
q-21 0 -33.5 12.5t-12.5 29.5q0 16 11 28t31 12h172v1000l-170 -24q-3 -1 -7 -1q-19 0 -30 12.5t-11 29.5q0 36 32 40l234 42q1 0 5 0.5t7 0.5q16 0 26 -8.5t10 -23.5v-751z" />
    <glyph glyph-name="kgreenlandic" unicode="&#x138;" 
d="M464 373l387 319h-107q-20 0 -31 12t-11 29t12 29.5t34 12.5h317q20 0 30.5 -13t10.5 -33q0 -14 -12 -25.5t-28 -11.5h-95l-309 -259l339 -351h87q19 0 29.5 -12.5t10.5 -28.5q0 -17 -10.5 -29t-29.5 -12h-313q-20 0 -31 12.5t-11 28.5q0 17 12 29t34 12h110l-292 305
l-133 -100v-205h71q18 0 28.5 -12.5t10.5 -28.5q0 -17 -10.5 -29t-29.5 -12h-334q-21 0 -33.5 12.5t-12.5 29.5q0 16 11 28t31 12h172v610h-175q-43 0 -43 42q0 16 10 28t29 12h239q16 0 26 -10t10 -28v-363z" />
    <glyph glyph-name="Lacute" unicode="&#x139;" 
d="M769 1588l-322 -234q-4 -4 -11 -4q-9 0 -16.5 6.5t-7.5 15.5q0 8 7 15l271 276q14 14 31 14q23 0 42.5 -20t19.5 -41q0 -18 -14 -28zM640 1171q24 0 37.5 -13t13.5 -31q0 -17 -13.5 -29.5t-36.5 -12.5h-152v-999h457q13 1 20 3.5t13.5 10.5t7.5 23l34 276q3 21 17 32
t33 11q21 0 36 -13t15 -36v-6l-30 -321q-4 -29 -22.5 -47.5t-49.5 -18.5h-895q-24 0 -37.5 12.5t-13.5 30.5q0 17 13.5 30t36.5 13h269v999h-227q-23 0 -36 12.5t-13 29.5q0 18 13.5 31t36.5 13h473z" />
    <glyph glyph-name="lacute" unicode="&#x13a;" 
d="M842 1583l-322 -234q-4 -4 -11 -4q-9 0 -16.5 6.5t-7.5 15.5q0 8 7 15l271 276q14 14 31 14q23 0 42.5 -20t19.5 -41q0 -18 -14 -28zM719 1150v-1068h340q18 0 28.5 -12.5t10.5 -28.5q0 -17 -10.5 -29t-29.5 -12h-800q-22 0 -34 12.5t-12 29.5q0 16 11 28t31 12h369v1008
l-353 -28q-2 0 -4 -0.5t-3 -0.5q-19 0 -30 12.5t-11 29.5q0 36 32 40l418 38q1 0 4.5 0.5t6.5 0.5q16 0 26 -8.5t10 -23.5z" />
    <glyph glyph-name="Lcommaaccent" unicode="&#x13b;" 
d="M607 -163q102 0 102 -109q0 -81 -58 -156.5t-127 -110.5q-3 -2 -10 -2q-11 0 -19.5 8.5t-8.5 18.5q0 12 12 21q123 89 123 154q-47 0 -76.5 22.5t-29.5 68.5q0 45 26 65t66 20zM640 1171q24 0 37.5 -13t13.5 -31q0 -17 -13.5 -29.5t-36.5 -12.5h-152v-999h457
q13 1 20 3.5t13.5 10.5t7.5 23l34 276q3 21 17 32t33 11q21 0 36 -13t15 -36v-6l-30 -321q-4 -29 -22.5 -47.5t-49.5 -18.5h-895q-24 0 -37.5 12.5t-13.5 30.5q0 17 13.5 30t36.5 13h269v999h-227q-23 0 -36 12.5t-13 29.5q0 18 13.5 31t36.5 13h473z" />
    <glyph glyph-name="lcommaaccent" unicode="&#x13c;" 
d="M680 -163q102 0 102 -109q0 -81 -58 -156.5t-127 -110.5q-3 -2 -10 -2q-11 0 -19.5 8.5t-8.5 18.5q0 12 12 21q123 89 123 154q-47 0 -76.5 22.5t-29.5 68.5q0 45 26 65t66 20zM719 1150v-1068h340q18 0 28.5 -12.5t10.5 -28.5q0 -17 -10.5 -29t-29.5 -12h-800
q-22 0 -34 12.5t-12 29.5q0 16 11 28t31 12h369v1008l-353 -28q-2 0 -4 -0.5t-3 -0.5q-19 0 -30 12.5t-11 29.5q0 36 32 40l418 38q1 0 4.5 0.5t6.5 0.5q16 0 26 -8.5t10 -23.5z" />
    <glyph glyph-name="Lcaron" unicode="&#x13d;" 
d="M1477 1187q48 0 80 -32t32 -89q0 -81 -58 -156.5t-127 -110.5q-3 -2 -10 -2q-11 0 -19.5 8.5t-8.5 18.5q0 12 12 21q109 79 109 154q-47 0 -77.5 23.5t-30.5 69.5q0 45 29.5 70t68.5 25zM640 1171q24 0 37.5 -13t13.5 -31q0 -17 -13.5 -29.5t-36.5 -12.5h-152v-999h457
q13 1 20 3.5t13.5 10.5t7.5 23l34 276q3 21 17 32t33 11q21 0 36 -13t15 -36v-6l-30 -321q-4 -29 -22.5 -47.5t-49.5 -18.5h-895q-24 0 -37.5 12.5t-13.5 30.5q0 17 13.5 30t36.5 13h269v999h-227q-23 0 -36 12.5t-13 29.5q0 18 13.5 31t36.5 13h473z" />
    <glyph glyph-name="lcaron" unicode="&#x13e;" 
d="M1469 1182q48 0 80 -32t32 -89q0 -81 -58 -156.5t-127 -110.5q-3 -2 -10 -2q-11 0 -19.5 8.5t-8.5 18.5q0 12 12 21q109 79 109 154q-47 0 -77.5 23.5t-30.5 69.5q0 45 29.5 70t68.5 25zM719 1150v-1068h340q18 0 28.5 -12.5t10.5 -28.5q0 -17 -10.5 -29t-29.5 -12h-800
q-22 0 -34 12.5t-12 29.5q0 16 11 28t31 12h369v1008l-353 -28q-2 0 -4 -0.5t-3 -0.5q-19 0 -30 12.5t-11 29.5q0 36 32 40l418 38q1 0 4.5 0.5t6.5 0.5q16 0 26 -8.5t10 -23.5z" />
    <glyph glyph-name="Ldot" unicode="&#x13f;" 
d="M821 776q34 0 58 -24t24 -59t-23.5 -58.5t-58.5 -23.5t-59 24t-24 58q0 35 24 59t59 24zM640 1171q24 0 37.5 -13t13.5 -31q0 -17 -13.5 -29.5t-36.5 -12.5h-152v-999h457q13 1 20 3.5t13.5 10.5t7.5 23l34 276q3 21 17 32t33 11q21 0 36 -13t15 -36v-6l-30 -321
q-4 -29 -22.5 -47.5t-49.5 -18.5h-895q-24 0 -37.5 12.5t-13.5 30.5q0 17 13.5 30t36.5 13h269v999h-227q-23 0 -36 12.5t-13 29.5q0 18 13.5 31t36.5 13h473z" />
    <glyph glyph-name="ldot" unicode="&#x140;" 
d="M973 776q34 0 58 -24t24 -59t-23.5 -58.5t-58.5 -23.5t-59 24t-24 58q0 35 24 59t59 24zM677 1150v-1068h340q18 0 28.5 -12.5t10.5 -28.5q0 -17 -10.5 -29t-29.5 -12h-800q-22 0 -34 12.5t-12 29.5q0 16 11 28t31 12h369v1008l-353 -28q-2 0 -4 -0.5t-3 -0.5
q-19 0 -30 12.5t-11 29.5q0 36 32 40l418 38q1 0 4.5 0.5t6.5 0.5q16 0 26 -8.5t10 -23.5z" />
    <glyph glyph-name="Lslash" unicode="&#x141;" 
d="M640 1171q24 0 37.5 -13t13.5 -31q0 -17 -13.5 -29.5t-36.5 -12.5h-152v-386l269 66q10 3 19 3q19 0 30 -12.5t11 -33.5q0 -27 -38 -37l-291 -73v-526h457q13 1 20 3.5t13.5 10.5t7.5 23l34 276q3 21 17 32t33 11q21 0 36 -13t15 -36v-6l-30 -321q-4 -29 -22.5 -47.5
t-49.5 -18.5h-895q-24 0 -37.5 12.5t-13.5 30.5q0 17 13.5 30t36.5 13h269v502l-148 -37q-12 -3 -22 -3q-19 0 -29.5 12.5t-10.5 33.5q0 30 40 40l170 42v409h-227q-23 0 -36 12.5t-13 29.5q0 18 13.5 31t36.5 13h473z" />
    <glyph glyph-name="lslash" unicode="&#x142;" 
d="M896 796q9 3 16 3q16 0 26.5 -13t10.5 -29q0 -23 -20 -32l-210 -86v-557h340q18 0 28.5 -12.5t10.5 -28.5q0 -17 -10.5 -29t-29.5 -12h-800q-22 0 -34 12.5t-12 29.5q0 16 11 28t31 12h369v518l-188 -77q-12 -4 -17 -4q-17 0 -29.5 13.5t-12.5 29.5q0 23 24 33l223 90
v405l-353 -28q-2 0 -4 -0.5t-3 -0.5q-19 0 -30 12.5t-11 29.5q0 36 32 40l418 38q1 0 4.5 0.5t6.5 0.5q16 0 26 -8.5t10 -23.5v-426z" />
    <glyph glyph-name="Nacute" unicode="&#x143;" 
d="M803 1588l-322 -234q-4 -4 -11 -4q-9 0 -16.5 6.5t-7.5 15.5q0 8 7 15l271 276q14 14 31 14q23 0 42.5 -20t19.5 -41q0 -18 -14 -28zM129 1085q-23 0 -36 12.5t-13 29.5q0 18 13.5 31t36.5 13h287q28 0 40 -24l486 -953v891h-149q-23 0 -36 12.5t-13 29.5q0 18 13.5 31
t37.5 13h337q23 0 36.5 -13t13.5 -31q0 -17 -12.5 -29.5t-35.5 -12.5h-96v-1038q0 -31 -14 -47t-35 -16q-36 0 -56 38l-553 1062v-998h138q23 0 36 -13t13 -30q0 -18 -13 -30.5t-37 -12.5h-358q-24 0 -37 12.5t-13 30.5q0 17 13 30t36 13h126v999h-156z" />
    <glyph glyph-name="nacute" unicode="&#x144;" 
d="M806 1214l-322 -234q-4 -4 -11 -4q-9 0 -16.5 6.5t-7.5 15.5q0 8 7 15l271 276q14 14 31 14q23 0 42.5 -20t19.5 -41q0 -18 -14 -28zM714 731q-136 0 -228 -73t-92 -155v-421h105q23 0 35.5 -12t12.5 -28q0 -17 -13.5 -29.5t-36.5 -12.5h-303q-22 0 -34 13t-12 30
q0 16 11 27.5t31 11.5h108v627l-108 -22q-11 -3 -20 -3q-17 0 -28 11t-11 27q0 33 33 41l164 33q14 2 18 2q37 0 39 -39l5 -120q38 75 127 124.5t192 49.5q141 0 211 -73t70 -207v-451h109q19 0 29.5 -12t10.5 -28q0 -17 -11 -29.5t-31 -12.5h-345q-22 0 -34 13t-12 30
q0 16 11 27.5t31 11.5h146v458q0 91 -45.5 141t-134.5 50z" />
    <glyph glyph-name="Ncommaaccent" unicode="&#x145;" 
d="M641 -179q102 0 102 -109q0 -81 -58 -156.5t-127 -110.5q-3 -2 -10 -2q-11 0 -19.5 8.5t-8.5 18.5q0 12 12 21q123 89 123 154q-47 0 -76.5 22.5t-29.5 68.5q0 45 26 65t66 20zM129 1085q-23 0 -36 12.5t-13 29.5q0 18 13.5 31t36.5 13h287q28 0 40 -24l486 -953v891
h-149q-23 0 -36 12.5t-13 29.5q0 18 13.5 31t37.5 13h337q23 0 36.5 -13t13.5 -31q0 -17 -12.5 -29.5t-35.5 -12.5h-96v-1038q0 -31 -14 -47t-35 -16q-36 0 -56 38l-553 1062v-998h138q23 0 36 -13t13 -30q0 -18 -13 -30.5t-37 -12.5h-358q-24 0 -37 12.5t-13 30.5
q0 17 13 30t36 13h126v999h-156z" />
    <glyph glyph-name="ncommaaccent" unicode="&#x146;" 
d="M644 -163q102 0 102 -109q0 -81 -58 -156.5t-127 -110.5q-3 -2 -10 -2q-11 0 -19.5 8.5t-8.5 18.5q0 12 12 21q123 89 123 154q-47 0 -76.5 22.5t-29.5 68.5q0 45 26 65t66 20zM714 731q-136 0 -228 -73t-92 -155v-421h105q23 0 35.5 -12t12.5 -28q0 -17 -13.5 -29.5
t-36.5 -12.5h-303q-22 0 -34 13t-12 30q0 16 11 27.5t31 11.5h108v627l-108 -22q-11 -3 -20 -3q-17 0 -28 11t-11 27q0 33 33 41l164 33q14 2 18 2q37 0 39 -39l5 -120q38 75 127 124.5t192 49.5q141 0 211 -73t70 -207v-451h109q19 0 29.5 -12t10.5 -28q0 -17 -11 -29.5
t-31 -12.5h-345q-22 0 -34 13t-12 30q0 16 11 27.5t31 11.5h146v458q0 91 -45.5 141t-134.5 50z" />
    <glyph glyph-name="Ncaron" unicode="&#x147;" 
d="M631 1350q-24 0 -31 11l-184 283q-7 7 -7 17q0 12 11.5 21t25.5 9q17 0 23 -9l162 -209l163 209q6 9 23 9q14 0 25.5 -9t11.5 -21q0 -10 -7 -17l-184 -283q-7 -11 -32 -11zM129 1085q-23 0 -36 12.5t-13 29.5q0 18 13.5 31t36.5 13h287q28 0 40 -24l486 -953v891h-149
q-23 0 -36 12.5t-13 29.5q0 18 13.5 31t37.5 13h337q23 0 36.5 -13t13.5 -31q0 -17 -12.5 -29.5t-35.5 -12.5h-96v-1038q0 -31 -14 -47t-35 -16q-36 0 -56 38l-553 1062v-998h138q23 0 36 -13t13 -30q0 -18 -13 -30.5t-37 -12.5h-358q-24 0 -37 12.5t-13 30.5q0 17 13 30
t36 13h126v999h-156z" />
    <glyph glyph-name="ncaron" unicode="&#x148;" 
d="M635 976q-24 0 -31 11l-184 283q-7 7 -7 17q0 12 11.5 21t25.5 9q17 0 23 -9l162 -209l163 209q6 9 23 9q14 0 25.5 -9t11.5 -21q0 -10 -7 -17l-184 -283q-7 -11 -32 -11zM714 731q-136 0 -228 -73t-92 -155v-421h105q23 0 35.5 -12t12.5 -28q0 -17 -13.5 -29.5
t-36.5 -12.5h-303q-22 0 -34 13t-12 30q0 16 11 27.5t31 11.5h108v627l-108 -22q-11 -3 -20 -3q-17 0 -28 11t-11 27q0 33 33 41l164 33q14 2 18 2q37 0 39 -39l5 -120q38 75 127 124.5t192 49.5q141 0 211 -73t70 -207v-451h109q19 0 29.5 -12t10.5 -28q0 -17 -11 -29.5
t-31 -12.5h-345q-22 0 -34 13t-12 30q0 16 11 27.5t31 11.5h146v458q0 91 -45.5 141t-134.5 50z" />
    <glyph glyph-name="napostrophe" unicode="&#x149;" 
d="M380 1304q48 0 80 -32t32 -89q0 -81 -58 -156.5t-127 -110.5q-3 -2 -10 -2q-11 0 -19.5 8.5t-8.5 18.5q0 12 12 21q109 79 109 154q-47 0 -77.5 23.5t-30.5 69.5q0 45 29.5 70t68.5 25zM714 731q-136 0 -228 -73t-92 -155v-421h105q23 0 35.5 -12t12.5 -28
q0 -17 -13.5 -29.5t-36.5 -12.5h-303q-22 0 -34 13t-12 30q0 16 11 27.5t31 11.5h108v627l-108 -22q-11 -3 -20 -3q-17 0 -28 11t-11 27q0 33 33 41l164 33q14 2 18 2q37 0 39 -39l5 -120q38 75 127 124.5t192 49.5q141 0 211 -73t70 -207v-451h109q19 0 29.5 -12t10.5 -28
q0 -17 -11 -29.5t-31 -12.5h-345q-22 0 -34 13t-12 30q0 16 11 27.5t31 11.5h146v458q0 91 -45.5 141t-134.5 50z" />
    <glyph glyph-name="Eng" unicode="&#x14a;" 
d="M629 -401q-19 0 -29.5 12.5t-10.5 29.5q0 16 10.5 27.5t30.5 11.5q57 0 113 20t100.5 56.5t72 91.5t27.5 120v84q-12 21 -138.5 251.5t-247 452t-176.5 328.5v-998h138q23 0 36 -13t13 -30q0 -18 -13 -30.5t-37 -12.5h-358q-24 0 -37 12.5t-13 30.5q0 17 13 30t36 13h126
v999h-156q-23 0 -36 12.5t-13 29.5q0 18 13.5 31t36.5 13h277q28 0 40 -24l496 -923v861h-149q-23 0 -36 12.5t-13 29.5q0 18 13.5 31t37.5 13h337q23 0 36.5 -13t13.5 -31q0 -17 -12.5 -29.5t-35.5 -12.5h-96v-1104q0 -113 -58.5 -201.5t-151.5 -134.5t-200 -46z" />
    <glyph glyph-name="eng" unicode="&#x14b;" 
d="M484 -308q-24 0 -37.5 13t-13.5 31t15.5 31.5t42.5 13.5q69 0 140.5 13t137 38.5t106.5 69.5t41 99v539q0 91 -45.5 141t-134.5 50q-136 0 -228 -73t-92 -155v-421h105q23 0 35.5 -12t12.5 -28q0 -17 -13.5 -29.5t-36.5 -12.5h-303q-22 0 -34 13t-12 30q0 16 11 27.5
t31 11.5h108v627l-108 -22q-11 -3 -20 -3q-17 0 -28 11t-11 27q0 33 33 41l164 33q14 2 18 2q37 0 39 -39l5 -120q38 75 127 124.5t192 49.5q141 0 211 -73t70 -207v-542q0 -89 -82 -159.5t-201 -105t-245 -34.5z" />
    <glyph glyph-name="Omacron" unicode="&#x14c;" 
d="M803 1350h-362q-51 0 -51 43t50 43h361q49 0 49 -43t-47 -43zM620 1101q-80 0 -149 -29t-117 -79t-82.5 -116t-51 -141t-16.5 -154q0 -98 26.5 -188.5t76 -163.5t131 -117t182.5 -44t182.5 44t131 117t76 163.5t26.5 188.5q0 79 -16.5 154t-51 141t-82.5 116t-117 79
t-149 29zM620 -17q-123 0 -223 51t-161.5 136t-94.5 191t-33 221t33 222t94.5 193t161.5 138t223 52t223 -52t161.5 -138t94.5 -193t33 -222t-33 -221t-94.5 -191t-161.5 -136t-223 -51z" />
    <glyph glyph-name="omacron" unicode="&#x14d;" 
d="M803 976h-362q-51 0 -51 43t50 43h361q49 0 49 -43t-47 -43zM620 65q148 0 232 92t84 241t-84 241t-232 92t-232 -92t-84 -241t84 -241t232 -92zM620 813q191 0 307.5 -112t116.5 -303q0 -189 -116.5 -302t-307.5 -113t-307.5 113t-116.5 302q0 191 116.5 303t307.5 112z
" />
    <glyph glyph-name="Obreve" unicode="&#x14e;" 
d="M620 1408q48 0 85 27.5t45 76.5q5 16 23 16q12 0 23 -7.5t11 -16.5q0 -44 -20 -76.5t-51 -48t-60 -22.5t-56 -7t-56 7t-60 22.5t-51 48t-20 76.5q0 9 11 16.5t23 7.5q18 0 23 -16q8 -49 45 -76.5t85 -27.5zM620 1101q-80 0 -149 -29t-117 -79t-82.5 -116t-51 -141
t-16.5 -154q0 -98 26.5 -188.5t76 -163.5t131 -117t182.5 -44t182.5 44t131 117t76 163.5t26.5 188.5q0 79 -16.5 154t-51 141t-82.5 116t-117 79t-149 29zM620 -17q-123 0 -223 51t-161.5 136t-94.5 191t-33 221t33 222t94.5 193t161.5 138t223 52t223 -52t161.5 -138
t94.5 -193t33 -222t-33 -221t-94.5 -191t-161.5 -136t-223 -51z" />
    <glyph glyph-name="obreve" unicode="&#x14f;" 
d="M620 1034q48 0 85 27.5t45 76.5q5 16 23 16q12 0 23 -7.5t11 -16.5q0 -44 -20 -76.5t-51 -48t-60 -22.5t-56 -7t-56 7t-60 22.5t-51 48t-20 76.5q0 9 11 16.5t23 7.5q18 0 23 -16q8 -49 45 -76.5t85 -27.5zM620 65q148 0 232 92t84 241t-84 241t-232 92t-232 -92
t-84 -241t84 -241t232 -92zM620 813q191 0 307.5 -112t116.5 -303q0 -189 -116.5 -302t-307.5 -113t-307.5 113t-116.5 302q0 191 116.5 303t307.5 112z" />
    <glyph glyph-name="Ohungarumlaut" unicode="&#x150;" 
d="M616 1608l-282 -254q-4 -4 -11 -4q-9 0 -16 6.5t-7 15.5t6 15l231 296q14 14 32 14q23 0 42 -19.5t19 -41.5q0 -18 -14 -28zM926 1588l-322 -234q-4 -4 -11 -4q-9 0 -16 6.5t-7 15.5t6 15l271 276q14 14 32 14q23 0 42 -19.5t19 -41.5q0 -18 -14 -28zM620 1101
q-80 0 -149 -29t-117 -79t-82.5 -116t-51 -141t-16.5 -154q0 -98 26.5 -188.5t76 -163.5t131 -117t182.5 -44t182.5 44t131 117t76 163.5t26.5 188.5q0 79 -16.5 154t-51 141t-82.5 116t-117 79t-149 29zM620 -17q-123 0 -223 51t-161.5 136t-94.5 191t-33 221t33 222
t94.5 193t161.5 138t223 52t223 -52t161.5 -138t94.5 -193t33 -222t-33 -221t-94.5 -191t-161.5 -136t-223 -51z" />
    <glyph glyph-name="ohungarumlaut" unicode="&#x151;" 
d="M616 1234l-282 -254q-4 -4 -11 -4q-9 0 -16 6.5t-7 15.5t6 15l231 296q14 14 32 14q23 0 42 -19.5t19 -41.5q0 -18 -14 -28zM926 1214l-322 -234q-4 -4 -11 -4q-9 0 -16 6.5t-7 15.5t6 15l271 276q14 14 32 14q23 0 42 -19.5t19 -41.5q0 -18 -14 -28zM620 65
q148 0 232 92t84 241t-84 241t-232 92t-232 -92t-84 -241t84 -241t232 -92zM620 813q191 0 307.5 -112t116.5 -303q0 -189 -116.5 -302t-307.5 -113t-307.5 113t-116.5 302q0 191 116.5 303t307.5 112z" />
    <glyph glyph-name="OE" unicode="&#x152;" 
d="M214 582q0 -117 29.5 -213.5t79 -158t111 -95t127.5 -33.5h18v1002h-15q-67 0 -129 -32.5t-111.5 -93.5t-79.5 -158.5t-30 -217.5zM924 437q0 -25 -11 -38t-27 -13q-15 0 -27 11.5t-13 31.5l-13 148h-156v-492h335l16 251q1 17 14 28t30 11t29.5 -13.5t12.5 -38.5v-270
q0 -25 -15.5 -39t-40.5 -14h-494h-1q-85 0 -164 38t-142 109t-101 184t-38 251q0 139 38.5 253t102 186.5t143 111.5t164.5 39q80 0 240 -0.5t240 -0.5q25 0 40.5 -14.5t15.5 -39.5v-270q0 -21 -12 -32.5t-28 -11.5t-28.5 10t-13.5 28l-14 243h-329v-430h156l13 133
q2 21 13.5 33t26.5 12q16 0 27 -13.5t11 -39.5v-342z" />
    <glyph glyph-name="oe" unicode="&#x153;" 
d="M579 398q0 154 -55 239.5t-131 85.5t-131 -85.5t-55 -239.5t55 -240t131 -86t131 86t55 240zM678 456l365 4q0 126 -49.5 199t-116.5 73q-65 0 -120 -72.5t-79 -203.5zM1128 479q0 -38 -21 -62.5t-56 -24.5l-376 -5q5 -155 66.5 -240.5t148.5 -85.5q98 0 181 101
q9 10 23 10q15 0 28.5 -10t13.5 -25q0 -14 -15 -32q-104 -115 -235 -115q-193 0 -255 215q-35 -110 -103.5 -162.5t-149.5 -52.5q-54 0 -103 26t-89 75.5t-63.5 129t-23.5 177.5q0 193 84.5 301t199.5 108q83 0 150 -53t96 -167q33 115 102 170t151 55q101 0 173.5 -86.5
t72.5 -246.5z" />
    <glyph glyph-name="Racute" unicode="&#x154;" 
d="M847 1588l-322 -234q-4 -4 -11 -4q-9 0 -16.5 6.5t-7.5 15.5q0 8 7 15l271 276q14 14 31 14q23 0 42.5 -20t19.5 -41q0 -18 -14 -28zM429 619h107q82 0 139.5 4.5t113 18.5t89 38.5t53.5 66t20 99.5q0 61 -15 103t-42.5 69t-77.5 41.5t-110 20t-150 5.5h-127v-466z
M658 41q0 -16 -13 -28.5t-37 -12.5h-399q-24 0 -37.5 12.5t-13.5 28.5q0 17 13 29t37 12h125v1003h-97q-23 0 -36.5 12.5t-13.5 29.5q0 18 13.5 31t37.5 13h320q78 0 137.5 -5t118 -17t99 -35.5t72.5 -57.5t47.5 -85t15.5 -118q0 -107 -58.5 -174.5t-147.5 -100.5l204 -496
h84q64 0 64 -40q0 -18 -15 -30t-48 -12h-235q-24 0 -37.5 12.5t-13.5 29.5q0 16 13 28t36 12h51l-180 474q-11 -4 -68 -9t-92 -5h-175v-460h180q23 0 36 -12t13 -29z" />
    <glyph glyph-name="racute" unicode="&#x155;" 
d="M789 1214l-322 -234q-4 -4 -11 -4q-9 0 -16.5 6.5t-7.5 15.5q0 8 7 15l271 276q14 14 31 14q23 0 42.5 -20t19.5 -41q0 -18 -14 -28zM920 731q-134 0 -237 -52.5t-143 -152.5v-444h336q19 0 29.5 -12t10.5 -29q0 -16 -11 -28.5t-30 -12.5h-610q-22 0 -34 12.5t-12 29.5
q0 16 11 28t31 12h183v627l-122 -25q-4 -1 -12 -1q-19 0 -29.5 12t-10.5 28q0 32 30 38l171 34q14 3 23 3q22 0 29.5 -14t8.5 -42l4 -104q114 175 392 175q88 0 88 -60v-138q0 -27 -14.5 -41.5t-34.5 -14.5q-19 0 -33 13.5t-14 38.5v120z" />
    <glyph glyph-name="Rcommaaccent" unicode="&#x156;" 
d="M685 -163q102 0 102 -109q0 -81 -58 -156.5t-127 -110.5q-3 -2 -10 -2q-11 0 -19.5 8.5t-8.5 18.5q0 12 12 21q123 89 123 154q-47 0 -76.5 22.5t-29.5 68.5q0 45 26 65t66 20zM429 619h107q82 0 139.5 4.5t113 18.5t89 38.5t53.5 66t20 99.5q0 61 -15 103t-42.5 69
t-77.5 41.5t-110 20t-150 5.5h-127v-466zM658 41q0 -16 -13 -28.5t-37 -12.5h-399q-24 0 -37.5 12.5t-13.5 28.5q0 17 13 29t37 12h125v1003h-97q-23 0 -36.5 12.5t-13.5 29.5q0 18 13.5 31t37.5 13h320q78 0 137.5 -5t118 -17t99 -35.5t72.5 -57.5t47.5 -85t15.5 -118
q0 -107 -58.5 -174.5t-147.5 -100.5l204 -496h84q64 0 64 -40q0 -18 -15 -30t-48 -12h-235q-24 0 -37.5 12.5t-13.5 29.5q0 16 13 28t36 12h51l-180 474q-11 -4 -68 -9t-92 -5h-175v-460h180q23 0 36 -12t13 -29z" />
    <glyph glyph-name="rcommaaccent" unicode="&#x157;" 
d="M627 -163q102 0 102 -109q0 -81 -58 -156.5t-127 -110.5q-3 -2 -10 -2q-11 0 -19.5 8.5t-8.5 18.5q0 12 12 21q123 89 123 154q-47 0 -76.5 22.5t-29.5 68.5q0 45 26 65t66 20zM920 731q-134 0 -237 -52.5t-143 -152.5v-444h336q19 0 29.5 -12t10.5 -29q0 -16 -11 -28.5
t-30 -12.5h-610q-22 0 -34 12.5t-12 29.5q0 16 11 28t31 12h183v627l-122 -25q-4 -1 -12 -1q-19 0 -29.5 12t-10.5 28q0 32 30 38l171 34q14 3 23 3q22 0 29.5 -14t8.5 -42l4 -104q114 175 392 175q88 0 88 -60v-138q0 -27 -14.5 -41.5t-34.5 -14.5q-19 0 -33 13.5t-14 38.5
v120z" />
    <glyph glyph-name="Rcaron" unicode="&#x158;" 
d="M675 1350q-24 0 -31 11l-184 283q-7 7 -7 17q0 12 11.5 21t25.5 9q17 0 23 -9l162 -209l163 209q6 9 23 9q14 0 25.5 -9t11.5 -21q0 -10 -7 -17l-184 -283q-7 -11 -32 -11zM429 619h107q82 0 139.5 4.5t113 18.5t89 38.5t53.5 66t20 99.5q0 61 -15 103t-42.5 69
t-77.5 41.5t-110 20t-150 5.5h-127v-466zM658 41q0 -16 -13 -28.5t-37 -12.5h-399q-24 0 -37.5 12.5t-13.5 28.5q0 17 13 29t37 12h125v1003h-97q-23 0 -36.5 12.5t-13.5 29.5q0 18 13.5 31t37.5 13h320q78 0 137.5 -5t118 -17t99 -35.5t72.5 -57.5t47.5 -85t15.5 -118
q0 -107 -58.5 -174.5t-147.5 -100.5l204 -496h84q64 0 64 -40q0 -18 -15 -30t-48 -12h-235q-24 0 -37.5 12.5t-13.5 29.5q0 16 13 28t36 12h51l-180 474q-11 -4 -68 -9t-92 -5h-175v-460h180q23 0 36 -12t13 -29z" />
    <glyph glyph-name="rcaron" unicode="&#x159;" 
d="M617 976q-24 0 -31 11l-184 283q-7 7 -7 17q0 12 11.5 21t25.5 9q17 0 23 -9l162 -209l163 209q6 9 23 9q14 0 25.5 -9t11.5 -21q0 -10 -7 -17l-184 -283q-7 -11 -32 -11zM920 731q-134 0 -237 -52.5t-143 -152.5v-444h336q19 0 29.5 -12t10.5 -29q0 -16 -11 -28.5
t-30 -12.5h-610q-22 0 -34 12.5t-12 29.5q0 16 11 28t31 12h183v627l-122 -25q-4 -1 -12 -1q-19 0 -29.5 12t-10.5 28q0 32 30 38l171 34q14 3 23 3q22 0 29.5 -14t8.5 -42l4 -104q114 175 392 175q88 0 88 -60v-138q0 -27 -14.5 -41.5t-34.5 -14.5q-19 0 -33 13.5t-14 38.5
v120z" />
    <glyph glyph-name="Sacute" unicode="&#x15a;" 
d="M834 1588l-322 -234q-4 -4 -11 -4q-9 0 -16.5 6.5t-7.5 15.5q0 8 7 15l271 276q14 14 31 14q23 0 42.5 -20t19.5 -41q0 -18 -14 -28zM650 1101q-128 0 -200 -57.5t-72 -157.5q0 -29 5.5 -52.5t12 -40.5t26 -33.5t31.5 -25.5t45.5 -23t51.5 -20.5t65 -22.5l136 -47
q78 -27 130.5 -53.5t94.5 -63.5t61.5 -85t19.5 -111q0 -86 -30 -150.5t-82.5 -101.5t-116.5 -55t-139 -18q-85 0 -179 33t-147 89q0 -122 -47 -122q-26 0 -37 16t-11 58v314q0 23 12.5 35t31.5 12t32.5 -13t13.5 -36v-119q0 -65 105.5 -123t228.5 -58q119 0 194 57t75 178
q0 47 -14.5 82t-46.5 61t-70.5 44t-98.5 39l-164 56q-55 19 -91 34t-76.5 40t-63.5 53.5t-38.5 71t-15.5 96.5q0 144 98.5 225t246.5 81q206 0 290 -92q0 92 52 92q21 0 30.5 -16t9.5 -54v-253q0 -26 -13 -39.5t-33 -13.5q-18 0 -31.5 12.5t-13.5 34.5v91q-6 49 -49 85
t-100 51.5t-119 15.5z" />
    <glyph glyph-name="sacute" unicode="&#x15b;" 
d="M814 1214l-322 -234q-4 -4 -11 -4q-9 0 -16.5 6.5t-7.5 15.5q0 8 7 15l271 276q14 14 31 14q23 0 42.5 -20t19.5 -41q0 -18 -14 -28zM609 813q87 0 168 -26.5t111 -65.5v37q-1 23 12 36.5t30 13.5t29 -13t12 -36l-2 -201q-5 -37 -40 -37q-25 0 -32 19t-8 66
q-53 125 -287 125q-212 0 -212 -130q0 -46 28 -74.5t99 -44.5l259 -52q97 -19 149.5 -69t52.5 -153q0 -112 -88.5 -168.5t-237.5 -56.5q-206 0 -310 119v-60q0 -21 -10.5 -31.5t-25.5 -10.5q-16 0 -28 11t-12 28l2 226q0 26 11 39t25 13q17 0 26.5 -10t9.5 -42
q0 -85 88.5 -142.5t217.5 -57.5q235 0 235 144q0 51 -27 82.5t-91 43.5l-266 52q-210 40 -210 199q0 64 27.5 110.5t75.5 70.5t102 35t117 11z" />
    <glyph glyph-name="Scircumflex" unicode="&#x15c;" 
d="M662 1691q25 0 32 -12l184 -283q7 -7 7 -17q0 -12 -11.5 -20.5t-25.5 -8.5q-17 0 -23 9l-163 209l-162 -209q-6 -9 -23 -9q-14 0 -25.5 8.5t-11.5 20.5q0 10 7 17l184 283q8 12 31 12zM650 1101q-128 0 -200 -57.5t-72 -157.5q0 -29 5.5 -52.5t12 -40.5t26 -33.5
t31.5 -25.5t45.5 -23t51.5 -20.5t65 -22.5l136 -47q78 -27 130.5 -53.5t94.5 -63.5t61.5 -85t19.5 -111q0 -86 -30 -150.5t-82.5 -101.5t-116.5 -55t-139 -18q-85 0 -179 33t-147 89q0 -122 -47 -122q-26 0 -37 16t-11 58v314q0 23 12.5 35t31.5 12t32.5 -13t13.5 -36v-119
q0 -65 105.5 -123t228.5 -58q119 0 194 57t75 178q0 47 -14.5 82t-46.5 61t-70.5 44t-98.5 39l-164 56q-55 19 -91 34t-76.5 40t-63.5 53.5t-38.5 71t-15.5 96.5q0 144 98.5 225t246.5 81q206 0 290 -92q0 92 52 92q21 0 30.5 -16t9.5 -54v-253q0 -26 -13 -39.5t-33 -13.5
q-18 0 -31.5 12.5t-13.5 34.5v91q-6 49 -49 85t-100 51.5t-119 15.5z" />
    <glyph glyph-name="scircumflex" unicode="&#x15d;" 
d="M642 1317q25 0 32 -12l184 -283q7 -7 7 -17q0 -12 -11.5 -20.5t-25.5 -8.5q-17 0 -23 9l-163 209l-162 -209q-6 -9 -23 -9q-14 0 -25.5 8.5t-11.5 20.5q0 10 7 17l184 283q8 12 31 12zM609 813q87 0 168 -26.5t111 -65.5v37q-1 23 12 36.5t30 13.5t29 -13t12 -36l-2 -201
q-5 -37 -40 -37q-25 0 -32 19t-8 66q-53 125 -287 125q-212 0 -212 -130q0 -46 28 -74.5t99 -44.5l259 -52q97 -19 149.5 -69t52.5 -153q0 -112 -88.5 -168.5t-237.5 -56.5q-206 0 -310 119v-60q0 -21 -10.5 -31.5t-25.5 -10.5q-16 0 -28 11t-12 28l2 226q0 26 11 39t25 13
q17 0 26.5 -10t9.5 -42q0 -85 88.5 -142.5t217.5 -57.5q235 0 235 144q0 51 -27 82.5t-91 43.5l-266 52q-210 40 -210 199q0 64 27.5 110.5t75.5 70.5t102 35t117 11z" />
    <glyph glyph-name="Scedilla" unicode="&#x15e;" 
d="M681 -4l-41 -321q-5 -42 -22.5 -61t-39.5 -19q-23 0 -36 14.5t-13 39.5q0 17 8 41l107 306h37zM650 1101q-128 0 -200 -57.5t-72 -157.5q0 -29 5.5 -52.5t12 -40.5t26 -33.5t31.5 -25.5t45.5 -23t51.5 -20.5t65 -22.5l136 -47q78 -27 130.5 -53.5t94.5 -63.5t61.5 -85
t19.5 -111q0 -86 -30 -150.5t-82.5 -101.5t-116.5 -55t-139 -18q-85 0 -179 33t-147 89q0 -122 -47 -122q-26 0 -37 16t-11 58v314q0 23 12.5 35t31.5 12t32.5 -13t13.5 -36v-119q0 -65 105.5 -123t228.5 -58q119 0 194 57t75 178q0 47 -14.5 82t-46.5 61t-70.5 44t-98.5 39
l-164 56q-55 19 -91 34t-76.5 40t-63.5 53.5t-38.5 71t-15.5 96.5q0 144 98.5 225t246.5 81q206 0 290 -92q0 92 52 92q21 0 30.5 -16t9.5 -54v-253q0 -26 -13 -39.5t-33 -13.5q-18 0 -31.5 12.5t-13.5 34.5v91q-6 49 -49 85t-100 51.5t-119 15.5z" />
    <glyph glyph-name="scedilla" unicode="&#x15f;" 
d="M661 -4l-41 -321q-5 -42 -22.5 -61t-39.5 -19q-23 0 -36 14.5t-13 39.5q0 17 8 41l107 306h37zM609 813q87 0 168 -26.5t111 -65.5v37q-1 23 12 36.5t30 13.5t29 -13t12 -36l-2 -201q-5 -37 -40 -37q-25 0 -32 19t-8 66q-53 125 -287 125q-212 0 -212 -130
q0 -46 28 -74.5t99 -44.5l259 -52q97 -19 149.5 -69t52.5 -153q0 -112 -88.5 -168.5t-237.5 -56.5q-206 0 -310 119v-60q0 -21 -10.5 -31.5t-25.5 -10.5q-16 0 -28 11t-12 28l2 226q0 26 11 39t25 13q17 0 26.5 -10t9.5 -42q0 -85 88.5 -142.5t217.5 -57.5q235 0 235 144
q0 51 -27 82.5t-91 43.5l-266 52q-210 40 -210 199q0 64 27.5 110.5t75.5 70.5t102 35t117 11z" />
    <glyph glyph-name="Scaron" unicode="&#x160;" 
d="M662 1350q-24 0 -31 11l-184 283q-7 7 -7 17q0 12 11.5 21t25.5 9q17 0 23 -9l162 -209l163 209q6 9 23 9q14 0 25.5 -9t11.5 -21q0 -10 -7 -17l-184 -283q-7 -11 -32 -11zM650 1101q-128 0 -200 -57.5t-72 -157.5q0 -29 5.5 -52.5t12 -40.5t26 -33.5t31.5 -25.5
t45.5 -23t51.5 -20.5t65 -22.5l136 -47q78 -27 130.5 -53.5t94.5 -63.5t61.5 -85t19.5 -111q0 -86 -30 -150.5t-82.5 -101.5t-116.5 -55t-139 -18q-85 0 -179 33t-147 89q0 -122 -47 -122q-26 0 -37 16t-11 58v314q0 23 12.5 35t31.5 12t32.5 -13t13.5 -36v-119
q0 -65 105.5 -123t228.5 -58q119 0 194 57t75 178q0 47 -14.5 82t-46.5 61t-70.5 44t-98.5 39l-164 56q-55 19 -91 34t-76.5 40t-63.5 53.5t-38.5 71t-15.5 96.5q0 144 98.5 225t246.5 81q206 0 290 -92q0 92 52 92q21 0 30.5 -16t9.5 -54v-253q0 -26 -13 -39.5t-33 -13.5
q-18 0 -31.5 12.5t-13.5 34.5v91q-6 49 -49 85t-100 51.5t-119 15.5z" />
    <glyph glyph-name="scaron" unicode="&#x161;" 
d="M642 976q-24 0 -31 11l-184 283q-7 7 -7 17q0 12 11.5 21t25.5 9q17 0 23 -9l162 -209l163 209q6 9 23 9q14 0 25.5 -9t11.5 -21q0 -10 -7 -17l-184 -283q-7 -11 -32 -11zM609 813q87 0 168 -26.5t111 -65.5v37q-1 23 12 36.5t30 13.5t29 -13t12 -36l-2 -201
q-5 -37 -40 -37q-25 0 -32 19t-8 66q-53 125 -287 125q-212 0 -212 -130q0 -46 28 -74.5t99 -44.5l259 -52q97 -19 149.5 -69t52.5 -153q0 -112 -88.5 -168.5t-237.5 -56.5q-206 0 -310 119v-60q0 -21 -10.5 -31.5t-25.5 -10.5q-16 0 -28 11t-12 28l2 226q0 26 11 39t25 13
q17 0 26.5 -10t9.5 -42q0 -85 88.5 -142.5t217.5 -57.5q235 0 235 144q0 51 -27 82.5t-91 43.5l-266 52q-210 40 -210 199q0 64 27.5 110.5t75.5 70.5t102 35t117 11z" />
    <glyph glyph-name="Tcaron" unicode="&#x164;" 
d="M619 1350q-24 0 -31 11l-184 283q-7 7 -7 17q0 12 11.5 21t25.5 9q17 0 23 -9l162 -209l163 209q6 9 23 9q14 0 25.5 -9t11.5 -21q0 -10 -7 -17l-184 -283q-7 -11 -32 -11zM210 814q-1 -22 -13 -33.5t-28 -11.5q-19 0 -34 14.5t-15 39.5v294q0 54 42 54h916q40 0 40 -54
v-294q0 -25 -13.5 -38.5t-32.5 -13.5q-17 0 -30 11.5t-14 31.5l-10 271h-352v-999h242q23 0 36 -12.5t13 -29.5q0 -18 -13.5 -31t-37.5 -13h-576q-24 0 -38 13t-14 31q0 17 13.5 29.5t36.5 12.5h242v999h-348z" />
    <glyph glyph-name="tcaron" unicode="&#x165;" 
d="M1354 1058q48 0 80 -32t32 -89q0 -81 -58 -156.5t-127 -110.5q-3 -2 -10 -2q-11 0 -19.5 8.5t-8.5 18.5q0 12 12 21q109 79 109 154q-47 0 -77.5 23.5t-30.5 69.5q0 45 29.5 70t68.5 25zM505 204q0 -72 47.5 -105.5t124.5 -33.5q70 0 145.5 24.5t123.5 60.5q4 4 11 4
q14 0 28 -17t14 -34q0 -8 -5 -15q-33 -39 -130 -72t-197 -33q-104 0 -181 55.5t-77 130.5v523h-143q-22 0 -34 13t-12 30q0 16 11 27.5t31 11.5h147q0 177 9.5 230.5t50.5 53.5q22 0 29 -11.5t7 -33.5v-239h372q18 0 28.5 -12.5t10.5 -28.5q0 -17 -10.5 -29t-29.5 -12h-371
v-488z" />
    <glyph glyph-name="Tbar" unicode="&#x166;" 
d="M210 814q-1 -22 -13 -33.5t-28 -11.5q-19 0 -34 14.5t-15 39.5v294q0 54 42 54h916q40 0 40 -54v-294q0 -25 -13.5 -38.5t-32.5 -13.5q-17 0 -30 11.5t-14 31.5l-10 271h-352v-437h173q39 0 39 -37q0 -39 -41 -39h-171v-486h242q23 0 36 -12.5t13 -29.5q0 -18 -13.5 -31
t-37.5 -13h-576q-24 0 -38 13t-14 31q0 17 13.5 29.5t36.5 12.5h242v486h-166q-46 0 -46 39q0 37 42 37h170v437h-348z" />
    <glyph glyph-name="tbar" unicode="&#x167;" 
d="M505 204q0 -72 47.5 -105.5t124.5 -33.5q70 0 145.5 24.5t123.5 60.5q4 4 11 4q14 0 28 -17t14 -34q0 -8 -5 -15q-33 -39 -130 -72t-197 -33q-104 0 -181 55.5t-77 130.5v259h-89q-46 0 -46 39q0 37 42 37h93v188h-143q-22 0 -34 13t-12 30q0 16 11 27.5t31 11.5h147
q0 177 9.5 230.5t50.5 53.5q22 0 29 -11.5t7 -33.5v-239h372q18 0 28.5 -12.5t10.5 -28.5q0 -17 -10.5 -29t-29.5 -12h-371v-188h260q39 0 39 -37q0 -39 -41 -39h-258v-224z" />
    <glyph glyph-name="Utilde" unicode="&#x168;" 
d="M522 1528q4 0 16 -2q36 -7 123.5 -52t108.5 -45q9 0 16.5 4t15 14t11.5 16.5t12 21.5t10 20q4 8 17 8q17 0 34 -12t14 -26q-48 -125 -126 -125q-9 0 -27 4q-41 11 -115.5 49t-98.5 44q-3 1 -9 1q-34 0 -63 -68q-6 -12 -22 -12q-14 0 -27.5 8.5t-13.5 19.5q0 45 39.5 88.5
t84.5 43.5zM654 -17q-182 0 -293.5 115t-111.5 315v672h-145q-23 0 -36 12.5t-13 29.5q0 18 13.5 31t36.5 13h401q23 0 36.5 -13t13.5 -31q0 -17 -13 -29.5t-36 -12.5h-162v-672q0 -164 80 -254t229 -90q138 0 222 95.5t84 246.5v674h-121q-23 0 -36.5 12.5t-13.5 29.5
q0 18 13.5 31t37.5 13h333q33 0 51.5 -13t18.5 -31q0 -17 -18 -29.5t-51 -12.5h-118v-674q0 -191 -111.5 -309.5t-290.5 -118.5z" />
    <glyph glyph-name="utilde" unicode="&#x169;" 
d="M505 1154q4 0 16 -2q36 -7 123.5 -52t108.5 -45q9 0 16.5 4t15 14t11.5 16.5t12 21.5t10 20q4 8 17 8q17 0 34 -12t14 -26q-48 -125 -126 -125q-9 0 -27 4q-41 11 -115.5 49t-98.5 44q-3 1 -9 1q-34 0 -63 -68q-6 -12 -22 -12q-14 0 -27.5 8.5t-13.5 19.5q0 45 39.5 88.5
t84.5 43.5zM562 65q90 0 180.5 48.5t123.5 117.5v475l-97 -20q-9 -3 -18 -3q-21 0 -34 13t-13 30q0 32 38 39l174 35q8 2 12 2q15 0 24.5 -10t9.5 -24v-683l148 11h6q20 0 30 -10t10 -25t-10 -27.5t-28 -16.5l-186 -20h-7q-44 0 -47 50l-5 87q-44 -65 -131 -108t-181 -43
q-136 0 -213.5 76.5t-77.5 202.5v444l-98 -20q-6 -2 -17 -2q-20 0 -33 13t-13 30q0 31 36 38l175 35q8 2 12 2q15 0 24.5 -10t9.5 -24v-509q0 -87 49.5 -140.5t146.5 -53.5z" />
    <glyph glyph-name="Umacron" unicode="&#x16a;" 
d="M832 1350h-362q-51 0 -51 43t50 43h361q49 0 49 -43t-47 -43zM654 -17q-182 0 -293.5 115t-111.5 315v672h-145q-23 0 -36 12.5t-13 29.5q0 18 13.5 31t36.5 13h401q23 0 36.5 -13t13.5 -31q0 -17 -13 -29.5t-36 -12.5h-162v-672q0 -164 80 -254t229 -90q138 0 222 95.5
t84 246.5v674h-121q-23 0 -36.5 12.5t-13.5 29.5q0 18 13.5 31t37.5 13h333q33 0 51.5 -13t18.5 -31q0 -17 -18 -29.5t-51 -12.5h-118v-674q0 -191 -111.5 -309.5t-290.5 -118.5z" />
    <glyph glyph-name="umacron" unicode="&#x16b;" 
d="M815 976h-362q-51 0 -51 43t50 43h361q49 0 49 -43t-47 -43zM562 65q90 0 180.5 48.5t123.5 117.5v475l-97 -20q-9 -3 -18 -3q-21 0 -34 13t-13 30q0 32 38 39l174 35q8 2 12 2q15 0 24.5 -10t9.5 -24v-683l148 11h6q20 0 30 -10t10 -25t-10 -27.5t-28 -16.5l-186 -20h-7
q-44 0 -47 50l-5 87q-44 -65 -131 -108t-181 -43q-136 0 -213.5 76.5t-77.5 202.5v444l-98 -20q-6 -2 -17 -2q-20 0 -33 13t-13 30q0 31 36 38l175 35q8 2 12 2q15 0 24.5 -10t9.5 -24v-509q0 -87 49.5 -140.5t146.5 -53.5z" />
    <glyph glyph-name="Ubreve" unicode="&#x16c;" 
d="M649 1408q48 0 85 27.5t45 76.5q5 16 23 16q12 0 23 -7.5t11 -16.5q0 -44 -20 -76.5t-51 -48t-60 -22.5t-56 -7t-56 7t-60 22.5t-51 48t-20 76.5q0 9 11 16.5t23 7.5q18 0 23 -16q8 -49 45 -76.5t85 -27.5zM654 -17q-182 0 -293.5 115t-111.5 315v672h-145
q-23 0 -36 12.5t-13 29.5q0 18 13.5 31t36.5 13h401q23 0 36.5 -13t13.5 -31q0 -17 -13 -29.5t-36 -12.5h-162v-672q0 -164 80 -254t229 -90q138 0 222 95.5t84 246.5v674h-121q-23 0 -36.5 12.5t-13.5 29.5q0 18 13.5 31t37.5 13h333q33 0 51.5 -13t18.5 -31
q0 -17 -18 -29.5t-51 -12.5h-118v-674q0 -191 -111.5 -309.5t-290.5 -118.5z" />
    <glyph glyph-name="ubreve" unicode="&#x16d;" 
d="M633 1034q48 0 85 27.5t45 76.5q5 16 23 16q12 0 23 -7.5t11 -16.5q0 -44 -20 -76.5t-51 -48t-60 -22.5t-56 -7t-56 7t-60 22.5t-51 48t-20 76.5q0 9 11 16.5t23 7.5q18 0 23 -16q8 -49 45 -76.5t85 -27.5zM562 65q90 0 180.5 48.5t123.5 117.5v475l-97 -20q-9 -3 -18 -3
q-21 0 -34 13t-13 30q0 32 38 39l174 35q8 2 12 2q15 0 24.5 -10t9.5 -24v-683l148 11h6q20 0 30 -10t10 -25t-10 -27.5t-28 -16.5l-186 -20h-7q-44 0 -47 50l-5 87q-44 -65 -131 -108t-181 -43q-136 0 -213.5 76.5t-77.5 202.5v444l-98 -20q-6 -2 -17 -2q-20 0 -33 13
t-13 30q0 31 36 38l175 35q8 2 12 2q15 0 24.5 -10t9.5 -24v-509q0 -87 49.5 -140.5t146.5 -53.5z" />
    <glyph glyph-name="Uring" unicode="&#x16e;" 
d="M652 1690q80 0 124.5 -50t44.5 -119t-46 -120t-126 -51t-125.5 50t-45.5 118q0 69 46.5 120.5t127.5 51.5zM654 1415q46 0 70 29.5t24 74.5t-25.5 75t-71.5 30q-47 0 -72 -30t-25 -75q0 -43 27 -73.5t73 -30.5zM654 -17q-182 0 -293.5 115t-111.5 315v672h-145
q-23 0 -36 12.5t-13 29.5q0 18 13.5 31t36.5 13h401q23 0 36.5 -13t13.5 -31q0 -17 -13 -29.5t-36 -12.5h-162v-672q0 -164 80 -254t229 -90q138 0 222 95.5t84 246.5v674h-121q-23 0 -36.5 12.5t-13.5 29.5q0 18 13.5 31t37.5 13h333q33 0 51.5 -13t18.5 -31
q0 -17 -18 -29.5t-51 -12.5h-118v-674q0 -191 -111.5 -309.5t-290.5 -118.5z" />
    <glyph glyph-name="uring" unicode="&#x16f;" 
d="M635 1316q80 0 124.5 -50t44.5 -119t-46 -120t-126 -51t-125.5 50t-45.5 118q0 69 46.5 120.5t127.5 51.5zM637 1041q46 0 70 29.5t24 74.5t-25.5 75t-71.5 30q-47 0 -72 -30t-25 -75q0 -43 27 -73.5t73 -30.5zM562 65q90 0 180.5 48.5t123.5 117.5v475l-97 -20
q-9 -3 -18 -3q-21 0 -34 13t-13 30q0 32 38 39l174 35q8 2 12 2q15 0 24.5 -10t9.5 -24v-683l148 11h6q20 0 30 -10t10 -25t-10 -27.5t-28 -16.5l-186 -20h-7q-44 0 -47 50l-5 87q-44 -65 -131 -108t-181 -43q-136 0 -213.5 76.5t-77.5 202.5v444l-98 -20q-6 -2 -17 -2
q-20 0 -33 13t-13 30q0 31 36 38l175 35q8 2 12 2q15 0 24.5 -10t9.5 -24v-509q0 -87 49.5 -140.5t146.5 -53.5z" />
    <glyph glyph-name="Uhungarumlaut" unicode="&#x170;" 
d="M645 1608l-282 -254q-4 -4 -11 -4q-9 0 -16 6.5t-7 15.5t6 15l231 296q14 14 32 14q23 0 42 -19.5t19 -41.5q0 -18 -14 -28zM955 1588l-322 -234q-4 -4 -11 -4q-9 0 -16 6.5t-7 15.5t6 15l271 276q14 14 32 14q23 0 42 -19.5t19 -41.5q0 -18 -14 -28zM654 -17
q-182 0 -293.5 115t-111.5 315v672h-145q-23 0 -36 12.5t-13 29.5q0 18 13.5 31t36.5 13h401q23 0 36.5 -13t13.5 -31q0 -17 -13 -29.5t-36 -12.5h-162v-672q0 -164 80 -254t229 -90q138 0 222 95.5t84 246.5v674h-121q-23 0 -36.5 12.5t-13.5 29.5q0 18 13.5 31t37.5 13
h333q33 0 51.5 -13t18.5 -31q0 -17 -18 -29.5t-51 -12.5h-118v-674q0 -191 -111.5 -309.5t-290.5 -118.5z" />
    <glyph glyph-name="uhungarumlaut" unicode="&#x171;" 
d="M628 1234l-282 -254q-4 -4 -11 -4q-9 0 -16 6.5t-7 15.5t6 15l231 296q14 14 32 14q23 0 42 -19.5t19 -41.5q0 -18 -14 -28zM938 1214l-322 -234q-4 -4 -11 -4q-9 0 -16 6.5t-7 15.5t6 15l271 276q14 14 32 14q23 0 42 -19.5t19 -41.5q0 -18 -14 -28zM562 65
q90 0 180.5 48.5t123.5 117.5v475l-97 -20q-9 -3 -18 -3q-21 0 -34 13t-13 30q0 32 38 39l174 35q8 2 12 2q15 0 24.5 -10t9.5 -24v-683l148 11h6q20 0 30 -10t10 -25t-10 -27.5t-28 -16.5l-186 -20h-7q-44 0 -47 50l-5 87q-44 -65 -131 -108t-181 -43q-136 0 -213.5 76.5
t-77.5 202.5v444l-98 -20q-6 -2 -17 -2q-20 0 -33 13t-13 30q0 31 36 38l175 35q8 2 12 2q15 0 24.5 -10t9.5 -24v-509q0 -87 49.5 -140.5t146.5 -53.5z" />
    <glyph glyph-name="Uogonek" unicode="&#x172;" 
d="M592 -291q0 -30 17 -39t47 -9h23q4 0 13.5 0.5t14 0t10.5 -1.5t8.5 -4.5t2.5 -8.5q0 -27 -37.5 -52t-84.5 -25q-112 0 -112 110q0 55 48.5 154t126.5 163h41q1 0 -28 -56t-59.5 -128t-30.5 -104zM654 -17q-182 0 -293.5 115t-111.5 315v672h-145q-23 0 -36 12.5t-13 29.5
q0 18 13.5 31t36.5 13h401q23 0 36.5 -13t13.5 -31q0 -17 -13 -29.5t-36 -12.5h-162v-672q0 -164 80 -254t229 -90q138 0 222 95.5t84 246.5v674h-121q-23 0 -36.5 12.5t-13.5 29.5q0 18 13.5 31t37.5 13h333q33 0 51.5 -13t18.5 -31q0 -17 -18 -29.5t-51 -12.5h-118v-674
q0 -191 -111.5 -309.5t-290.5 -118.5z" />
    <glyph glyph-name="uogonek" unicode="&#x173;" 
d="M838 -287q0 -30 17 -39t47 -9h23q4 0 13.5 0.5t14 0t10.5 -1.5t8.5 -4.5t2.5 -8.5q0 -27 -37.5 -52t-84.5 -25q-112 0 -112 110q0 55 48.5 154t126.5 163h41q1 0 -28 -56t-59.5 -128t-30.5 -104zM562 65q90 0 180.5 48.5t123.5 117.5v475l-97 -20q-9 -3 -18 -3
q-21 0 -34 13t-13 30q0 32 38 39l174 35q8 2 12 2q15 0 24.5 -10t9.5 -24v-683l148 11h6q20 0 30 -10t10 -25t-10 -27.5t-28 -16.5l-186 -20h-7q-44 0 -47 50l-5 87q-44 -65 -131 -108t-181 -43q-136 0 -213.5 76.5t-77.5 202.5v444l-98 -20q-6 -2 -17 -2q-20 0 -33 13
t-13 30q0 31 36 38l175 35q8 2 12 2q15 0 24.5 -10t9.5 -24v-509q0 -87 49.5 -140.5t146.5 -53.5z" />
    <glyph glyph-name="Wcircumflex" unicode="&#x174;" 
d="M625 1691q25 0 32 -12l184 -283q7 -7 7 -17q0 -12 -11.5 -20.5t-25.5 -8.5q-17 0 -23 9l-163 209l-162 -209q-6 -9 -23 -9q-14 0 -25.5 8.5t-11.5 20.5q0 10 7 17l184 283q8 12 31 12zM873 1085q-23 0 -36.5 13t-13.5 31q0 17 13 29.5t36 12.5h279q23 0 36.5 -12.5
t13.5 -29.5q0 -18 -13.5 -31t-37.5 -13h-70l-164 -1058q-7 -44 -52 -44q-17 0 -32 14t-21 38l-170 666l-187 -674q-12 -44 -51 -44q-19 0 -34 14t-18 38l-166 1050h-84q-23 0 -36.5 13t-13.5 31q0 17 13 29.5t36 12.5h302q23 0 36 -12.5t13 -29.5q0 -18 -13.5 -31t-37.5 -13
h-114l138 -886l177 651q9 36 45 36q34 0 43 -36l169 -654l122 889h-107z" />
    <glyph glyph-name="wcircumflex" unicode="&#x175;" 
d="M633 1317q25 0 32 -12l184 -283q7 -7 7 -17q0 -12 -11.5 -20.5t-25.5 -8.5q-17 0 -23 9l-163 209l-162 -209q-6 -9 -23 -9q-14 0 -25.5 8.5t-11.5 20.5q0 10 7 17l184 283q8 12 31 12zM765 774q39 0 39 -42q0 -40 -38 -40h-109l212 -600l169 600h-65q-39 0 -39 40
q0 42 40 42h221q46 0 46 -41t-42 -41h-69l-192 -638q-13 -42 -30 -55t-42 -13q-16 0 -27.5 4t-26 21t-26.5 48l-135 374l-144 -379q-16 -43 -32 -55.5t-40 -12.5q-17 0 -28.5 3.5t-26 20.5t-25.5 49l-209 633h-78q-42 0 -42 41t46 41h235q39 0 39 -42q0 -40 -38 -40h-52
l182 -600l169 463l-49 137h-51q-42 0 -42 41t46 41h254z" />
    <glyph glyph-name="Ycircumflex" unicode="&#x176;" 
d="M619 1691q25 0 32 -12l184 -283q7 -7 7 -17q0 -12 -11.5 -20.5t-25.5 -8.5q-17 0 -23 9l-163 209l-162 -209q-6 -9 -23 -9q-14 0 -25.5 8.5t-11.5 20.5q0 10 7 17l184 283q8 12 31 12zM1065 1171q24 0 37.5 -11.5t13.5 -27.5q0 -15 -13 -26t-36 -11h-55l-323 -547v-462
h232q23 0 35.5 -12.5t12.5 -29.5q0 -18 -13.5 -31t-36.5 -13h-585q-24 0 -38 13t-14 31q0 17 13.5 29.5t36.5 12.5h261v467l-335 542h-84q-23 0 -36.5 11.5t-13.5 26.5t14 26.5t37 11.5h330q24 0 37.5 -11.5t13.5 -26.5t-13.5 -26.5t-36.5 -11.5h-136l276 -462l268 462h-111
q-23 0 -36.5 11.5t-13.5 26.5t13.5 26.5t37.5 11.5h261z" />
    <glyph glyph-name="ycircumflex" unicode="&#x177;" 
d="M622 1317q25 0 32 -12l184 -283q7 -7 7 -17q0 -12 -11.5 -20.5t-25.5 -8.5q-17 0 -23 9l-163 209l-162 -209q-6 -9 -23 -9q-14 0 -25.5 8.5t-11.5 20.5q0 10 7 17l184 283q8 12 31 12zM488 774q41 0 41 -42q0 -40 -39 -40h-102l255 -597l228 597h-89q-39 0 -39 40
q0 42 40 42h265q46 0 46 -41t-42 -41h-79l-303 -775q-51 -131 -121.5 -204.5t-177.5 -73.5q-68 0 -68 52q0 48 68 48q55 0 105 37t67 83l54 139q-64 133 -176.5 387t-136.5 307h-93q-41 0 -41 40q0 42 46 42h292z" />
    <glyph glyph-name="Ydieresis" unicode="&#x178;" 
d="M788 1474q34 0 58 -24t24 -59q0 -34 -23.5 -58t-58.5 -24t-59 24t-24 58t24 58.5t59 24.5zM453 1474q34 0 58 -24t24 -59q0 -34 -24 -58t-58 -24q-35 0 -59 24t-24 58t24.5 58.5t58.5 24.5zM1065 1171q24 0 37.5 -11.5t13.5 -27.5q0 -15 -13 -26t-36 -11h-55l-323 -547
v-462h232q23 0 35.5 -12.5t12.5 -29.5q0 -18 -13.5 -31t-36.5 -13h-585q-24 0 -38 13t-14 31q0 17 13.5 29.5t36.5 12.5h261v467l-335 542h-84q-23 0 -36.5 11.5t-13.5 26.5t14 26.5t37 11.5h330q24 0 37.5 -11.5t13.5 -26.5t-13.5 -26.5t-36.5 -11.5h-136l276 -462l268 462
h-111q-23 0 -36.5 11.5t-13.5 26.5t13.5 26.5t37.5 11.5h261z" />
    <glyph glyph-name="Zacute" unicode="&#x179;" 
d="M803 1588l-322 -234q-4 -4 -11 -4q-9 0 -16.5 6.5t-7.5 15.5q0 8 7 15l271 276q14 14 31 14q23 0 42.5 -20t19.5 -41q0 -18 -14 -28zM254 806v310q2 55 68 55h630q23 0 36 -16.5t13 -38.5q0 -19 -10 -35l-622 -995h573v298q1 23 16.5 37t34.5 14q17 0 29 -12.5t12 -37.5
l10 -332q1 -25 -13.5 -39t-37.5 -14h-722q-52 0 -52 31q0 15 28 64l633 990h-514l-16 -288q-1 -19 -14 -29.5t-31 -10.5q-20 0 -35.5 13t-15.5 36z" />
    <glyph glyph-name="zacute" unicode="&#x17a;" 
d="M818 1214l-322 -234q-4 -4 -11 -4q-9 0 -16.5 6.5t-7.5 15.5q0 8 7 15l271 276q14 14 31 14q23 0 42.5 -20t19.5 -41q0 -18 -14 -28zM896 772q61 0 61 -45q0 -27 -18 -45l-552 -600h515l11 237q1 17 14 27.5t30 10.5t29 -11t12 -31v-269q0 -18 -16 -32t-35 -14h-613
q-56 0 -56 59q0 31 17 50l534 583h-461l-8 -197q-1 -21 -13 -33t-29 -12q-18 0 -31.5 13.5t-13.5 36.5v226q0 18 14 32t32 14h577z" />
    <glyph glyph-name="Zdotaccent" unicode="&#x17b;" 
d="M632 1474q34 0 58 -24t24 -59q0 -34 -24 -58t-58 -24q-35 0 -59 24t-24 58t24.5 58.5t58.5 24.5zM254 806v310q2 55 68 55h630q23 0 36 -16.5t13 -38.5q0 -19 -10 -35l-622 -995h573v298q1 23 16.5 37t34.5 14q17 0 29 -12.5t12 -37.5l10 -332q1 -25 -13.5 -39t-37.5 -14
h-722q-52 0 -52 31q0 15 28 64l633 990h-514l-16 -288q-1 -19 -14 -29.5t-31 -10.5q-20 0 -35.5 13t-15.5 36z" />
    <glyph glyph-name="zdotaccent" unicode="&#x17c;" 
d="M636 1100q34 0 58 -24t24 -59q0 -34 -24 -58t-58 -24q-35 0 -59 24t-24 58t24.5 58.5t58.5 24.5zM896 772q61 0 61 -45q0 -27 -18 -45l-552 -600h515l11 237q1 17 14 27.5t30 10.5t29 -11t12 -31v-269q0 -18 -16 -32t-35 -14h-613q-56 0 -56 59q0 31 17 50l534 583h-461
l-8 -197q-1 -21 -13 -33t-29 -12q-18 0 -31.5 13.5t-13.5 36.5v226q0 18 14 32t32 14h577z" />
    <glyph glyph-name="Zcaron" unicode="&#x17d;" 
d="M631 1350q-24 0 -31 11l-184 283q-7 7 -7 17q0 12 11.5 21t25.5 9q17 0 23 -9l162 -209l163 209q6 9 23 9q14 0 25.5 -9t11.5 -21q0 -10 -7 -17l-184 -283q-7 -11 -32 -11zM254 806v310q2 55 68 55h630q23 0 36 -16.5t13 -38.5q0 -19 -10 -35l-622 -995h573v298
q1 23 16.5 37t34.5 14q17 0 29 -12.5t12 -37.5l10 -332q1 -25 -13.5 -39t-37.5 -14h-722q-52 0 -52 31q0 15 28 64l633 990h-514l-16 -288q-1 -19 -14 -29.5t-31 -10.5q-20 0 -35.5 13t-15.5 36z" />
    <glyph glyph-name="zcaron" unicode="&#x17e;" 
d="M646 976q-24 0 -31 11l-184 283q-7 7 -7 17q0 12 11.5 21t25.5 9q17 0 23 -9l162 -209l163 209q6 9 23 9q14 0 25.5 -9t11.5 -21q0 -10 -7 -17l-184 -283q-7 -11 -32 -11zM896 772q61 0 61 -45q0 -27 -18 -45l-552 -600h515l11 237q1 17 14 27.5t30 10.5t29 -11t12 -31
v-269q0 -18 -16 -32t-35 -14h-613q-56 0 -56 59q0 31 17 50l534 583h-461l-8 -197q-1 -21 -13 -33t-29 -12q-18 0 -31.5 13.5t-13.5 36.5v226q0 18 14 32t32 14h577z" />
    <glyph glyph-name="florin" unicode="&#x192;" 
d="M623 48q-6 -69 -31 -119t-56 -76.5t-77.5 -41.5t-81.5 -18.5t-81 -3.5q-34 0 -34 37q0 2 0.5 6t0.5 7l10 118q1 14 15 22t30 8q35 0 35 -23v-3l-8 -98q166 0 182 183l54 644h-145q-16 0 -24.5 11.5t-8.5 27.5v5q2 16 11.5 28t24.5 12h149l6 64q15 180 112 265t282 85
q22 0 37.5 -12.5t15.5 -33.5v-5l-10 -117q-1 -14 -16 -22t-34 -8q-16 0 -28 6.5t-12 17.5v2l8 102q-60 -5 -100 -18t-76 -42t-56 -82.5t-27 -134.5l-6 -67h170q29 0 29 -35v-5q-2 -18 -11.5 -31t-25.5 -13h-169z" />
    <glyph glyph-name="uni01C4" unicode="&#x1c4;" 
d="M985 1320q-7 -11 -32 -11q-24 0 -31 11l-164 283q-7 7 -7 17q0 12 11.5 21t25.5 9q17 0 23 -9l142 -209l113 209q6 9 23 9q14 0 25.5 -9t11.5 -21q0 -10 -7 -17zM228 0h-113q-24 0 -37.5 12.5t-13.5 30.5q0 17 13.5 30t36.5 13h25v999h-21q-23 0 -35.5 12.5t-12.5 29.5
q0 18 13.5 31t36.5 13h110q220 0 319.5 -138.5t99.5 -441.5q0 -314 -100.5 -452.5t-320.5 -138.5zM1111 0h-372q-35 0 -35 39q0 21 11 56l323 990h-220v-228q0 -19 -13.5 -29.5t-31.5 -10.5q-41 0 -41 49v250q1 17 4 27.5t16.5 19t37.5 8.5h300q42 0 42 -60q0 -18 -3 -30
l-318 -995h259v228q1 23 14.5 36t31.5 13t32 -12t14 -36v-262q1 -25 -13.5 -39t-37.5 -14zM235 86q78 0 133.5 21t91 59.5t56.5 102.5t29 140t8 182q0 125 -14.5 211.5t-49.5 153t-98 98t-156 31.5v-999z" />
    <glyph glyph-name="uni01C5" unicode="&#x1c5;" 
d="M957 935q-24 0 -31 11l-184 283q-7 7 -7 17q0 12 11.5 21t25.5 9q17 0 23 -9l162 -209l163 209q6 9 23 9q14 0 25.5 -9t11.5 -21q0 -10 -7 -17l-184 -283q-7 -11 -32 -11zM228 0h-113q-24 0 -37.5 12.5t-13.5 30.5q0 17 13.5 30t36.5 13h25v999h-21q-23 0 -35.5 12.5
t-12.5 29.5q0 18 13.5 31t36.5 13h110q220 0 319.5 -138.5t99.5 -441.5q0 -314 -100.5 -452.5t-320.5 -138.5zM235 86q78 0 133.5 21t91 59.5t56.5 102.5t29 140t8 182q0 125 -14.5 211.5t-49.5 153t-98 98t-156 31.5v-999zM1089 772q61 0 61 -45q0 -8 -3 -15.5t-8.5 -17
t-6.5 -12.5l-272 -600h205l11 177q1 17 14 27.5t30 10.5t29 -11t12 -31v-209q0 -18 -16 -32t-35 -14h-304q-56 0 -56 59q0 16 17 50l267 583h-203l-8 -157q-1 -21 -13 -33t-29 -12q-18 0 -31.5 13.5t-13.5 36.5v186q0 18 14 32t32 14h307z" />
    <glyph glyph-name="uni01C6" unicode="&#x1c6;" 
d="M957 935q-24 0 -31 11l-184 283q-7 7 -7 17q0 12 11.5 21t25.5 9q17 0 23 -9l162 -209l163 209q6 9 23 9q14 0 25.5 -9t11.5 -21q0 -10 -7 -17l-184 -283q-7 -11 -32 -11zM1089 772q61 0 61 -45q0 -8 -3 -15.5t-8.5 -17t-6.5 -12.5l-272 -600h205l11 177q1 17 14 27.5
t30 10.5t29 -11t12 -31v-209q0 -18 -16 -32t-35 -14h-304q-56 0 -56 59q0 16 17 50l267 583h-203l-8 -157q-1 -21 -13 -33t-29 -12q-18 0 -31.5 13.5t-13.5 36.5v186q0 18 14 32t32 14h307zM159 398q0 -156 44.5 -247t114.5 -91q44 0 88.5 38t78.5 112v409q-90 116 -176 116
q-72 0 -111 -88.5t-39 -248.5zM497 47l-3 60q-77 -123 -184 -123q-102 0 -174.5 117t-72.5 297q0 187 66.5 301t169.5 114q100 0 186 -99v377l-128 -8q-1 0 -8.5 -1.5t-11.5 -1.5q-17 0 -28 11t-11 27q0 34 33 41l189 19q16 2 20 2q41 0 41 -39v-1056l56 6h6q20 0 30 -10
t10 -25t-10 -27.5t-28 -16.5l-94 -15h-7q-44 0 -47 50z" />
    <glyph glyph-name="uni01C7" unicode="&#x1c7;" 
d="M1154 367q0 -148 -26.5 -230.5t-82.5 -116t-155 -33.5t-156 49t-57 135v112q0 21 15 33t34 12t33 -12t14 -33v-113q0 -102 126 -102q97 0 128 60.5t31 235.5v721h-280q-23 0 -35.5 12.5t-12.5 29.5q0 18 13 31t36 13h445q24 0 37 -12.5t13 -30.5q0 -17 -13 -30t-36 -13
h-71v-718zM349 1171q24 0 37.5 -13t13.5 -31q0 -17 -13.5 -29.5t-36.5 -12.5h-152v-999h277q6 0 6.5 1.5t1.5 11.5l7 290q3 21 17 32t33 11q21 0 36 -13t15 -36v-317q-4 -29 -22.5 -47.5t-49.5 -18.5h-455q-24 0 -37.5 12.5t-13.5 30.5q0 17 13.5 30t36.5 13h39v999h-47
q-23 0 -36 12.5t-13 29.5q0 18 13.5 31t36.5 13h293z" />
    <glyph glyph-name="uni01C8" unicode="&#x1c8;" 
d="M728 -309q-24 0 -37.5 13t-13.5 31t15.5 31.5t42.5 13.5q285 0 285 220v732h-266q-21 0 -32.5 13t-11.5 30q0 16 10.5 27.5t29.5 11.5h330q36 0 36 -29v-795q0 -141 -102 -220t-286 -79zM464 1171q24 0 37.5 -13t13.5 -31q0 -17 -13.5 -29.5t-36.5 -12.5h-112v-999h292
q13 1 20 3.5t13.5 10.5t7.5 23l34 276q3 21 17 32t33 11q21 0 36 -13t15 -36v-6l-30 -321q-4 -29 -22.5 -47.5t-49.5 -18.5h-606q-24 0 -37.5 12.5t-13.5 30.5q0 17 13.5 30t36.5 13h145v999h-103q-23 0 -36 12.5t-13 29.5q0 18 13.5 31t36.5 13h309zM1022 1171q34 0 58 -24
t24 -59q0 -34 -24 -58t-58 -24q-35 0 -59 24t-24 58t24.5 58.5t58.5 24.5z" />
    <glyph glyph-name="uni01C9" unicode="&#x1c9;" 
d="M476 1150v-1068h220q18 0 28.5 -12.5t10.5 -28.5q0 -17 -10.5 -29t-29.5 -12h-549q-22 0 -34 12.5t-12 29.5q0 16 11 28t31 12h238v1008l-234 -29q-2 0 -4 -0.5t-3 -0.5q-19 0 -30 12.5t-11 29.5q0 36 32 40l299 39q1 0 4.5 0.5t6.5 0.5q16 0 26 -8.5t10 -23.5zM678 -309
q-24 0 -37.5 13t-13.5 31t15.5 31.5t42.5 13.5q285 0 285 220v732h-266q-21 0 -32.5 13t-11.5 30q0 16 10.5 27.5t29.5 11.5h330q36 0 36 -29v-795q0 -141 -102 -220t-286 -79zM999 1171q34 0 58 -24t24 -59q0 -34 -23.5 -58t-58.5 -24t-59 24t-24 58t24 58.5t59 24.5z" />
    <glyph glyph-name="uni01CA" unicode="&#x1ca;" 
d="M79 1085q-23 0 -36 12.5t-13 29.5q0 18 13.5 31t36.5 13h182q32 0 40 -24l281 -865v803h-79q-23 0 -36 12.5t-13 29.5q0 18 13.5 31t37.5 13h718q24 0 37 -12.5t13 -30.5q0 -17 -13 -30t-36 -13h-71v-778q0 -321 -203 -321q-63 0 -113.5 51t-50.5 144v52q0 21 15 33
t34 12t33 -12t14 -33v-53q0 -63 25 -87.5t56 -24.5q21 0 36.5 9t29.5 33t21 72.5t7 121.5v781h-379v-1038q0 -31 -14 -47t-35 -16q-17 0 -33.5 10t-22.5 28l-343 1042v-978h68q23 0 36 -13t13 -30q0 -18 -13 -30.5t-37 -12.5h-198q-24 0 -37 12.5t-13 30.5q0 17 13 30t36 13
h36v999h-56z" />
    <glyph glyph-name="uni01CB" unicode="&#x1cb;" 
d="M79 1085q-23 0 -36 12.5t-13 29.5q0 18 13.5 31t36.5 13h212q32 0 40 -24l311 -865v803h-79q-23 0 -36 12.5t-13 29.5q0 18 13.5 31t37.5 13h227q23 0 36.5 -13t13.5 -31q0 -17 -12.5 -29.5t-35.5 -12.5h-56v-1038q0 -31 -14 -47t-35 -16q-17 0 -33.5 10t-22.5 28
l-373 1042v-978h68q23 0 36 -13t13 -30q0 -18 -13 -30.5t-37 -12.5h-228q-24 0 -37 12.5t-13 30.5q0 17 13 30t36 13h66v999h-86zM748 -309q-24 0 -37.5 13t-13.5 31t15.5 31.5t42.5 13.5q285 0 285 220v732h-186q-21 0 -32.5 13t-11.5 30q0 16 10.5 27.5t29.5 11.5h250
q36 0 36 -29v-795q0 -141 -102 -220t-286 -79zM1052 1171q34 0 58 -24t24 -59q0 -34 -24 -58t-58 -24q-35 0 -59 24t-24 58t24.5 58.5t58.5 24.5z" />
    <glyph glyph-name="uni01CC" unicode="&#x1cc;" 
d="M478 731q-68 0 -117.5 -21t-75 -56t-36.5 -72t-11 -79v-421h75q23 0 35.5 -12t12.5 -28q0 -17 -13.5 -29.5t-36.5 -12.5h-223q-22 0 -34 13t-12 30q0 16 11 27.5t31 11.5h58v627l-58 -10q-10 -3 -20 -3q-17 0 -28 11t-11 27q0 33 33 41l114 21q14 2 18 2q37 0 39 -39
l5 -120q22 43 40 69.5t45.5 53t65.5 39t88 12.5q139 0 200 -71.5t61 -208.5v-451h49q19 0 29.5 -12t10.5 -28q0 -17 -11 -29.5t-31 -12.5h-225q-22 0 -34 13t-12 30q0 16 11 27.5t31 11.5h86v458q0 94 -36.5 142.5t-123.5 48.5zM748 -309q-24 0 -37.5 13t-13.5 31t15.5 31.5
t42.5 13.5q285 0 285 220v732h-186q-21 0 -32.5 13t-11.5 30q0 16 10.5 27.5t29.5 11.5h250q36 0 36 -29v-795q0 -141 -102 -220t-286 -79zM1044 1171q34 0 58 -24t24 -59q0 -34 -24 -58t-58 -24q-35 0 -59 24t-24 58t24.5 58.5t58.5 24.5z" />
    <glyph glyph-name="uni01F1" unicode="&#x1f1;" 
d="M228 0h-113q-24 0 -37.5 12.5t-13.5 30.5q0 17 13.5 30t36.5 13h25v999h-21q-23 0 -35.5 12.5t-12.5 29.5q0 18 13.5 31t36.5 13h110q220 0 319.5 -138.5t99.5 -441.5q0 -314 -100.5 -452.5t-320.5 -138.5zM1111 0h-372q-35 0 -35 39q0 21 11 56l323 990h-220v-228
q0 -19 -13.5 -29.5t-31.5 -10.5q-41 0 -41 49v250q1 17 4 27.5t16.5 19t37.5 8.5h300q42 0 42 -60q0 -18 -3 -30l-318 -995h259v228q1 23 14.5 36t31.5 13t32 -12t14 -36v-262q1 -25 -13.5 -39t-37.5 -14zM235 86q78 0 133.5 21t91 59.5t56.5 102.5t29 140t8 182
q0 125 -14.5 211.5t-49.5 153t-98 98t-156 31.5v-999z" />
    <glyph glyph-name="uni01F2" unicode="&#x1f2;" 
d="M228 0h-113q-24 0 -37.5 12.5t-13.5 30.5q0 17 13.5 30t36.5 13h25v999h-21q-23 0 -35.5 12.5t-12.5 29.5q0 18 13.5 31t36.5 13h110q220 0 319.5 -138.5t99.5 -441.5q0 -314 -100.5 -452.5t-320.5 -138.5zM235 86q78 0 133.5 21t91 59.5t56.5 102.5t29 140t8 182
q0 125 -14.5 211.5t-49.5 153t-98 98t-156 31.5v-999zM1089 772q61 0 61 -45q0 -8 -3 -15.5t-8.5 -17t-6.5 -12.5l-272 -600h205l11 177q1 17 14 27.5t30 10.5t29 -11t12 -31v-209q0 -18 -16 -32t-35 -14h-304q-56 0 -56 59q0 16 17 50l267 583h-203l-8 -157q-1 -21 -13 -33
t-29 -12q-18 0 -31.5 13.5t-13.5 36.5v186q0 18 14 32t32 14h307z" />
    <glyph glyph-name="uni01F3" unicode="&#x1f3;" 
d="M1089 772q61 0 61 -45q0 -8 -3 -15.5t-8.5 -17t-6.5 -12.5l-272 -600h205l11 177q1 17 14 27.5t30 10.5t29 -11t12 -31v-209q0 -18 -16 -32t-35 -14h-304q-56 0 -56 59q0 16 17 50l267 583h-203l-8 -157q-1 -21 -13 -33t-29 -12q-18 0 -31.5 13.5t-13.5 36.5v186
q0 18 14 32t32 14h307zM159 398q0 -156 44.5 -247t114.5 -91q44 0 88.5 38t78.5 112v409q-90 116 -176 116q-72 0 -111 -88.5t-39 -248.5zM497 47l-3 60q-77 -123 -184 -123q-102 0 -174.5 117t-72.5 297q0 187 66.5 301t169.5 114q100 0 186 -99v377l-128 -8
q-1 0 -8.5 -1.5t-11.5 -1.5q-17 0 -28 11t-11 27q0 34 33 41l189 19q16 2 20 2q41 0 41 -39v-1056l56 6h6q20 0 30 -10t10 -25t-10 -27.5t-28 -16.5l-94 -15h-7q-44 0 -47 50z" />
    <glyph glyph-name="uni01F4" unicode="&#x1f4;" 
d="M813 1588l-322 -234q-4 -4 -11 -4q-9 0 -16.5 6.5t-7.5 15.5q0 8 7 15l271 276q14 14 31 14q23 0 42.5 -20t19.5 -41q0 -18 -14 -28zM1083 510v-461q0 -27 -14 -42t-33 -15q-20 0 -34.5 15.5t-14.5 43.5v124q-38 -85 -143 -138.5t-238 -53.5q-233 0 -375 169.5
t-142 454.5q0 260 142.5 420t373.5 160q117 0 215 -48.5t139 -123.5v106q0 23 14.5 36.5t34.5 13.5t34.5 -13.5t14.5 -37.5v-293q0 -23 -13.5 -35t-32.5 -12q-40 0 -48 47q-23 123 -121.5 198.5t-233.5 75.5q-201 0 -312 -138.5t-111 -362.5q0 -246 120 -388.5t302 -142.5
q149 0 245.5 72t134.5 191v178h-124q-23 0 -36.5 13t-13.5 31q0 17 13 29.5t36 12.5h284q23 0 36 -12.5t13 -29.5q0 -18 -13.5 -31t-37.5 -13h-61z" />
    <glyph glyph-name="uni01F5" unicode="&#x1f5;" 
d="M894 1278l-322 -234q-4 -4 -11 -4q-9 0 -16.5 6.5t-7.5 15.5q0 8 7 15l271 276q14 14 31 14q23 0 42.5 -20t19.5 -41q0 -18 -14 -28zM548 109h93q91 0 151 -8.5t108.5 -32t71 -68.5t22.5 -114q0 -78 -61 -133t-151 -79t-197 -24q-50 0 -92.5 5.5t-83 20t-69 37
t-45.5 58.5t-17 82q0 72 33 125.5t86 79.5q-94 45 -94 127q0 53 49 96.5t96 49.5q-86 35 -129 83.5t-43 130.5q0 131 92.5 199.5t230.5 68.5q144 0 239 -79l152 101q62 42 121 42q58 0 58 -51t-133 -51l-169 -74q57 -71 57 -161q0 -131 -83.5 -192t-252.5 -61
q-78 0 -133.5 -28.5t-55.5 -68.5q0 -39 29.5 -60t119.5 -21zM460 37q-29 -11 -57.5 -63.5t-28.5 -95.5q0 -83 50.5 -114.5t158.5 -31.5q57 0 109.5 7.5t100.5 24t76.5 47t28.5 71.5q0 91 -54 123t-200 32h-184zM828 534q0 102 -65 149.5t-166 47.5q-99 0 -162 -47t-63 -142
q0 -88 61.5 -134.5t157.5 -46.5q237 0 237 173z" />
    <glyph glyph-name="uni0200" unicode="&#x200;" 
d="M631 1608q-14 10 -14 28q0 22 19 41.5t42 19.5q18 0 32 -14l231 -296q6 -6 6 -15t-7 -15.5t-16 -6.5q-7 0 -11 4zM321 1588q-14 10 -14 28q0 22 19 41.5t42 19.5q18 0 32 -14l271 -276q6 -6 6 -15t-7 -15.5t-16 -6.5q-7 0 -11 4zM425 475h420l-199 597zM90 0
q-24 0 -37 12.5t-13 30.5q0 17 13 30t36 13h85l385 999h-217q-24 0 -37 12.5t-13 30.5q0 17 13 30t36 13h303q58 0 81 -65l362 -1020h79q23 0 35.5 -12.5t12.5 -29.5q0 -18 -13.5 -31t-36.5 -13h-366q-24 0 -37.5 13t-13.5 31q0 17 13 29.5t36 12.5h186l-107 306h-483
l-112 -306h159q23 0 36.5 -13t13.5 -30q0 -18 -13.5 -30.5t-37.5 -12.5h-348z" />
    <glyph glyph-name="uni0201" unicode="&#x201;" 
d="M570 1234q-14 10 -14 28q0 22 19 41.5t42 19.5q18 0 32 -14l231 -296q6 -6 6 -15t-7 -15.5t-16 -6.5q-7 0 -11 4zM260 1214q-14 10 -14 28q0 22 19 41.5t42 19.5q18 0 32 -14l271 -276q6 -6 6 -15t-7 -15.5t-16 -6.5q-7 0 -11 4zM611 731q-121 0 -221 -45
q-4 -77 -18 -116t-48 -39q-29 0 -44.5 20t-15.5 52q0 92 97 151t251 59q87 0 146 -24.5t92 -74.5t46.5 -114.5t13.5 -155.5v-312q0 -35 14 -47.5t38 -12.5q26 0 55 15.5t46 33.5q11 12 24 12q15 0 26 -13t11 -29q0 -15 -10 -25q-70 -73 -160 -73q-51 0 -86 24.5t-47 95.5
q-49 -55 -137.5 -92t-192.5 -37q-112 0 -175 61.5t-63 164.5q0 36 9.5 66.5t23.5 53.5t40 41.5t49 31t62.5 23t67.5 16t76 10.5t78 7.5t82 5.5q49 3 73 5v20q0 117 -45.5 179t-157.5 62zM814 401q-233 -23 -298 -37q-127 -28 -155 -96q-11 -25 -11 -58q0 -76 41.5 -110.5
t110.5 -34.5q89 0 173.5 33.5t138.5 90.5v212z" />
    <glyph glyph-name="uni0202" unicode="&#x202;" 
d="M627 1470q-48 0 -85 -27.5t-45 -76.5q-5 -16 -23 -16q-12 0 -23 7.5t-11 16.5q0 44 20 76.5t51 48t60 22.5t56 7t56 -7t60 -22.5t51 -48t20 -76.5q0 -9 -11 -16.5t-23 -7.5q-18 0 -23 16q-8 49 -45 76.5t-85 27.5zM425 475h420l-199 597zM90 0q-24 0 -37 12.5t-13 30.5
q0 17 13 30t36 13h85l385 999h-217q-24 0 -37 12.5t-13 30.5q0 17 13 30t36 13h303q58 0 81 -65l362 -1020h79q23 0 35.5 -12.5t12.5 -29.5q0 -18 -13.5 -31t-36.5 -13h-366q-24 0 -37.5 13t-13.5 31q0 17 13 29.5t36 12.5h186l-107 306h-483l-112 -306h159q23 0 36.5 -13
t13.5 -30q0 -18 -13.5 -30.5t-37.5 -12.5h-348z" />
    <glyph glyph-name="uni0203" unicode="&#x203;" 
d="M648 1096q-48 0 -85 -27.5t-45 -76.5q-5 -16 -23 -16q-12 0 -23 7.5t-11 16.5q0 44 20 76.5t51 48t60 22.5t56 7t56 -7t60 -22.5t51 -48t20 -76.5q0 -9 -11 -16.5t-23 -7.5q-18 0 -23 16q-8 49 -45 76.5t-85 27.5zM611 731q-121 0 -221 -45q-4 -77 -18 -116t-48 -39
q-29 0 -44.5 20t-15.5 52q0 92 97 151t251 59q87 0 146 -24.5t92 -74.5t46.5 -114.5t13.5 -155.5v-312q0 -35 14 -47.5t38 -12.5q26 0 55 15.5t46 33.5q11 12 24 12q15 0 26 -13t11 -29q0 -15 -10 -25q-70 -73 -160 -73q-51 0 -86 24.5t-47 95.5q-49 -55 -137.5 -92
t-192.5 -37q-112 0 -175 61.5t-63 164.5q0 36 9.5 66.5t23.5 53.5t40 41.5t49 31t62.5 23t67.5 16t76 10.5t78 7.5t82 5.5q49 3 73 5v20q0 117 -45.5 179t-157.5 62zM814 401q-233 -23 -298 -37q-127 -28 -155 -96q-11 -25 -11 -58q0 -76 41.5 -110.5t110.5 -34.5
q89 0 173.5 33.5t138.5 90.5v212z" />
    <glyph glyph-name="uni0204" unicode="&#x204;" 
d="M624 1608q-14 10 -14 28q0 22 19 41.5t42 19.5q18 0 32 -14l231 -296q6 -6 6 -15t-7 -15.5t-16 -6.5q-7 0 -11 4zM314 1588q-14 10 -14 28q0 22 19 41.5t42 19.5q18 0 32 -14l271 -276q6 -6 6 -15t-7 -15.5t-16 -6.5q-7 0 -11 4zM837 437q0 -25 -11 -38t-27 -13
q-15 0 -27 11.5t-13 31.5l-13 148h-326v-492h615l16 251q1 17 14 28t30 11t29.5 -13.5t12.5 -38.5v-270q0 -25 -15.5 -39t-40.5 -14h-926q-24 0 -37.5 13t-13.5 30t13.5 29.5t36.5 12.5h170v1000h-135q-23 0 -35.5 12.5t-12.5 29.5q0 18 13.5 31t36.5 13h878
q25 0 40.5 -14.5t15.5 -39.5v-270q0 -21 -12 -32.5t-28 -11.5t-28.5 10t-13.5 28l-14 244h-609v-431h326l13 133q2 21 13.5 33t26.5 12q16 0 27 -13.5t11 -39.5v-342z" />
    <glyph glyph-name="uni0205" unicode="&#x205;" 
d="M576 1234q-14 10 -14 28q0 22 19 41.5t42 19.5q18 0 32 -14l231 -296q6 -6 6 -15t-7 -15.5t-16 -6.5q-7 0 -11 4zM266 1214q-14 10 -14 28q0 22 19 41.5t42 19.5q18 0 32 -14l271 -276q6 -6 6 -15t-7 -15.5t-16 -6.5q-7 0 -11 4zM654 813q160 0 260 -87.5t100 -246.5
q0 -38 -21 -62.5t-56 -24.5l-629 -5q5 -158 100 -240t249 -82q162 0 277 109q21 17 41 17q18 0 29 -13t11 -31q0 -23 -18 -42q-52 -56 -149.5 -89t-182.5 -33q-203 0 -328 113.5t-125 310.5q0 94 35 171.5t95.5 128t140.5 78.5t171 28zM311 461l618 4q-2 36 -7.5 66
t-23 69.5t-45.5 66t-78.5 45.5t-118.5 19q-146 0 -236.5 -71t-108.5 -199z" />
    <glyph glyph-name="uni0206" unicode="&#x206;" 
d="M700 1470q-48 0 -85 -27.5t-45 -76.5q-5 -16 -23 -16q-12 0 -23 7.5t-11 16.5q0 44 20 76.5t51 48t60 22.5t56 7t56 -7t60 -22.5t51 -48t20 -76.5q0 -9 -11 -16.5t-23 -7.5q-18 0 -23 16q-8 49 -45 76.5t-85 27.5zM837 437q0 -25 -11 -38t-27 -13q-15 0 -27 11.5
t-13 31.5l-13 148h-326v-492h615l16 251q1 17 14 28t30 11t29.5 -13.5t12.5 -38.5v-270q0 -25 -15.5 -39t-40.5 -14h-926q-24 0 -37.5 13t-13.5 30t13.5 29.5t36.5 12.5h170v1000h-135q-23 0 -35.5 12.5t-12.5 29.5q0 18 13.5 31t36.5 13h878q25 0 40.5 -14.5t15.5 -39.5
v-270q0 -21 -12 -32.5t-28 -11.5t-28.5 10t-13.5 28l-14 244h-609v-431h326l13 133q2 21 13.5 33t26.5 12q16 0 27 -13.5t11 -39.5v-342z" />
    <glyph glyph-name="uni0207" unicode="&#x207;" 
d="M652 1096q-48 0 -85 -27.5t-45 -76.5q-5 -16 -23 -16q-12 0 -23 7.5t-11 16.5q0 44 20 76.5t51 48t60 22.5t56 7t56 -7t60 -22.5t51 -48t20 -76.5q0 -9 -11 -16.5t-23 -7.5q-18 0 -23 16q-8 49 -45 76.5t-85 27.5zM654 813q160 0 260 -87.5t100 -246.5q0 -38 -21 -62.5
t-56 -24.5l-629 -5q5 -158 100 -240t249 -82q162 0 277 109q21 17 41 17q18 0 29 -13t11 -31q0 -23 -18 -42q-52 -56 -149.5 -89t-182.5 -33q-203 0 -328 113.5t-125 310.5q0 94 35 171.5t95.5 128t140.5 78.5t171 28zM311 461l618 4q-2 36 -7.5 66t-23 69.5t-45.5 66
t-78.5 45.5t-118.5 19q-146 0 -236.5 -71t-108.5 -199z" />
    <glyph glyph-name="uni0208" unicode="&#x208;" 
d="M656 1608q-14 10 -14 28q0 22 19 41.5t42 19.5q18 0 32 -14l231 -296q6 -6 6 -15t-7 -15.5t-16 -6.5q-7 0 -11 4zM346 1588q-14 10 -14 28q0 22 19 41.5t42 19.5q18 0 32 -14l271 -276q6 -6 6 -15t-7 -15.5t-16 -6.5q-7 0 -11 4zM310 0q-24 0 -37.5 12.5t-13.5 30.5
q0 17 13.5 30t36.5 13h305v999h-305q-23 0 -36.5 12.5t-13.5 29.5q0 18 13.5 31t37.5 13h685q23 0 36.5 -13t13.5 -31q0 -17 -13 -29.5t-36 -12.5h-286v-999h286q23 0 36 -13t13 -30q0 -18 -13 -30.5t-37 -12.5h-685z" />
    <glyph glyph-name="uni0209" unicode="&#x209;" 
d="M698 1234q-14 10 -14 28q0 22 19 41.5t42 19.5q18 0 32 -14l231 -296q6 -6 6 -15t-7 -15.5t-16 -6.5q-7 0 -11 4zM388 1214q-14 10 -14 28q0 22 19 41.5t42 19.5q18 0 32 -14l271 -276q6 -6 6 -15t-7 -15.5t-16 -6.5q-7 0 -11 4zM299 0q-22 0 -34 13t-12 30q0 16 11 27.5
t31 11.5h372v637l-333 -45q-2 0 -4 -0.5t-3 -0.5q-19 0 -30 12.5t-11 29.5q0 36 32 40l398 55q3 1 11 1q16 0 26 -8.5t10 -23.5v-697h333q19 0 29.5 -12.5t10.5 -28.5q0 -17 -11 -29t-30 -12h-796z" />
    <glyph glyph-name="uni020A" unicode="&#x20a;" 
d="M652 1470q-48 0 -85 -27.5t-45 -76.5q-5 -16 -23 -16q-12 0 -23 7.5t-11 16.5q0 44 20 76.5t51 48t60 22.5t56 7t56 -7t60 -22.5t51 -48t20 -76.5q0 -9 -11 -16.5t-23 -7.5q-18 0 -23 16q-8 49 -45 76.5t-85 27.5zM310 0q-24 0 -37.5 12.5t-13.5 30.5q0 17 13.5 30
t36.5 13h305v999h-305q-23 0 -36.5 12.5t-13.5 29.5q0 18 13.5 31t37.5 13h685q23 0 36.5 -13t13.5 -31q0 -17 -13 -29.5t-36 -12.5h-286v-999h286q23 0 36 -13t13 -30q0 -18 -13 -30.5t-37 -12.5h-685z" />
    <glyph glyph-name="uni020B" unicode="&#x20b;" 
d="M694 1096q-48 0 -85 -27.5t-45 -76.5q-5 -16 -23 -16q-12 0 -23 7.5t-11 16.5q0 44 20 76.5t51 48t60 22.5t56 7t56 -7t60 -22.5t51 -48t20 -76.5q0 -9 -11 -16.5t-23 -7.5q-18 0 -23 16q-8 49 -45 76.5t-85 27.5zM299 0q-22 0 -34 13t-12 30q0 16 11 27.5t31 11.5h372
v637l-333 -45q-2 0 -4 -0.5t-3 -0.5q-19 0 -30 12.5t-11 29.5q0 36 32 40l398 55q3 1 11 1q16 0 26 -8.5t10 -23.5v-697h333q19 0 29.5 -12.5t10.5 -28.5q0 -17 -11 -29t-30 -12h-796z" />
    <glyph glyph-name="uni020C" unicode="&#x20c;" 
d="M624 1608q-14 10 -14 28q0 22 19 41.5t42 19.5q18 0 32 -14l231 -296q6 -6 6 -15t-7 -15.5t-16 -6.5q-7 0 -11 4zM314 1588q-14 10 -14 28q0 22 19 41.5t42 19.5q18 0 32 -14l271 -276q6 -6 6 -15t-7 -15.5t-16 -6.5q-7 0 -11 4zM620 1101q-80 0 -149 -29t-117 -79
t-82.5 -116t-51 -141t-16.5 -154q0 -98 26.5 -188.5t76 -163.5t131 -117t182.5 -44t182.5 44t131 117t76 163.5t26.5 188.5q0 79 -16.5 154t-51 141t-82.5 116t-117 79t-149 29zM620 -17q-123 0 -223 51t-161.5 136t-94.5 191t-33 221t33 222t94.5 193t161.5 138t223 52
t223 -52t161.5 -138t94.5 -193t33 -222t-33 -221t-94.5 -191t-161.5 -136t-223 -51z" />
    <glyph glyph-name="uni020D" unicode="&#x20d;" 
d="M624 1234q-14 10 -14 28q0 22 19 41.5t42 19.5q18 0 32 -14l231 -296q6 -6 6 -15t-7 -15.5t-16 -6.5q-7 0 -11 4zM314 1214q-14 10 -14 28q0 22 19 41.5t42 19.5q18 0 32 -14l271 -276q6 -6 6 -15t-7 -15.5t-16 -6.5q-7 0 -11 4zM620 65q148 0 232 92t84 241t-84 241
t-232 92t-232 -92t-84 -241t84 -241t232 -92zM620 813q191 0 307.5 -112t116.5 -303q0 -189 -116.5 -302t-307.5 -113t-307.5 113t-116.5 302q0 191 116.5 303t307.5 112z" />
    <glyph glyph-name="uni020E" unicode="&#x20e;" 
d="M620 1470q-48 0 -85 -27.5t-45 -76.5q-5 -16 -23 -16q-12 0 -23 7.5t-11 16.5q0 44 20 76.5t51 48t60 22.5t56 7t56 -7t60 -22.5t51 -48t20 -76.5q0 -9 -11 -16.5t-23 -7.5q-18 0 -23 16q-8 49 -45 76.5t-85 27.5zM620 1101q-80 0 -149 -29t-117 -79t-82.5 -116t-51 -141
t-16.5 -154q0 -98 26.5 -188.5t76 -163.5t131 -117t182.5 -44t182.5 44t131 117t76 163.5t26.5 188.5q0 79 -16.5 154t-51 141t-82.5 116t-117 79t-149 29zM620 -17q-123 0 -223 51t-161.5 136t-94.5 191t-33 221t33 222t94.5 193t161.5 138t223 52t223 -52t161.5 -138
t94.5 -193t33 -222t-33 -221t-94.5 -191t-161.5 -136t-223 -51z" />
    <glyph glyph-name="uni020F" unicode="&#x20f;" 
d="M620 1096q-48 0 -85 -27.5t-45 -76.5q-5 -16 -23 -16q-12 0 -23 7.5t-11 16.5q0 44 20 76.5t51 48t60 22.5t56 7t56 -7t60 -22.5t51 -48t20 -76.5q0 -9 -11 -16.5t-23 -7.5q-18 0 -23 16q-8 49 -45 76.5t-85 27.5zM620 65q148 0 232 92t84 241t-84 241t-232 92t-232 -92
t-84 -241t84 -241t232 -92zM620 813q191 0 307.5 -112t116.5 -303q0 -189 -116.5 -302t-307.5 -113t-307.5 113t-116.5 302q0 191 116.5 303t307.5 112z" />
    <glyph glyph-name="uni0210" unicode="&#x210;" 
d="M570 1608q-14 10 -14 28q0 22 19 41.5t42 19.5q18 0 32 -14l231 -296q6 -6 6 -15t-7 -15.5t-16 -6.5q-7 0 -11 4zM260 1588q-14 10 -14 28q0 22 19 41.5t42 19.5q18 0 32 -14l271 -276q6 -6 6 -15t-7 -15.5t-16 -6.5q-7 0 -11 4zM429 619h107q82 0 139.5 4.5t113 18.5
t89 38.5t53.5 66t20 99.5q0 61 -15 103t-42.5 69t-77.5 41.5t-110 20t-150 5.5h-127v-466zM658 41q0 -16 -13 -28.5t-37 -12.5h-399q-24 0 -37.5 12.5t-13.5 28.5q0 17 13 29t37 12h125v1003h-97q-23 0 -36.5 12.5t-13.5 29.5q0 18 13.5 31t37.5 13h320q78 0 137.5 -5
t118 -17t99 -35.5t72.5 -57.5t47.5 -85t15.5 -118q0 -107 -58.5 -174.5t-147.5 -100.5l204 -496h84q64 0 64 -40q0 -18 -15 -30t-48 -12h-235q-24 0 -37.5 12.5t-13.5 29.5q0 16 13 28t36 12h51l-180 474q-11 -4 -68 -9t-92 -5h-175v-460h180q23 0 36 -12t13 -29z" />
    <glyph glyph-name="uni0211" unicode="&#x211;" 
d="M622 1234q-14 10 -14 28q0 22 19 41.5t42 19.5q18 0 32 -14l231 -296q6 -6 6 -15t-7 -15.5t-16 -6.5q-7 0 -11 4zM312 1214q-14 10 -14 28q0 22 19 41.5t42 19.5q18 0 32 -14l271 -276q6 -6 6 -15t-7 -15.5t-16 -6.5q-7 0 -11 4zM920 731q-134 0 -237 -52.5t-143 -152.5
v-444h336q19 0 29.5 -12t10.5 -29q0 -16 -11 -28.5t-30 -12.5h-610q-22 0 -34 12.5t-12 29.5q0 16 11 28t31 12h183v627l-122 -25q-4 -1 -12 -1q-19 0 -29.5 12t-10.5 28q0 32 30 38l171 34q14 3 23 3q22 0 29.5 -14t8.5 -42l4 -104q114 175 392 175q88 0 88 -60v-138
q0 -27 -14.5 -41.5t-34.5 -14.5q-19 0 -33 13.5t-14 38.5v120z" />
    <glyph glyph-name="uni0212" unicode="&#x212;" 
d="M676 1470q-48 0 -85 -27.5t-45 -76.5q-5 -16 -23 -16q-12 0 -23 7.5t-11 16.5q0 44 20 76.5t51 48t60 22.5t56 7t56 -7t60 -22.5t51 -48t20 -76.5q0 -9 -11 -16.5t-23 -7.5q-18 0 -23 16q-8 49 -45 76.5t-85 27.5zM429 619h107q82 0 139.5 4.5t113 18.5t89 38.5t53.5 66
t20 99.5q0 61 -15 103t-42.5 69t-77.5 41.5t-110 20t-150 5.5h-127v-466zM658 41q0 -16 -13 -28.5t-37 -12.5h-399q-24 0 -37.5 12.5t-13.5 28.5q0 17 13 29t37 12h125v1003h-97q-23 0 -36.5 12.5t-13.5 29.5q0 18 13.5 31t37.5 13h320q78 0 137.5 -5t118 -17t99 -35.5
t72.5 -57.5t47.5 -85t15.5 -118q0 -107 -58.5 -174.5t-147.5 -100.5l204 -496h84q64 0 64 -40q0 -18 -15 -30t-48 -12h-235q-24 0 -37.5 12.5t-13.5 29.5q0 16 13 28t36 12h51l-180 474q-11 -4 -68 -9t-92 -5h-175v-460h180q23 0 36 -12t13 -29z" />
    <glyph glyph-name="uni0213" unicode="&#x213;" 
d="M668 1096q-48 0 -85 -27.5t-45 -76.5q-5 -16 -23 -16q-12 0 -23 7.5t-11 16.5q0 44 20 76.5t51 48t60 22.5t56 7t56 -7t60 -22.5t51 -48t20 -76.5q0 -9 -11 -16.5t-23 -7.5q-18 0 -23 16q-8 49 -45 76.5t-85 27.5zM920 731q-134 0 -237 -52.5t-143 -152.5v-444h336
q19 0 29.5 -12t10.5 -29q0 -16 -11 -28.5t-30 -12.5h-610q-22 0 -34 12.5t-12 29.5q0 16 11 28t31 12h183v627l-122 -25q-4 -1 -12 -1q-19 0 -29.5 12t-10.5 28q0 32 30 38l171 34q14 3 23 3q22 0 29.5 -14t8.5 -42l4 -104q114 175 392 175q88 0 88 -60v-138
q0 -27 -14.5 -41.5t-34.5 -14.5q-19 0 -33 13.5t-14 38.5v120z" />
    <glyph glyph-name="uni0214" unicode="&#x214;" 
d="M653 1608q-14 10 -14 28q0 22 19 41.5t42 19.5q18 0 32 -14l231 -296q6 -6 6 -15t-7 -15.5t-16 -6.5q-7 0 -11 4zM343 1588q-14 10 -14 28q0 22 19 41.5t42 19.5q18 0 32 -14l271 -276q6 -6 6 -15t-7 -15.5t-16 -6.5q-7 0 -11 4zM654 -17q-182 0 -293.5 115t-111.5 315
v672h-145q-23 0 -36 12.5t-13 29.5q0 18 13.5 31t36.5 13h401q23 0 36.5 -13t13.5 -31q0 -17 -13 -29.5t-36 -12.5h-162v-672q0 -164 80 -254t229 -90q138 0 222 95.5t84 246.5v674h-121q-23 0 -36.5 12.5t-13.5 29.5q0 18 13.5 31t37.5 13h333q33 0 51.5 -13t18.5 -31
q0 -17 -18 -29.5t-51 -12.5h-118v-674q0 -191 -111.5 -309.5t-290.5 -118.5z" />
    <glyph glyph-name="uni0215" unicode="&#x215;" 
d="M576 1234q-14 10 -14 28q0 22 19 41.5t42 19.5q18 0 32 -14l231 -296q6 -6 6 -15t-7 -15.5t-16 -6.5q-7 0 -11 4zM266 1214q-14 10 -14 28q0 22 19 41.5t42 19.5q18 0 32 -14l271 -276q6 -6 6 -15t-7 -15.5t-16 -6.5q-7 0 -11 4zM562 65q90 0 180.5 48.5t123.5 117.5v475
l-97 -20q-9 -3 -18 -3q-21 0 -34 13t-13 30q0 32 38 39l174 35q8 2 12 2q15 0 24.5 -10t9.5 -24v-683l148 11h6q20 0 30 -10t10 -25t-10 -27.5t-28 -16.5l-186 -20h-7q-44 0 -47 50l-5 87q-44 -65 -131 -108t-181 -43q-136 0 -213.5 76.5t-77.5 202.5v444l-98 -20
q-6 -2 -17 -2q-20 0 -33 13t-13 30q0 31 36 38l175 35q8 2 12 2q15 0 24.5 -10t9.5 -24v-509q0 -87 49.5 -140.5t146.5 -53.5z" />
    <glyph glyph-name="uni0216" unicode="&#x216;" 
d="M649 1470q-48 0 -85 -27.5t-45 -76.5q-5 -16 -23 -16q-12 0 -23 7.5t-11 16.5q0 44 20 76.5t51 48t60 22.5t56 7t56 -7t60 -22.5t51 -48t20 -76.5q0 -9 -11 -16.5t-23 -7.5q-18 0 -23 16q-8 49 -45 76.5t-85 27.5zM654 -17q-182 0 -293.5 115t-111.5 315v672h-145
q-23 0 -36 12.5t-13 29.5q0 18 13.5 31t36.5 13h401q23 0 36.5 -13t13.5 -31q0 -17 -13 -29.5t-36 -12.5h-162v-672q0 -164 80 -254t229 -90q138 0 222 95.5t84 246.5v674h-121q-23 0 -36.5 12.5t-13.5 29.5q0 18 13.5 31t37.5 13h333q33 0 51.5 -13t18.5 -31
q0 -17 -18 -29.5t-51 -12.5h-118v-674q0 -191 -111.5 -309.5t-290.5 -118.5z" />
    <glyph glyph-name="uni0217" unicode="&#x217;" 
d="M632 1096q-48 0 -85 -27.5t-45 -76.5q-5 -16 -23 -16q-12 0 -23 7.5t-11 16.5q0 44 20 76.5t51 48t60 22.5t56 7t56 -7t60 -22.5t51 -48t20 -76.5q0 -9 -11 -16.5t-23 -7.5q-18 0 -23 16q-8 49 -45 76.5t-85 27.5zM562 65q90 0 180.5 48.5t123.5 117.5v475l-97 -20
q-9 -3 -18 -3q-21 0 -34 13t-13 30q0 32 38 39l174 35q8 2 12 2q15 0 24.5 -10t9.5 -24v-683l148 11h6q20 0 30 -10t10 -25t-10 -27.5t-28 -16.5l-186 -20h-7q-44 0 -47 50l-5 87q-44 -65 -131 -108t-181 -43q-136 0 -213.5 76.5t-77.5 202.5v444l-98 -20q-6 -2 -17 -2
q-20 0 -33 13t-13 30q0 31 36 38l175 35q8 2 12 2q15 0 24.5 -10t9.5 -24v-509q0 -87 49.5 -140.5t146.5 -53.5z" />
    <glyph glyph-name="Scommaaccent" unicode="&#x218;" 
d="M672 -180q102 0 102 -109q0 -81 -58 -156.5t-127 -110.5q-3 -2 -10 -2q-11 0 -19.5 8.5t-8.5 18.5q0 12 12 21q123 89 123 154q-47 0 -76.5 22.5t-29.5 68.5q0 45 26 65t66 20zM650 1101q-128 0 -200 -57.5t-72 -157.5q0 -29 5.5 -52.5t12 -40.5t26 -33.5t31.5 -25.5
t45.5 -23t51.5 -20.5t65 -22.5l136 -47q78 -27 130.5 -53.5t94.5 -63.5t61.5 -85t19.5 -111q0 -86 -30 -150.5t-82.5 -101.5t-116.5 -55t-139 -18q-85 0 -179 33t-147 89q0 -122 -47 -122q-26 0 -37 16t-11 58v314q0 23 12.5 35t31.5 12t32.5 -13t13.5 -36v-119
q0 -65 105.5 -123t228.5 -58q119 0 194 57t75 178q0 47 -14.5 82t-46.5 61t-70.5 44t-98.5 39l-164 56q-55 19 -91 34t-76.5 40t-63.5 53.5t-38.5 71t-15.5 96.5q0 144 98.5 225t246.5 81q206 0 290 -92q0 92 52 92q21 0 30.5 -16t9.5 -54v-253q0 -26 -13 -39.5t-33 -13.5
q-18 0 -31.5 12.5t-13.5 34.5v91q-6 49 -49 85t-100 51.5t-119 15.5z" />
    <glyph glyph-name="scommaaccent" unicode="&#x219;" 
d="M651 -180q102 0 102 -109q0 -81 -58 -156.5t-127 -110.5q-3 -2 -10 -2q-11 0 -19.5 8.5t-8.5 18.5q0 12 12 21q123 89 123 154q-47 0 -76.5 22.5t-29.5 68.5q0 45 26 65t66 20zM609 813q87 0 168 -26.5t111 -65.5v37q-1 23 12 36.5t30 13.5t29 -13t12 -36l-2 -201
q-5 -37 -40 -37q-25 0 -32 19t-8 66q-53 125 -287 125q-212 0 -212 -130q0 -46 28 -74.5t99 -44.5l259 -52q97 -19 149.5 -69t52.5 -153q0 -112 -88.5 -168.5t-237.5 -56.5q-206 0 -310 119v-60q0 -21 -10.5 -31.5t-25.5 -10.5q-16 0 -28 11t-12 28l2 226q0 26 11 39t25 13
q17 0 26.5 -10t9.5 -42q0 -85 88.5 -142.5t217.5 -57.5q235 0 235 144q0 51 -27 82.5t-91 43.5l-266 52q-210 40 -210 199q0 64 27.5 110.5t75.5 70.5t102 35t117 11z" />
    <glyph glyph-name="uni021A" unicode="&#x21a;" 
d="M628 -163q102 0 102 -109q0 -81 -58 -156.5t-127 -110.5q-3 -2 -10 -2q-11 0 -19.5 8.5t-8.5 18.5q0 12 12 21q123 89 123 154q-47 0 -76.5 22.5t-29.5 68.5q0 45 26 65t66 20zM210 814q-1 -22 -13 -33.5t-28 -11.5q-19 0 -34 14.5t-15 39.5v294q0 54 42 54h916
q40 0 40 -54v-294q0 -25 -13.5 -38.5t-32.5 -13.5q-17 0 -30 11.5t-14 31.5l-10 271h-352v-999h242q23 0 36 -12.5t13 -29.5q0 -18 -13.5 -31t-37.5 -13h-576q-24 0 -38 13t-14 31q0 17 13.5 29.5t36.5 12.5h242v999h-348z" />
    <glyph glyph-name="uni021B" unicode="&#x21b;" 
d="M619 -180q102 0 102 -109q0 -81 -58 -156.5t-127 -110.5q-3 -2 -10 -2q-11 0 -19.5 8.5t-8.5 18.5q0 12 12 21q123 89 123 154q-47 0 -76.5 22.5t-29.5 68.5q0 45 26 65t66 20zM505 204q0 -72 47.5 -105.5t124.5 -33.5q70 0 145.5 24.5t123.5 60.5q4 4 11 4q14 0 28 -17
t14 -34q0 -8 -5 -15q-33 -39 -130 -72t-197 -33q-104 0 -181 55.5t-77 130.5v523h-143q-22 0 -34 13t-12 30q0 16 11 27.5t31 11.5h147q0 177 9.5 230.5t50.5 53.5q22 0 29 -11.5t7 -33.5v-239h372q18 0 28.5 -12.5t10.5 -28.5q0 -17 -10.5 -29t-29.5 -12h-371v-488z" />
    <glyph glyph-name="uni0237" unicode="&#x237;" 
d="M367 -310q-23 0 -37 13t-14 31t15.5 31.5t42.5 13.5q69 0 140.5 13t137 38.5t106.5 69.5t41 99v732h-456q-21 0 -32.5 13t-11.5 30q0 16 10.5 27.5t29.5 11.5h520q36 0 36 -29v-795q0 -89 -82 -159.5t-201 -105t-245 -34.5z" />
    <glyph glyph-name="circumflex" unicode="&#x2c6;" 
d="M699 1320q25 0 32 -12l184 -283q7 -7 7 -17q0 -12 -11.5 -20.5t-25.5 -8.5q-17 0 -23 9l-163 209l-162 -209q-6 -9 -23 -9q-14 0 -25.5 8.5t-11.5 20.5q0 10 7 17l184 283q8 12 31 12z" />
    <glyph glyph-name="caron" unicode="&#x2c7;" 
d="M699 979q-24 0 -31 11l-184 283q-7 7 -7 17q0 12 11.5 21t25.5 9q17 0 23 -9l162 -209l163 209q6 9 23 9q14 0 25.5 -9t11.5 -21q0 -10 -7 -17l-184 -283q-7 -11 -32 -11z" />
    <glyph glyph-name="breve" unicode="&#x2d8;" 
d="M697 1028q48 0 85 27.5t45 76.5q5 16 23 16q12 0 23 -7.5t11 -16.5q0 -44 -20 -76.5t-51 -48t-60 -22.5t-56 -7t-56 7t-60 22.5t-51 48t-20 76.5q0 9 11 16.5t23 7.5q18 0 23 -16q8 -49 45 -76.5t85 -27.5z" />
    <glyph glyph-name="dotaccent" unicode="&#x2d9;" 
d="M644 811q34 0 58 -24t24 -59q0 -34 -24 -58t-58 -24q-35 0 -59 24t-24 58t24.5 58.5t58.5 24.5z" />
    <glyph glyph-name="ring" unicode="&#x2da;" 
d="M702 1349q80 0 124.5 -50t44.5 -119t-46 -120t-126 -51t-125.5 50t-45.5 118q0 69 46.5 120.5t127.5 51.5zM704 1074q46 0 70 29.5t24 74.5t-25.5 75t-71.5 30q-47 0 -72 -30t-25 -75q0 -43 27 -73.5t73 -30.5z" />
    <glyph glyph-name="ogonek" unicode="&#x2db;" 
d="M601 -268q0 -30 17 -39t47 -9h23q4 0 13.5 0.5t14 0t10.5 -1.5t8.5 -4.5t2.5 -8.5q0 -27 -37.5 -52t-84.5 -25q-112 0 -112 110q0 55 48.5 154t126.5 163h41q1 0 -28 -56t-59.5 -128t-30.5 -104z" />
    <glyph glyph-name="tilde" unicode="&#x2dc;" 
d="M533 1155q4 0 16 -2q36 -7 123.5 -52t108.5 -45q9 0 16.5 4t15 14t11.5 16.5t12 21.5t10 20q4 8 17 8q17 0 34 -12t14 -26q-48 -125 -126 -125q-9 0 -27 4q-41 11 -115.5 49t-98.5 44q-3 1 -9 1q-34 0 -63 -68q-6 -12 -22 -12q-14 0 -27.5 8.5t-13.5 19.5q0 45 39.5 88.5
t84.5 43.5z" />
    <glyph glyph-name="hungarumlaut" unicode="&#x2dd;" 
d="M616 1164l-282 -254q-4 -4 -11 -4q-9 0 -16 6.5t-7 15.5t6 15l231 296q14 14 32 14q23 0 42 -19.5t19 -41.5q0 -18 -14 -28zM926 1144l-322 -234q-4 -4 -11 -4q-9 0 -16 6.5t-7 15.5t6 15l271 276q14 14 32 14q23 0 42 -19.5t19 -41.5q0 -18 -14 -28z" />
    <glyph glyph-name="uni0307" unicode="&#x307;" 
d="M644 813q34 0 58 -24t24 -59q0 -34 -24 -58t-58 -24q-35 0 -59 24t-24 58t24.5 58.5t58.5 24.5z" />
    <glyph glyph-name="uni030F" unicode="&#x30f;" 
d="M624 1164q-14 10 -14 28q0 22 19 41.5t42 19.5q18 0 32 -14l231 -296q6 -6 6 -15t-7 -15.5t-16 -6.5q-7 0 -11 4zM314 1144q-14 10 -14 28q0 22 19 41.5t42 19.5q18 0 32 -14l271 -276q6 -6 6 -15t-7 -15.5t-16 -6.5q-7 0 -11 4z" />
    <glyph glyph-name="uni0311" unicode="&#x311;" 
d="M620 1090q-48 0 -85 -27.5t-45 -76.5q-5 -16 -23 -16q-12 0 -23 7.5t-11 16.5q0 44 20 76.5t51 48t60 22.5t56 7t56 -7t60 -22.5t51 -48t20 -76.5q0 -9 -11 -16.5t-23 -7.5q-18 0 -23 16q-8 49 -45 76.5t-85 27.5z" />
    <glyph glyph-name="uni0326" unicode="&#x326;" 
d="M659 168q102 0 102 -109q0 -81 -58 -156.5t-127 -110.5q-3 -2 -10 -2q-11 0 -19.5 8.5t-8.5 18.5q0 12 12 21q123 89 123 154q-47 0 -76.5 22.5t-29.5 68.5q0 45 26 65t66 20z" />
    <glyph glyph-name="mu" unicode="&#x3bc;" 
d="M562 65q90 0 180.5 48.5t123.5 117.5v475l-97 -20q-9 -3 -18 -3q-21 0 -34 13t-13 30q0 32 38 39l174 35q8 2 12 2q15 0 24.5 -10t9.5 -24v-683l148 11h6q20 0 30 -10t10 -25t-10 -27.5t-28 -16.5l-186 -20h-7q-44 0 -47 50l-5 87q-44 -65 -131 -108t-181 -43
q-135 1 -213 77q-6 5 -11 11q7 -51 16 -117q23 -163 32 -211q2 -16 2 -21q0 -33 -18 -49t-42 -16q-27 0 -42 23t-15 64v518v23v421l-98 -20q-6 -2 -17 -2q-20 0 -33 13t-13 30q0 31 36 38l175 35q8 2 12 2q15 0 24.5 -10t9.5 -24v-509q0 -87 49.5 -140.5t146.5 -53.5z" />
    <glyph glyph-name="uni1E02" unicode="&#x1e02;" 
d="M646 1474q34 0 58 -24t24 -59q0 -34 -24 -58t-58 -24q-35 0 -59 24t-24 58t24.5 58.5t58.5 24.5zM1104 348q0 -91 -38.5 -159t-108 -108.5t-158.5 -60.5t-197 -20h-358q-24 0 -37.5 12.5t-13.5 30.5q0 17 13.5 30t36.5 13h160v999h-166q-23 0 -36 13t-13 31
q0 17 12.5 29.5t35.5 12.5h356q415 0 415 -282q0 -88 -46.5 -148t-117.5 -81q116 -17 188.5 -94t72.5 -218zM1008 363q0 52 -13.5 91t-41.5 64t-60 41.5t-78.5 24t-88 10.5t-97.5 3h-130v-511h106q92 0 163 14t126.5 45.5t84.5 86t29 131.5zM921 885q0 108 -82.5 154
t-233.5 46h-106v-412h130q122 0 207 53t85 159z" />
    <glyph glyph-name="uni1E03" unicode="&#x1e03;" 
d="M576 1467q34 0 58 -24t24 -59q0 -34 -24 -58t-58 -24q-35 0 -59 24t-24 58t24.5 58.5t58.5 24.5zM952 398q0 141 -75.5 237t-212.5 96q-175 0 -278 -129v-392q101 -145 286 -145q133 0 206.5 95.5t73.5 237.5zM386 1141v-434q60 52 126.5 79t157.5 27q172 0 275 -116.5
t103 -298.5q0 -185 -100.5 -300t-273.5 -115q-90 0 -165 33t-127 86q0 -48 -8.5 -72.5t-17.5 -29t-25 -4.5q-41 0 -41 78v1017l-128 -8q-1 0 -8.5 -1.5t-11.5 -1.5q-17 0 -28 11t-11 27q0 34 33 41l189 19q16 2 20 2q41 0 41 -39z" />
    <glyph glyph-name="uni1E0A" unicode="&#x1e0a;" 
d="M593 1474q34 0 58 -24t24 -59q0 -34 -24 -58t-58 -24q-35 0 -59 24t-24 58t24.5 58.5t58.5 24.5zM988 591q0 238 -117.5 366t-336.5 128h-124v-999h110q244 0 356 124.5t112 380.5zM1084 591q0 -308 -145.5 -449.5t-425.5 -141.5h-361q-24 0 -37.5 12.5t-13.5 30.5
q0 17 13.5 30t36.5 13h163v999h-159q-23 0 -35.5 12.5t-12.5 29.5q0 18 13.5 31t36.5 13h358q267 0 418 -144t151 -436z" />
    <glyph glyph-name="uni1E0B" unicode="&#x1e0b;" 
d="M670 1467q34 0 58 -24t24 -59q0 -34 -24 -58t-58 -24q-35 0 -59 24t-24 58t24.5 58.5t58.5 24.5zM289 398q0 -142 75 -237.5t209 -95.5q181 0 282 145v392q-103 129 -278 129q-137 0 -212.5 -96t-75.5 -237zM867 47l-3 60q-46 -55 -123.5 -89.5t-169.5 -34.5
q-174 0 -276 115.5t-102 299.5q0 182 103 298.5t275 116.5q91 0 157.5 -27t126.5 -79v384l-128 -8q-1 0 -8.5 -1.5t-11.5 -1.5q-17 0 -28 11t-11 27q0 34 33 41l189 19q16 2 20 2q41 0 41 -39v-1056l148 11h6q20 0 30 -10t10 -25t-10 -27.5t-28 -16.5l-186 -20h-7
q-44 0 -47 50z" />
    <glyph glyph-name="uni1E1E" unicode="&#x1e1e;" 
d="M622 1474q34 0 58 -24t24 -59q0 -34 -24 -58t-58 -24q-35 0 -59 24t-24 58t24.5 58.5t58.5 24.5zM848 437q0 -25 -11 -38t-27 -13q-15 0 -27 11.5t-13 31.5l-13 148h-337v-492h350q22 0 34 -12.5t12 -29.5q0 -18 -12 -30.5t-33 -12.5h-616q-24 0 -37.5 13t-13.5 30
t13.5 29.5t36.5 12.5h170v1000h-135q-23 0 -35.5 12.5t-12.5 29.5q0 18 13.5 31t36.5 13h891q25 0 40.5 -14.5t15.5 -39.5v-270q0 -21 -12 -32.5t-28 -11.5t-28.5 10t-13.5 28l-14 244h-622v-431h337l13 133q2 21 13.5 33t26.5 12q16 0 27 -13.5t11 -39.5v-342z" />
    <glyph glyph-name="uni1E1F" unicode="&#x1e1f;" 
d="M662 1475q34 0 58 -24t24 -59q0 -34 -24 -58t-58 -24q-35 0 -59 24t-24 58t24.5 58.5t58.5 24.5zM1036 1020q0 -27 -14.5 -41.5t-34.5 -14.5q-19 0 -33 13.5t-14 38.5v93q-172 -12 -235.5 -73.5t-63.5 -203.5v-66h309q19 0 29.5 -12.5t10.5 -28.5q0 -17 -11 -29t-30 -12
h-309l1 -602h362q18 0 28.5 -12.5t10.5 -28.5q0 -17 -10.5 -29t-29.5 -12h-675q-22 0 -34 12.5t-12 29.5q0 16 11 28t31 12h221v602h-192q-22 0 -34 12.5t-12 29.5q0 16 11 28t31 12h196v72q0 177 112.5 263.5t322.5 86.5q24 0 40.5 -14t16.5 -37v-117z" />
    <glyph glyph-name="uni1E40" unicode="&#x1e40;" 
d="M620 1474q34 0 58 -24t24 -59q0 -34 -24 -58t-58 -24q-35 0 -59 24t-24 58t24.5 58.5t58.5 24.5zM817 0q-24 0 -37.5 13t-13.5 31q0 17 13 29.5t36 12.5h133v896l-257 -592q-21 -48 -66 -48q-41 0 -60 43l-267 593v-892h120q24 0 37 -12.5t13 -29.5q0 -18 -13.5 -31
t-37.5 -13h-347q-24 0 -37 12.5t-13 30.5q0 17 13 30t36 13h133v999h-119q-23 0 -36 12.5t-13 29.5q0 18 13.5 31t36.5 13h198q30 0 46 -35l301 -663l290 668q12 30 45 30h192q24 0 37.5 -13t13.5 -31q0 -17 -13.5 -29.5t-36.5 -12.5h-113v-999h128q23 0 35.5 -12.5
t12.5 -29.5q0 -18 -13.5 -31t-36.5 -13h-353z" />
    <glyph glyph-name="uni1E41" unicode="&#x1e41;" 
d="M630 1100q34 0 58 -24t24 -59q0 -34 -24 -58t-58 -24q-35 0 -59 24t-24 58t24.5 58.5t58.5 24.5zM591 540q0 98 -28.5 144.5t-76.5 46.5q-65 0 -120 -70t-59 -158v-421h85q23 0 35.5 -12t12.5 -28q0 -17 -13.5 -29.5t-36.5 -12.5h-283q-22 0 -34 13t-12 30q0 16 11 27.5
t31 11.5h108v627l-108 -22q-10 -3 -20 -3q-17 0 -28 11t-11 27q0 33 33 41l164 33q14 2 18 2q37 0 39 -39l5 -120q29 83 79 128.5t114 45.5q59 0 106 -40t69 -119q35 77 89.5 118t117.5 41q83 0 136 -71.5t53 -208.5v-451h109q19 0 29.5 -12t10.5 -28q0 -17 -11 -29.5
t-31 -12.5h-157q-22 0 -34 13t-12 30v497q0 191 -99 191q-67 0 -125.5 -68.5t-59.5 -153.5v-427h118q19 0 29.5 -12t10.5 -28q0 -17 -11 -29.5t-31 -12.5h-166q-22 0 -34 13t-12 30v497z" />
    </font>
</defs>
</svg>
